<mxfile host="Electron" modified="2024-04-13T14:50:20.763Z" agent="Mozilla/5.0 (Windows NT 10.0; Win64; x64) AppleWebKit/537.36 (KHTML, like Gecko) draw.io/21.2.8 Chrome/112.0.5615.165 Electron/24.2.0 Safari/537.36" etag="b1JK5dQJ0a49MsGNP89Z" version="21.2.8" type="device">
  <diagram name="Page-1" id="2XWkQP5S-hDbL94sL5Vg">
    <mxGraphModel dx="2058" dy="1180" grid="1" gridSize="10" guides="1" tooltips="1" connect="1" arrows="1" fold="1" page="1" pageScale="1" pageWidth="3300" pageHeight="4681" background="#999999" math="0" shadow="0">
      <root>
        <mxCell id="0" />
        <mxCell id="1" parent="0" />
        <mxCell id="HT3JYzme7oOu0LbbBRVU-1" value="C++" style="rounded=0;whiteSpace=wrap;html=1;fillColor=#dae8fc;strokeColor=#6c8ebf;fontSize=52;" parent="1" vertex="1">
          <mxGeometry x="1250" y="270" width="370" height="400" as="geometry" />
        </mxCell>
        <mxCell id="HT3JYzme7oOu0LbbBRVU-2" value="QML" style="rounded=0;whiteSpace=wrap;html=1;fillColor=#f8cecc;strokeColor=#b85450;fontSize=52;" parent="1" vertex="1">
          <mxGeometry x="1640" y="270" width="370" height="400" as="geometry" />
        </mxCell>
        <mxCell id="S9IRetqxCuwVArKSv5vH-1" value="Property Value Sources" style="rounded=0;whiteSpace=wrap;html=1;fontSize=30;fillColor=#dae8fc;strokeColor=#6c8ebf;" parent="1" vertex="1">
          <mxGeometry x="1260" y="80" width="680" height="140" as="geometry" />
        </mxCell>
        <mxCell id="Fyon28mkbxydN6EMD8Si-1" value="" style="shape=image;verticalLabelPosition=bottom;labelBackgroundColor=default;verticalAlign=top;aspect=fixed;imageAspect=0;image=data:image/png,iVBORw0KGgoAAAANSUhEUgAAAjcAAAGOCAYAAABrBSKOAAAAAXNSR0IArs4c6QAAAARnQU1BAACxjwv8YQUAAAAJcEhZcwAADsMAAA7DAcdvqGQAAFLlSURBVHhe7d0PcFRVnjf8bwj7aJJ5RkgnmgQDjUJCeAsIyao4KULJq2spMqRmllSYrbLAkq0xtQOUjlVoaTGWvEKVo8XybAVrmWeg5q1dUvDOVjIMTjn6aAFvRhgn4d++hESUkEiCkk7Qd5Lou/x5z+/cc7tvd9/uJJ1OCLe/n6q2b5/c0/f27cj55ZzfOTdt4aLSmyAiIiLyiCnmmYiIiMgTGNwQERGRpzC4ISIiIk9hcENERESewuCGiIiIPIXBDREREXkKgxsiIiLyFAY3RERE5CkMboiIiMhTGNwQERGRpzC4ISIiIk9hcENERESewuCGiIiIPIXBDREREXkKgxsiIiLyFAY3RERE5CkMboiIiMhTGNwQERGRpzC4ISIiIk9hcENERESewuCGiIiIPCUsuJk502+2iIiIiG5P7LkhIiIiT2FwQ0RERJ7C4IaIiIg8hcENEREReQqDGyIiIvIUBjdERETkKWkLF5XeNNt6KnhnZ4d5RTRO7p6CRU9PQYZ5GdR3A6d/fQOD5uX4ykHl6gdQVTYbBfmmCBdQt/YPOGJeERHR7SnlgpucqqmYM8e8iDDUdxNDx27gi7M3J6iBHYk0FD6TjhmYyIZ/nE2C4KZyYy1qF5sXQQxuiIi8gMGNmwntQRiOB4ObKGko+nk6sifsuudgzbZqrMoHmnfvx5tNvaaciIi8IGVzbvrevYZjv3Q+ruP0uzcwJD/MnoK5S9P0fuRhPS04wMCGiMhzmFAcdBODZ2/g1LtWR1aGTz9NChnZZoOIiIiGlbLDUtJz037WFDrZ+SCxhkjuTkPhD6Yge05aMGdEcnUu/f46er8yBa7SkDl/CuYukWDF7hW6iaHzN/BpQ0SOz/x0LFqi3n8kQc356zim6keJcZ59x26g62zk/pFDX2nqOk3BDGddfZ6xh4wy1TnPHeach45fx6mjLueayLBUwt+DRefc5LVg80vHwBR6IiJvYc9NhMxi01iqhjKykc1cmo4lT6sgwNGgCglW5jw9FYtiDWWphrhIBQ8Ln5TG37mPej1HlauGvfBuU2Qk3lujGv2q2Oc548l0FM03BZHUzzPNuc6JrDtnChY+MwWZ5rVTjjqe9dlMwThL+HuIlD8dM80mERF5B3tugtKQs3QKZjxkNZhRP5+vGlTVgEtvS9/xG/jiaCj40b0W0rirn136zXV0hfUcmF4J2ZSehbCek9Axh2L1JNn1R9qrYc7T6sW4gd6vwo81Rx1LPsP5X15HKNvE9NwEgxNV993Qecrnk+BFxLsu4XWmqGsiM6Iij+VmFJ8x4e8hnDVbirOjiIi8KGV7brKfnIolP3c+0nXDL4HN0PnrUYFP4RK7cVc/czSoYvDsdZOrk4bsYms/W6YKKKzARhpu1eCGDQndRO9RVVc1xO6BTQLUuZz+zTWcUscKBTbCOtb589arjIieoiAVFEkw4jxP+XzBer6Iz2dyk+S6hNex85fUNYnVUzRqiX8PITnwr34CVTINvKcfnVYhERF5CIelHIZUAHJeBRqnInNY7laNpUQo6udfxApCVGPep54y5qY5hm7S4FOvda/G7+P0SIQFIWM3aPdYqPPOmT8FRVXpWPRMug7irGnwKojL0XtEkPN072UZDCR+jpEBUcIS/h6UWUvw9t5a1O+txvYVs1HQcwGN7zDfhojIizgVXD1OH7ca7oy+mxG9HUaO1aMjU8QXhvX2OB9m6CmCnYcyNIIk12SRIaGiZ9Q5PZ2OOU+apNuwXJ/kGQxYz9lPpiPH2RskuTtmKGtoDIFRmDF8D5G61eOStUlERB7Dnhtl8Kj11z7mTIlK7L3t6PwYFdDoHg7JS7mue6NOq4cEcvbwUtIEh6ysZN5gkKECKx1knL8eu5dlIl08hufX1qFm7X7UHepHQf5s1P50Cfzmx0RE5B0MbrSb+EL33qRhxlMuM4J6b1qL+8m06+CifzEeMRJiY+a4jJTMZDKbsdm9JZLcq87111ZeivRGDSZ56Cuc9d76GgVZgdXpyGnuY5GE70G9CY4c2Ie6E2qTs6WIiDyJwY0hvTeXpPsmewrujUyAVYFBn/xs1D07qp7p1XANmmx3jyRwGUWA1HcTgbDEZZsZ1kmm+TJtHLgkScxhAUZ0wu+whgvgEv4eiIgolTC4CbqJrmNWQJC9JDIQsX+mgpSn01G0VDXCYY2rTLNOx6KfpyMyT7f3T6FbOix8Jh2F8525L+p9VHCwSL3nwqpYOTHhAVJkXktO2PsZ5vYRoc9gjiPTvYe7r9YoWbOlVNAUc3bSyAzpcUH1GZ3nLZ8v7Don/j0QEVHq4Do3YULrvbitpiuLxy3U68TEoNeWcVlfJdZdsIOGWZclbv3wdWTinqNM8/4Uesp7+Oe3P3fs87DfN+q6DPvZJHBRAZrrysghMc/bZQXmhL+HIHPjTHCFYiIiL2LPTZhQ703GQ1Oi/vofPKoaWtX4Xzpvcj9s0nhLfomsY+PWoH51A6dUAHL+uKqneyhscvsFVU/WlYnZECtSXx23Tx3HSS/U9+6NsKnbco6n3404jt7PysHpNbObkuYr9d7qesQz7MrIij5vuT7mtSbn3W62HRL+HoiIKCWkXM8NJZPp8Qnek8pNmr49g/SWxb631ERjzw0RkZex54YSZxbVG/o0XuKw+lmy1rlJtvwyrK5gdg4RkdcwuKExkyG8ovnOBGaL3IRTbuJp5cfcxKVJ0WsjevFxS7/eKl9fjXq9crE8nkClLiUiotsZh6VoTOwE7bgkdyZugu+tIfeY2lA2GwX5pgC8kSYRkRcwuKExk9s93LvEusWDc9aUPUtK1txJ2kJ+REREw2BwQ0RERJ7CnBsiIiLylJQKbqRnioiIiLyNPTdERETkKQxuiIiIyFMY3BAREZGnMLghIiIiT2FwQ0RERJ7C4IaIiIg8hcGN5+VhU9mrOFXxKhpnLjBlo2W/Ry02ZZkiIiKiSYrBjddlzccj5p4I/sISrLQ2aTRm1eAf9v47/snl8Q/bXsDDFZNv/aSc1W+p83sBxeY1EVEqYXDjdQNn8dGQtdnR1YqD1iaNxr0zMN1sRpqeX47y9W/gH1ZPpgDHj7ll+UDPJQRMCRFRKmFw43mXsaPldSxqeh2rOs+YMhqNnIIC/fz57p/gX9Y6HltexvuHevTPpq/48STqJSlUQZd6unwJvVYBEVFKYXBDt96sJXhxWy3q99bi7dU5pnDy8BVIpNCD/i+s10EXO9B24H+gWcc3BciepUtvvYoHcZ96+vwvR63XREQpJqXuCu79u55L4u96rDM5NpE6unZjVedl88pNHkpyK7G9sBh+8x4dgSb8qutDoPBVbPUFsOdkHXYMWD9LlsqNtahdbF6gH41b9mHfRfMyKfx4eNsbKL+8C//SADxcVYXyxTJs04zmd97Cx1gaXRY8vqmb34z3176FNlPqVLzx3/HY4h40b3nBUS8kp+IFPP5UudWbovXg80MN+POBo3F7VnJmLcVcdV73qfOyh8X6T/wO7/1zfUS9pXhym9ovP3iAOGJ/DiIir2DPDRlWYFRfFApshN9Xga2ltXg20xTclswwDR7Ek689ZwUxIr8c91W9gH+IKCuvWmpti1lLVNCgnk/82T0gmFWDv5XArOcTfBoV2EjQ8e+oWe8MbEQ+7lvxHGq21cC9n8qvAqa3UGPOy5nvM33xD1Gz9y087OwlmjVDvX/YAWJjHg4RpQD23KSAkpm1qC/0xe25WTlPemZkK4DD7f+BDVes/UqyFuC54ios0wHP+PTc6GGpn5ahXLXP3Yf24/kDSc4UkdlOr/3QChJO7EL9Px9Fb8UL+CcVdGiRZer1v6jXminrP/Qy/u2A43dnlgpAHvwx/naFClzUS8nHebfJ+pFFBTZ7n8N9di/Nn9X728HPrKV4+KcqcFGfN7qe3VMk26ru7v+BPzd1mJ4adczV5pg9v0P9S5E9OMIcN+bPiYi8jz03BGQtx7MmsJHgxQ5sROvAGWxo2Y09ZsbVuLh4DG++VIeatXXJD2yEPdtJGnwJYmT7i0vojywz+ru7zFYomXj6ijfCp4G/9gYe04GNBC8vRwQoMlQlgU0z3t/yAt6V4Sdnr87Fo/j4nd/p408vCJ9llbP6Z1ZgI+e1VtUNBjZCcnzewr9t2YX334kRuEgvjjwzmZiIUhiDGwIyc6Cb2MDR5PfKTALB2U6/dwQEJuBxltn79XeHemisZGI3EtTsQr0OXiJ7A5fifp1DVI7HXnMERGHBkelJCrMUD66Q46mgKF6viwqO2lxyezT7czGZmIhSGIMbQkmGlfnRMXhFP3uN22yn4r+VIanwMmu/ZnwW7IXxIztPniUJ157+bfW4SI6NTgh2CzLMbKVRs3tdYuX3jIDb5yIiSjUMbsjj7F6UbvQFAxE7aHGWmf3CEm5NIrIz2LhYj7+cUM/5D2BujKnfMdfFcXmE5fGYXhfnsNjouH0uIqLUw+CGgvyZuWbLQ1x7Q1yCFrdcFdMDExlstP2lWf03P3xWlYvIfJrx5/K5iIhSEIMbQmvgHHT/gS/GvaeycnFfjLVzkmI8F/Fz6w1xC1pc9nPLwdGa/ozP5Xnxg66rEvd2d+vn6WVLYkz1Vu9d4Y/+mUlyjrva8aylMd8zGKAREaU4BjfkuP9UMbaWVWOl487fJbnVaCytwjLzejxUVlnTwEXBisewJokr/boFKCMti7kyMY7iMxmaQjnur9AF4ezgJ/+Hei2bYsfnkYX5HpY1bNa/gQcj6148hs/1asfleGzbC6qeo+dHpp6rev/02nN4fLj7WC2uCruZp3VMdR7mNRGR1zG4IeUydrQ1Wb03GSrAKX0Vpyqsh17Ub6gNh2/Tld/cAhS3xGF9o0nXZGL3/BVraAq47ym3hfiO4t3d1s8lwHHOmLIX5us/sQt/jpg+LlO97SnispjgY685pp/L1HNd73d4L2p2lhEMjvL1zTzDj/lD90CMiMiDGNyQZeBDrDrZgD0BZxQTwOGuBtS07MeuwfGLbo40tJj7M8kifu8n8dYLbgGKKXNLHB62zKHpt9Y5x0osbnoL/7Jllwo2zAczJDh5f8tP8G8Ra+sEXazHv619Ge+fUAGZKdLkthC7X1b14i3Mp4Kjl15Gs6rr1K/qyjEj1+IhIvIqrlBMREREnsKeGyIiIvIUBjdERETkKQxuiIiIyFMY3BAREZGnMLghIiIiT2FwQ0RERJ7C4IaIiIg8hcENEREReQqDGyIiIvIUBjdERETkKQxuiIiIyFMY3BAREZGnMLghIiIiT2FwQ5NQGgqfmYolP09H4d2miOLg9fKePGwqexWnKl5F48wFpmy07PeoxaYsUzQmyX6/ROSgcvUTeHtbLer32o8nUGl+SmRjcOMxOVXSyLk/Fj2TjqL5acg0+9Jw0lBkX7ulaaYsXObS9Lg/J0pI1nw8kmFt+gtLsNLaHAcmYClbjhJTMplVbqxG7YrZKMg3BUQxMLhJIRnZach+Mh0Ln5nCAGeUMh6aov5mJJogA2fx0ZC12dHVioPWZorLwYw8a6t5937UrK0zjz/giFVMFMTgxqP63r2GY790Pq7j9Ls3oP+9zJ6CuexpGKU0zOA1owlzGTtaXseiptexqvOMKSOtpwUHmnrNCyJ3DG5Sxk0Mnr2BU+/e1K8yfPqJRuL8TfSpJ/bekPfk4j4z/EXkJWkLF5VarZ0yc6YfnZ0d5pX3eP3zCcm5mTPH6rlpP2sKne6egkVPT0FG3w2c/vUNDJrioLvTUPiDKciekwb737yhPtW4H7uBrrPBXxVDElnTMQP2e6Wp40/BDGfd8zfwaYPLcbQ0ZM6fgrlL1P7ZVonsf+lPN4AfyOe4iUu/uY6ur6yfOUm9e5eo8zT1JHizjqWCOFNis67JTZz/5Q1kmPOT/fveva6ukfoMUWW6miI5N+nIPn8dpwNTsPChNAwdv45TR0PXQXJuosqHu8b2dcsO/3xjOU/n+wXU63ufkmtjeprM99ce9f05xPjeL/3+Onpdrr+wPjtCn8HtPdS1c/tOElbox51P/QxZC/Mx1RThy2YM/OG3+Otxt/+3/fjeL95A1pe78OWuo/r1nVU/Rtbj5cH6107vwtfqZ9fM60SsnPcqtqo/GA63v44NV0yhyMrTuSytA5et14a1fwB7TtZhx4DkvazHuhhBRkfXbqzqDK8fTh0jtxLbC4vhN+/REWjCr7o+VNfLeRzrZ8itRqNj37gCDVh0zu45ss8zdN4r5/0Iz/p86qpa5Libz32IVvM62So31qI2rwWbXzoGb/9LTmPFnpsUk1lsGh7VcIU3ONJ4pmPJ06qRdDROQnJ1ZjwpycimIJL6eaZq2IpUAzsnsu4cFRS45vhYDfLCJ9X+wQDF2n+OnIOjLJzUm6rqOQMbod5njnq/ODOGZkgAoIMDkYZsFRzJZw4rU58zqndGgoSjNyas9ybh81QyfqCugbp+wcBGqG3Zf0mVo8xBJ0XH+N7nPD2yZOmY76EeyQpspj70Anwvv4G7nIGNuKccWWvfgK/KbmIdCpfgjntUANPTpbZr4Nul6jsCGzF14XO4y63uKJwfDOjnWRkmKURTwUDxetSXrkfjzPDy++V/iKFzeM8OOBJmBRz1ReHBit9Xga2ltXg2RnLdiAKbeDIXYKc67lZHYCPkuPXjnZycPx0zzSZRLAxuUkYaclQDNPchq6Hqa4/4K36+1Ssgf62fV3+JO3N1zh+39o3VoMp7S0CSLT0H74bqnjZDYJLjc29EYJQjjbUOTqxeiGAddey+vvCAxylzqTpPl3rHVL1LEn2oc5mhziX6POU9pWfD+kx6X3VeM3TvkKNMAgfXIO4mvtDXYbxzb8ZynqpMvsPzN9R3KPta+9vfH1TwFxWgzrd6nvT1PH4dp+3rqR7y/UmOlgR0saeYq/OVgErew+V35/SfIn7PEiWBzVorKJGelsBzP8GX+vEyAu81612mPv4zfK9Qb4YUzLACmdKfqcDoh5j6ZTO+fuPlYN2vT+u9MDU/suLotA5ZOSD+zFz9rDlnPLmVD14xPRyh/Brno6bLCpjiWTnP7vEJ4HD77lDdkw04PKQCD7cg5sp+x3HUflI21ISaYJnjEey1cfJhXVEVlkkPjvOY7W3WjzMq8Jzj4xLdCgxuPCr7ycip4OmYoxog+bdOhgqihqzOqoZINYinfi3DEM4G6SZ6j6oG8rz1KiNWIycNm2rMnENXg+o9g/V8joDgbmmsZUMabDkXRx117HZ1DlYDHkHVs4Kz6HpQ9bqC9dwDkKHjN8wQ0E0EPrXqOsuG3I7pMDhBvTdjOU89PNZwwzGUZH1/p+0Atch5XdJQuMR6rYe5job35sn3Z+VoqaCpOPp62nRApY57zOV3ZzB4HmOxFHepwEZ8u/cnCIQNIXXgWsNbKsDpUdv5uKM8vAdman6B9XxPPvCeCmp+8Ra+7bIHNDrw7e9/N6bhqKArrVaQoIKYYK9FZg78aMNhiVGiytXRVXAzJlnL8azOnbOGiTZcCQ1dtQ6cwYaW3dhjZlwl3VAbXmmqww7nMVXQ9IqJx8J7sJJBXbPVT6Bqsdrs6UenVUgUE4ObFDLUJ3/RS+PnbIBCgg3R3WnImT8FRVXpem0cCY4kj0f/le7aqqtgQ3IzzCunwYDLsXKsIAvn7QZ7hIatpwKcY9bxMuZGr+cz5HIuzjLXcw0zMb03iZ/nTfS1uf9sUJVbM+Uc10V9z3poT/1efOGWnyXOmoDO5XoGqWDZmYeUbFOrqnCner6mgpOvj1tlka41f6KDlMgemKn51oIo3+59GYGG2FkaethqTK7gc93NlQP9v4qy0lesvrhevC9DVhnz8LhZ+K7E/E90cSheHs0ImCAJgaOhfJoJoYKptv2u09Pt4bmkmbUEb+uF+qqxXda36bmAxneYb0PDY3DjUc6p4PZf7Rl96q/4sL+sw0mSbpGsdPt0OuZITovkTzhzN5Ik08zUGhrlv4Mjqtfr0ogn0UT13owb53Wxg8XsKVgY1svnfKQjxghh0Gi/x9GyApQefNc82ibNj6n3yHMzvnNNNlbvXf6ANdTVM9bm8jI+091exXhMD8mYvJrBKzioh6x8uM9c+Dn6F7kN74+x48YOksbcA3Qb6VaPS9YmUVwMblKA3SBjTpzcCcm9sJN0VRAk+RfSyyM5MBIg2cNLFN57k+w/VCmSHaB041q8zhWTWxPeA1OIdKn75aWYQ0924HRdWs0xCk8qtqZY68BjsFf3NFjlC/CYxDYq4OH/UiNw8Rie1wv17UfdoX4U5M9G7U+XWD1WRHEwuEkJjgb5KfeZS0VPSg/NTSsh+NdW/oX08kgOzHhJdK2duPXs3ggVoCVt+nGEYO9NvKGaycbtuti9XOedScAxHq5T2icLP773hJWTE9YD89CDejgrdnAzwsBphFoD53QQo5OHc0uwTG3roSez2rA/Zz5KsnIxS3YOJhOPXViycqIcw2mTUy+OHNiHuhNqk7OlaAQY3KQIaZDtmTeRM5eCVMMXcF0LxTSMSRLM/5gTY2jnbvVvrctYiLOeew9UKEF26NPxC26CwaJcyyJT5KQCwnhDY6EZX8mmvifXCxrjuqjz7JPfiXg9erdcB659Kc/luOMhXRBlatXPkKV7aH6HAUdOjp1M/G2LrG/jZvienVEZuIKL8qyCjZX6i7CHnsyQlQQQyUomVuxgCr4Y955SgdTIF+jLwf237GaYRMnH4CZlhJJtZd0U1x4H1VjLbRlCP1Pb862kYmt2U5LYjap6/znqvXMcDas+nkwrN6/DfKUCNN2Xn6ane8tNQINkATk5T13xJi6NY4KrsHtvJC/JjTWjSX2+Ksf1lHOssqdejw+ZJSfr0oQdM+Z1sX8nzPWUemFBjrV8wKKfx1oCYGJ822JN9b5z7Vu46yHHgEThUnzvubfge9waWhr4n/VhQcqwQ06mZ+fayWPJCW4cScWPSV6NY+jpYECmSaty3esYwEeBMSYTi+D9p4qxtawaKx3BSYks1FdapXuP4juD9/Vomg/ripeHvYcsQLgyN9mznogmBoObVHI21HsTfm8pe9hK/bv8kGp8HcmkepE99fPgWilJoRrV39v3ubIWirMTWPXxJOcnRkJCb4NjnRdZmM4+V9U4Bxvw37jP3Equ0DWLFgokZW2Z4PWUczTTpscnh+mmDqrCvsPhrossAWCGLLOlnuO7CC4fIO95K3t2jr9l1qPJVwHOG7hn179bj5ef0ysV68DmjRfw17ChpeGHnOyenbEnE9tCScXLJIhxDj3pvBufKi9WL3rxWVJmN13GjrYmq/cmQwU4pa/iVIX1qJdF/YbMNPRhHOyy30MW/gu9x6nS9dhaVDmOdyQfLXPjTE4FpxFgcJNSHFOlI2b7DMpaKLJomw4cDBVk2Dk4vclOnP3qBk6pxvbSeWeAYCUyn1bH+yLOdOeuX8sCczdM749NnbvcJkHW2knK2irDCyZqu5GgweV6yuJ6Mm16+GnnCVDv/6m+NuHHtRb1i31d5LvXiyCq70IHnDYJMs33MVHXNJZvd/0Egb3NZojK+LIH374nC/pFBjZiYpOJbVYPjeVwwLEAnj1kJZKZTDzwIVadbMCegPN/0AAOdzWgpmU/do0k4928x+GIaW8dKjja036EdySn2xLvLUVERLeBHKzZVo1V4L2laHjsuSEiottHfhlWV9zKLDC6HTC4ISKi20AvPm7p11vl66tRr1culscTqNSlRCEMboiI6LbQcWAfNh+6gG65lRhRHMy5ISIiIk9hzw0RERF5CoMbIiIi8hQGNx4iw25ERESpjsENEREReQqDGyIiIvIUBjdERETkKQxuiIiIyFMY3BAREZGnMLghIiIiT+EKxR7CFZhTVNZyNJZWIGohgKEm1LR8iFbzkogoVbDnhiip8rCp7FWcqngVO3NNkSt7v1psyjJFRESUFOy58RD23EwOJTNrUV/oQ0fXbqzqvGxKI9i9LePSu7IAOyuqsCzVe24qnkD9+tnmxTB6WrD5pWOI/L/HX7EEq58qQ3m+KUA/mg8148CB9qh9nRKtR0TJwZ4boiRrDZzTDZg/Zz5KrKJomTnWMNLgFQ4bTVL+1Wuwfb0zQBHTUb7iUWzftiR6GNBItB4RJQ97bjyEPTeThQw5rce6jAD2nKzDjgFT7LBy3qvY6gMOt7+ODVdMYdLcJj03s5bgxZ9aQUD3of14/kCv+cFEycGabdVYBZdeG3Vub79WhgLd4/I+Dqhz0z+fVaTO+VErcDnxAWr+uV1KQxKtR0RJxZ4bum1IQHCqohorJXiYV6vzWiRnxcptcStzkbVA79eo97MejWXV2JSbZ3ZwGi5/JlbezGW81xtQzz484nN73wV4TAU2QBvejxXYjOo8EyRDY/LeZctj9DDF+nwOMc5z5QjyiCqrQr0bBSsew5pZ1vZEqdyoApv8fjS+Ez0cJedWoJ67VYDyph2giIvtePOlD9As24vLo8450XpElFwMbug2k4NnpVfEp6MDxYdlhctVAxtRViRBkJMJfkqr9H7OoQF/RjHWFa13CWAuY0dLAw6rrWVF0Q18ycwfYV0G0NH1H1G9M3GHpnJLsEyeA604qAucEjnPW0Nyi2Kd59ZSFeTMTGIglmQydFS7GGjevQ/7LprCoCI8pH4GXECDa29SOw4c6lfP03HvvVaJJdF6RJRsDG7oNqMaUj3c8zoWNe3GniFVlFGhGtiIMhTjMWcQkFupG+GOoTa8cnK32k/2tfZ/pUt6WSSAiQyIxBlsaG9Tzz6sK3b0cGQtx/ZCFUwNNWGzW9LwwBXoNjMjB3N0QUiJKhOHA2f0c5iEz3OC5VbrpGkVoeFwVwNqguf5OmrU9dKBXeGP4s4EO9LQguYea1t6OqKDjPFShNUrpusk4gNNpshpVjZ0h9KJz3BEF1icAVxH91X9nF9gfZdaovWIKOkY3NBtJ9RTYg//hJd9NqiLwl3ZjxoV/Kxq2Y+DA85g5DIOdtbhFf02ObjfrTFWdfXPVRC1XfdG5GFTsawrowKqtlg5LWfwvn7PiCBL1X08R4KCGENSYznPCaM+f2Gx3jrcXocNnWfCrkGr+gyrTEDoPixnXDyGN1+qQ83augnNt6nc+CjK4T4cpd073Rpa6u6zXqtg6MW9tdiuHm+vNkHJF/3oVk8FBdnWa5FoPSJKOgY3dNu5OBTdU+IsOz9oBTyRWu2ho6w8rMxdjp2SK1Jm5elIcq80xvdl6j2iHDxnDU9Jb8TOedZwlDTsbsnCtoMBaeCBZb4F+lnLmo9HVF33ISnLWM5zQtifYagJu2LlDF1pta5XvBljt4QZOuq5gI9H2lNUcb8KhiyjCkoSrUdEY8bghlJGiQQKkiBbuh5biypU0CFDXDpaGIEz2HCySf2l79P1EGgYfpaTaeDhKwkOI5X45ulhCtchKWNs5zkB7GnsGRWodyQShz+qrLyiSca/ulwHHN0t5917bRyCAUnTJ2jUw2f9aP7L8LOcEq1HRMnD4IZSg+SISKCgexzadJ6I5LTUmLwWa7gnPjsw0TJzR9AjYQ9NhYaR5mRKkBLA525DZyIJ50mx5ODhsunquR+f/DnOMJgZOgrpxT49fLYPb9o5OlFDUEqi9Ygo6RjcUApYgJ1FkiMSwJ52FSS07Nd5IpLT0hqW1xKHnUAbUMGGJPYG82/is4am7NwTMwV86Bzecx3OSsJ5ToRBM8VZXQs7iTjmY1Kts5ONe3XG71VcijckdbEPusNl8f2o1AXR/AXT9HNPtyNISrQeESUdgxtKHRJUXHELEvJwv9lyZwcdbXjlnAo2Ov9Dz8jyF45gWrYz98RMAe/oPRu/wU/4PCO4zNQKE2dGl7CnukcZOIuPZEaab+nY7osli/htq0W9M+F2PNmzmXr60akLYmnH8RPyPBtVrudlZlvhAo6HzbZKtB4RJRuDG0odurdlgWM4KU8FHNVo1OvmmCIXK+dZ+SOH2/ebJODL2NEm+TcjmZZthqZUAPGcTxq8AD4KDNMLk+B5hlzB52Y6/LPO98laELG4Xmi/rfOc+1lr7VhTvd2oz99lpseX1mKnHCPsffOwcqY6X73gYmwTvoifGRLC5b5h821kmrqe1bSiWgVeRaHhSFlpeJvMtlIipnyLROsRUXIxuKEUcAa7zBox/sIqRxLsetQXFasGqA2v6MbahQoq9AylyATigQ+xWb+nFRjEY83eKrYSkWMOSYkxnGeY0BT5sPcprcLWQue52kGK4nPuZy2IKDf+jJnjI1PW9bnKIoqqbqmpqx/r1XHU+arA6dZOWQ9nDwmNKN/l4jHs1AvuSaDyqJ7OLT1M9a+ZWyjIjTbdbqGQaD0iSioGN5QSWjvrrMXldE+FMdQWzG056Cy3ye0JHMNRkeQ9deOvAoN4q/HaqxWL4YakEjpPF/p9VOAS1kMh7xOImOIlQYrL8V6RtXY6L8ecVi/kGItONqj3DEQcxyzsp8433lT5W7eI38h0HNiHzbvlHK1gxSL3jPrA9Q7itkTrEVHy8MaZHsIbZxIREbHnhoiIiDyGwQ0RERF5CoMbIiIi8hQGN0REROQpDG6IiIjIUxjcEBERkacwuCEiIiJPYXDjIVzjhoiIiMENEREReQyDGyIiIvIUBjdERETkKQxuiIiIyFMY3BAREZGn8K7gHlO5sRa1i80L9KO75yoa3vkDjlw0RURERB7HnhtPm46C/Nmofe0JVJoSIiIir2Nw4zFH/rkONWvNY8sHaOyR0mmYMUv/mIiIyPMY3HjZxXZ83NJvXhAREaUGBjce19F91WwRERGlBgY3HucvmGa2iIiIUgODm5RwFZc4W4qIiFIEgxsiIiLyFAY3KWE2arctQSVnTBERUQpIvycv7xdmG3fdNQ1ff+3dBFSvfz43V89exlezCjBj7n1Y/sgD+PuqB/CDv7mA984Omj2IiIi8hT03KaLAPBMREXkdgxuvq3gAtYunAz0XULdlv17c7/kDveaHRERE3sPgxuOsqeD9aNT3l2JQQ0RE3sfgJiVwKjgREaUOBjcpgfeWIiKi1MHghoiIiDyFwY3H8d5SRESUahjceBzvLUVERKmGwY2XzSrC6hXTzQsiIqLUwODGYyo31qJ+r3m89ijKpbDnAj7mbCkiIkoRDG48rR/dJ1pQ984xdJgSIiIir0tbuKj0ptnGzJl+dHZ6txn0+ucjIiIi9twQERGRxzC4ISIiIk9hcENERESewuCGiIiIPIXBDREREXkKgxsiIiLyFAY3RERE5CkMboiIiMhTGNwQERGRpzC48ZQ8bCp7FacqarEpyxRNOPscXkXjzAWmLFkmw+cjIqLJjsENJVfWfDySYW36C0uw0tqcREyAVLYcJaaEiIi8hcENJdfAWXw0ZG12dLXioLVJo5KDytVP4G377u7y2LYGL64ugt/sEYu/Ygle3Oaot3d86xERTUYMbijJLmNHy+tY1PQ6VnWeMWU0YrMkyKhG7YrZKDBFWv50lK94FNtV0LFmlimL4F+9BtvXl6E83xRopt62JTEDlUTrERFNVgxuKMXk4j4zbDZqOvCwejbeXp1jCpMpB2t+KkFGP5oPfYDNW+pQs9Y8tnyA5h7ZZzpWVRXpvcOoc9uwYrrakLr7sTmyXn4Ztm9MYj0iokksbeGi0ptmGzNn+tHZ2WFeeY/XP5+VT7Ie6zIC2HOyDjsG8rBy3o/wrM8X/Ou7I9CEzec+RKt5HSVrATYVLsUjzjpDbfhV234cHDAFQfbxzMsIHV27sarzsnnlriS3GtsLi+GPE3CE3ifBz6eO0TjMMYICDVh0zr3HqXJjLWoXmxcqGGjcsg/7LpqXyTIrB5XoxRG391WByNuvlaGgpwWbXzoG52+yfW7dKkB5/kCvKbUV4cW9j6Lc5ZwTrUdENJmx58arMhdgpwoEtjoafuH3VaA+RjJtycxanCqtwrrIOhnF2Foqs5/yTElyrJxXi/qiEQYdkUb5+RI6xq1wMUZgI+6dHj5UFVSEh3TQdQENUQGKaMeBQ/3qeTruvdcqsSRaj4hocmNw40k+rCuqwjLp4WjfrfNf5FHT3mb9OKMCz+Vam0G51agv9KmNAA53NaDG1LHrSS+Bv/BHEVOwQ/k1zkdNV8D8PA51PAlM5Hjh59hkeiTa8Iopi+79GeXnu7I/uM+ipgYclrKhprDPGHzE6LURRxpazNCQ9HS8P2E9GX7pzZEE4/Wz1at+NL4T3muDWdnQ6TInPsMRXWBxBn0d3Vf1c36BYzgt0XpERJMcgxuvGpLgoA47roQCg1bVyL9i4o5ZGc5emDxsKizWW4fb67Ch80zYsI7UW6UDBx8e8SWn96Ykw2os5Xjh5/ihOVYxHosMwJxG9fmS5OIxvPmSlZMSPYSTZDIEZWYubX9NEoynqSDkA2xe6zI8ZHp0urv7rNd6OEnVc+YGfdGPbvVUUJBtvRaJ1iMimuQY3HhSAHskR8a8cjo/6NKrYq9NM9SEXVesoihXWnWPhz9n/oStDxM7QBnl5/MEFYjk3Y+HK0bQg1JxP8rN5qiCkkTrERFNMgxuCMjMsYYiMipQX2GtLhz9qMIyvXNytA5ZPR/Liqqx0jnUlbUAO4usXqSLQ5HDUSnk4jE8b2Yubd6yH3WHLqAbs7FqfXXMmVrBgKTpEzTq4bN+NP+lXRfFk2g9IqLJisEN3RrBISQrWTkYRJWaICrQELsXKcV0SJLxgT/g+Zf26+CjYMVj4WvdmKGjkF7s08Nn+/BmkymKGoJSEq1HRDTJMbghYLDXSlCVadBuSbbOR0ucaeSjZg0hhSXH2gnN58LzfpIuIwdzzObtoxcft1izlx540NF7c7EPusNl8f2o1AXR/AXT9HNPtyNXKNF6RESTHIMbCt0ywbd04m5IqWdLAXtOvo5VYQFUdELz+MjB/aP9rBOxiN/GeCsC5+DhMllwLzLYaMfxE/I8G1Wu51WE1Xqhvgs4bvfIaInWIyKa3BjckHIZO7qs2VDrSmuxc+YClIQ1/HlYObMajRXVSbsRpjVbyof7kjT7auTO4H3dYaQ+a/HyiHwf9TlzY59PZVXoFgVRQ0NJ4F/9GFYtLtO3WHixwuRBGf5ZRVizrRqr9PGjgw2Zpq5nNa2QnBzHPaFUvRe3yUJ8SsSUb5FoPSKiyYwrFHtK5Aq+pthBFuqT9WzcVg+2fxbTUJuepeT2vk7xjhGUtRyNpRVxeimgV0b+qOuIY7r32D5fUNxjyxRz95lYE7FCsX/1E9gQeV+pMP1o3u3IiXHQ94jSPS0uXFY1tiVaj4hosmLPDQW1dtZh0ckG7AkEwhuzIZMH0zJ8YDNiA2fxK3WceGRl5HVF67Ez3no3iRj4EKvU5zysPpeTBFN72o/EvJP5RCzi1yGJw1s+QOOJiGTfHvVa1rlRAZVbYCM6DuzD5t1yjpKXY5N7Rql6cQKUROsREU1W7LmhW8D0wKBJBUyxEpTlvlFyewXV+I7gHlVEREQ29tzQxDOLBnb0no2TOHzZwwvyERHReGJwQ7eM3KtqZ25e1IrHJXJncrmpps7/acOv2GtDRESjwGEpuiVWzntVDznFNcIEZiIiIif23NAtcfCcdQdwSeqNDDetxN7dyU1gJiKilMGeGyIiIvIU9twQERGRpzC4ISIiIk9hcENERESewuCGiIiIPIXBDREREXkKgxsiIiLyFAY3RERE5CkMboiIiMhTuIgfJS5rORpLK+A3L4OG4t3tmxI3FWuqp2PVtOto/G0f9o37fUUn+njJluD5+7Lw9o8zUWBeBl0dxOb9A1ErahPR5MOeG6JxIQ1rLur/UT2qs0IB4NzvW2Xq8eJcU0aUMP6eEblhcEOJG/gQq5pex6LgowGHzY/I4eo1l7/2r+OLPrNJk0tgAM//6xXUBB/foNn8aFLj7xlREIMbIiIi8hQGN5R6Zi3Bi9tqUb+3Fm+vzjGFyXYNl66aTae+6+g2m0Rjx98zIjdMKPasPJTkVmJ7YQ78GT5TFkBH4Cg2nzsTM9m3JHc5niuswLIMUzCCOiELsLOiCstGkVCcyPFKZqrApBDYc7IOOwZUQdYCbCpcikd8vmDOQUegIeZ7VG6sRe1i8wL9aNyyD/sumpdJVPl3uahVJ9R9sh/P//maVRhMVv0Odf/6DY5YpRGmwj83ExsW34GCaVZJd8cgGprVhy2X94ydIOufm4XVizNRburJsER3xwB2/vG7OImwYzne98PquQn7/DbfHVhTnoUH/OnBxN3uq9+h4X+paxIj8df/YDa2lyJ0Lm7v0fGN47OGJxR/jDuw+n/PUtcmXf8UV6+j+cQ3ePPTiHOLcgde/Mfvo3y4hGL7u4253wgSnBO4Lon/nhF5F3tuvEg19jvL1qO+qNgR2AjV+PuqUF9Ri01ZpigoD5vKXlV1nIGGiFdnLJJzPAl0TpVWYZ0jsBGyPZLgajx1qsZT9PQ7Gs/ANfTIs/pZpy6IZDWA2x8JDxgK/Jmo/XE2qmIGEVZi6fZHnIGNUI2k//vY/o/ZWOP8VQhK9HjSqKpgI6LeSEiQUv/j72OVowEXBdPuUMfMxdsPTjUlscV8D/VwCz7uLVfnqvYPBjZCbZc/Mh31f3eHKbi1Er0uif2eEXkbgxvPUYGNaux1wDDUhj3tux0Jv7vxSleb+sffh/syrb1tJTN/hHU6yAjgsLPOyQbsGZJyH9aVVmOlbCbB2I+nPkNhNeoLVYutPucrJ8M/Z03XGbNftCMNLWjW//Krv3YPvT8uvTaiw9nYBF3HF27DCEbl38lf9rJ1Hc0f9QeTWjf/9hs0X1WNXoxAwv+gahRd6tWoeo36eOlYpRrOStl0SPR4MhunVjXCUq/RWe+jQTMcIj0GVllYr42qt73Uqtd88htsNvtYdb/TdQtKvx8jEBPpKlAx73FVHeO3js/6r/3Y3Pyd2c9JBTHqXKU3qu63oX3rTlpBAVTwd8tnFI3huiTye0bkdQxuPKZk5lIskw09NLQfO65c1uWWyzjYuR+rVCCw4YopElnLsV2CBBVoyFDPBmedgTPY0bLbBBzFeHZmni4ekyQdb5mvGB1dKqhRn/PgQPjnbJXhqlguHsObL9WhZm0dnj/QawrHS4zZKm4zW3xZqNLdT9awhXO4pCPwHd7c328ClQiq3gbTMEbWg6q3L1jvDlQ5//pP9HiKf7r1Ps0f9WGfs96nA3heNcZyrIeiAoapWLPY6iWRem/+OXyorOPTb0zddDxwf+zem3L/HXoIpma/DNU4G3Z1TWMM3eghmz8OOIZ2ruHIn/uw2QQ45bNvZe9NMq7LKH7PiFIAgxtPycPjOSZoaIuT8xIWCCiZOdaQTuColcMS5TJ2dLXpLX/OfJTorTFI1vECDVjVGfFZJhPVKNX8a2RuxTUVbKi/yP/o0sOQbYYjOgbc8zFiGbaeOuYJ63gFKjDQ114kerwRyjcBUJDvDjwgPUFXB3HgU6soyqff6WnXYecZqUM19pE5PHFdxyefue/f8ZnVK4JpU2Mfb7yN9bqM9veMKAUwuPGUXNynh3p68Vm8nosIJRnWjKGOQWd3ToTBXusvQLXvHF2QuGQdL27925DdG9JtcihGakT17Nkz09IxUxckfjxhD4WUP/J9VDqHSlRD/eIjVi9EWA6IsIOpaZnYbhaYi358H+V659gSOd9hOa7LhEvSdSGiEAY3RDR6n36DOh19WsmuwUZYknaluOOb2L0QRETjjMGNJ+Xg/gRmNvkzc82WC3soaagX53XB2E308W4XBc4ZPaMQt57dO+AyeybR48lwj7ASiG0mIdZt6rnde6QCn1AScIzHRN3DKc51mTCT8boQ3eYY3HjKGbyvx919WFe8PHauSlZe2M9aA+esfzB9S2NMv87DpsJivdXRe3b4KdbDDF0l/XijNSGL+I1eMP/Df0fUrCbNl457XWYvheplxZ7ubRJWuztCQUeix9P0bClZc+ZKxK0KohNigwLf4RNJUI55nuNFfY5ssxnG/brENNzQlT39OsZ+oRltEW7ZdSHyLgY3HnOwq8n6RzqjAvVl1diU65xtJAv7VaOxdD3q5y0wZcrAh/iVHRSV1mKns44skFe23kzbbsOv4ibwXsHnwVlOC0IBlHqPlc4gJmnHS0xlVRnK863tghWPYc0sa/uWsxs5GeqpDs9lkcXy3raHfCIFBtCgv3SZ7p2NF+c6EnllUTi9cJy8+A4NzkTcRI+nWPk6KmiIM6spmp3YbM7zwTvgD2vMp6JSBQBv/2P0lPWxKn9E1olxJOPGuy5R7GnVMtss/D3C8o0c+9X+nXM/FUTJmkB6RpubW3ddiLyKKxR7UdZyFcBUhP5xjWJNwQ6fqSSL6tlBhRu3OtGs1YPD/mW2BBqw6Jxz7ZnEj2cfQ6aBJzJbaqJWKE5IcGVZF1e/Q/PVO1DuumKwakCDjbUbtzpKoseLV8+QlXU/OTEYNlVcWCsNxxkKU/Ua/9c3Uedq13Nd8diVfU2uq3NJj7FmT4zrEiHmOctQknNGkgoK601CdSQ574Zp02Ou+JzodSGiaOn35OX9wmzjrrum4euv9Z8enuT1zxf0XxdQ39WOS2nfw33/LQfT/saUq4ChI/BH/PTEIfz+v0xR0F9xrOcIDn87FbmZM+EfUZ1ovV9/gsNpefjbu9RxTZleTPByK44N/tUUiMSPl3vXA/j7uzJx9ZsW1H/tfM+RuXg5HbPn5aPgv6sG59BBvPWnQfOTSWDov/Bex3X8TeZUzJtmd6xKHstfsfOPgzjruxOP5gFtrUP4T91LZruB//x/BvGXb9IwffrfoOBOU6zqdnf8Ff/H/r/i/w7b30j0eEM3MeT7b3ggWCfaf79TvefsDMz+ZhB/cqzBcvXSEP4vc8zvq/rqa7BcVcc9Zx3X7VynzchQ5zIF/+/lb/HepRumNJ4pWPC/ZWDet9+qz38VH3wzFfOnT1XnZf1UFvX7P1WwcGgEwYKc81/SVf08Vd+U6WCj9f/Df/Y5zqXvO/UdhB9H9qs71I9/PX8DaTG/v8SvCxFFY88NEY2S6RFBvHstTdWrH0fd84iIaAIw54aIRscsOhc/Cfda8J5HREQTjcENESVE7nUkycuRuV1+SdYNJtAOl6xLRJR8HJYiolGr/LtcPeQUFxNgiegWYc8NEY3akT9adwBvvmoWoHOQWVJyp/DN+xnYENGtwZ4bIiIi8hT23BAREZGnMLghIiIiT2FwQ0RERJ7C4IaIiIg8hcENEREReQqDGyIiIvIUBjdERETkKQxuiIiIyFO4iB9NQmkofCYdM7Jv4tJvrqPrK1NMMfB6kZs8bCpbj3UZAew5WYcdA6bYlb0v0NHVgFWdZ0y5V+SgcvUDqCqbjYJ8U4QLqFv7Bxwxr8hb2HPjMTlVU7Hk5+6PRaoBLJqfhkyzLw0nDUX2tVuaZsrCZS5Nj/tzottC1nw8ogIb4S8swUpr0zMqN1ajdoUzsCGvY3CTQjKy05D9ZDoWPjOFAc4oZTw0Rf3tR+RRA2fx0ZC12dHVioPWpkfkYEaetdW8ez9q1taZB3ttvIzBjUf1vXsNx37pfFzH6XdvQP/7lT0Fc9nTMEppmMFrRp51GTtaXseiptc9OCRl9LTgQFOveUFex+AmZdzE4NkbOPWulWKV4dNPNBLnb6JPPbH3hojo9sCEYo+RnJs5c6yem/azptDp7ilY9PQUZPTdwOlf38CgKQ66Ow2FP5iC7DlpMEPwGOpTjfuxG+g6G/xVMUwiK+z3SlPHn4IZzrrnb+DTBpfjaGnInD8Fc5eo/bOtEtn/0p9uAD+QzxE7QVbq3btEnaepJ8GbdSwVxJkSm3VNbuL8L28gw5yf7N/37nV1jdRniCrT1RTJuUlH9vnrOB2YgoUPpWHo+HWcOhq6DpJzE1U+3DW2r1tEAvBYztP5fgH1+t6n5NqYnibz/bVHfX8OMb73S7+/jt4YCcrWZ0foM7i9h7p2bt9Jwgr9uPOpnyFrYT6mmiJ82YyBP/wWfz3u9v+2H9/7xRvI+nIXvtx1VL++s+rHyHq8PFj/2uld+Fr97Jp5PVYlM2tRX4hQEm/WAmwqXIpHfD51dEtHoAGbz51Bq3kd5LbvUBs+6jqCHVcum5JIeSjJrcT2wmL4zYXvCDThV10fquv1Krb6IhOKQ8nDbjq6dmNVp8uxspajsbQC/qEm1LR8GH3uwyYw52HlzEo8mxM6T6jf1o7AUWzuUtcibsLz2FRurEVtXgs2v3QMnFKSGthzk2Iyi03Doxqu8AZHGs90LHlaNZKOxklIrs6MJyUZ2RREUj/PVA1bkWpg50TWnaOCAtccH6tBXvik2j8YoFj7z5FzcJSFk3pTVT1nYCPU+8xR76eCkcK7TVGEGRIA6OBApCFbBUfymcPK1OeM6p2RIOHojQnrvUn4PJWMH6hroK5fMLARalv2X1LlKHPQSdExvvc5T48sWTrme6hHsgKbqQ+9AN/Lb+AuZ2Aj7ilH1to34KuywwGHwiW44x4VwPR0qe0a+Hap+o7ARkxd+BzucqubBBLonCqtwjpHsCJkOzw4UIHBvBj7ZhRjXdF67Mw1BWGsgKK+yBkwqDq+CmwtrcWzkya5bgF2qvPc6gjALOqz+qpQr85150yTGDNe8qdjptkk72NwkzLSkKMaoLkPWQ1VX3vEX/HzrV4B+Wv9vPpL3Jmrc/64tW+sBlXeWwKSbOk5eDdU97QZApMcn3sjAqMcaax1cGL1QgTrqGP39YUHPE6ZS9V5utQ7pupdkuhDncsMdS7R5ynvKT0b1mfS+6rzmqF7hxxlEji4BnE38YW+DuOdezOW81Rl8h2ev6G+Q9nX2t/+/qCCv6gAdb7V86Sv5/HrOG1fT/WQ709ytCSgixUw6vOVgErew+V35/SfIn7PEiWBzVorKJGelsBzP8GX+vEyAu81612mPv4zfK9Qb4YUzLACmdKfqcDoh5j6ZTO+fuPlYN2vT+u9MDU/suJY+XBfYTXqC33AUBteOblb57NYj92o6YrIa8mt1EGN9NJE7vtKV0DvsqyoOmoW08p5dg9MAIfbQ/VqTjbg8JAKHMICCVsov8b5qDHHGQ8lM5dimZyL/nzO46pr0d6mPrcPs6xdiZKCwY1HZT8ZORU8HXNUA6T/fTnvHNIwzqqGSDWIp34twxDOBukmeo+qBvK89SojViMnDZtqzJxDV4PqPYP1fI6A4G5prGVDGmw5F0cddex2dQ5WAx5B1bOCs+h6UPW6gvXcA5Ch4zfMENBNBD616jrLhtyO6TA4Qb03YzlPPTzWcMMxlGR9f6ftALXIeV3SULjEeq2HuY6G9+bJ92flaKmgqTj6etp0QKWOe8zld2cweB5jsRR3qcBGfLv3JwiEDSF14FrDWyrA6VHb+bijPLwHZmp+gfV8Tz7wngpqfvEWvu2yByY68O3vf5e04ahIy3zFeohnUct+HBxwDvNcjh6CubJfBSSvY5XLvgc76/CKjjtycH+WLrRkLcezOnfOGgba4Bi2ah04gw0tu7HHzICaLDp6j6jPZ15o6lqoz75KBVuuQ2FjlgP/6idQtVht9vSj0yqkFMDgJoUM9clf9NL4ORugkGBDdHcacuZPQVFVul4bR4IjyePRf6W7tuoq2JDcDPPKaTDgcqwcK8jCebvBHqFh66kA55h1vIy50ev5DLmci7PM9VzDTEzvTeLneRN9be4/G1Tl1kw5x3VR37Me2lO/F1+45WeJsyagc7meQSpYduYhJdvUqircqZ6vqeDk6+NWWaRrzZ/oICWyB2ZqvrWwybd7X0agIXa2hR62SraALIY38gY7GPBk5WFl7nLsnFeLxrJanKqQvBn5gQ/3Ob+ETNVwy3Pg6DAL9N16rYFzOtfFX/gj7Jy5ACXOIG08zFqCt/fWon5vNbbL+jY9F9D4DvNtUgmDG49yTgW3/2rP6FN/xYf9ZR1OknSLnpmqcyfmSE6L5E84czeSJNPM1BoaZS/4iOr1ujTiSTRRvTfjxnld7GAxewoWhvXyOR/piDFCGDTa73G0rAClB981j7Zp8mPqPfLcjO9ck43Ve5c/YA119SS/2esYvGK2RqZEApqyV3GqdD22FlVgmeTexJnWWGL+0hjtcW6JgQ+x6mSTHipbVig5NupzqqDtlAreJiLY6VaPS9YmpQgGNynAbpAxJ07uhORe2Em6KgiS/Avp5ZEcGAmQ7OElCu+9GRznhp3sAKUb1+J1rpjcmvAemEKkS90vL8UcerIDp+vS+t1KudWol4DG5KUc7mrQuTc1Jv/GGpa6zakAZ4Pk+qjP9EqX+owqKu5QwZsd7DTOU0GO2XXMLh7D83qhvv2oO9SPgvzZqP3pkrBEbfI2BjcpwdEgP+U+c6noSemhuWklBP/ayr+QXh7JgRkvia61E7ee3RuhArSkTT+OEOy9iTdUM9m4XRe7l+u8Mwk4xsN1Svtk4cf3nrBycsJ6YB56UA9nxQ5uRhg4jbsF2FlUrJ4D2CNJwS37saHzjM69aQ3Lv3Hnz3SdRjV5qc90sFN9xpY6rJKkYp38rD6Hrwrbkz5jqhdHDuxD3Qm1ydlSKYXBTYqQBtmeeRM5cylINXwB17VQTMOYJMH8jzkxhnbuVoGDy1iIs557D1QoQXbo0/ELboLBolzLIlPkpALCeENjoRlfyaa+J9cLGuO6qPPsk9+JeD16t1wHrn0pz+W44yFdEGVq1c+QpXtofocBR06OnUz8bYusb+Nm+J6dCTV0Du+5rmWTh/vNlpOdxwJfjHtBZeXivmT+jztwBRflWf2S6RS8CCUzfxRz7ZyS3Di9MpL83NWmN2+7QI0mLQY3KSOUbCvrprj2OKjGWm7LEPqZ2p5vJRVbs5uSxG5U1fvPUe+d42hY9fFkWrl5HeYrFaDp4bE0Pd1bbgIaJAvIyXnqijdxaRwTXIXdeyN5SW6sGU3q81U5rqecY5U99Xp8yCw5WZcm7Jgxr4v9O2Gup9QLC3Ks5QMW/TzWEgAT49sWa6r3nWvfwl0POQYWCpfie8+9Bd/j1tDSwP+sDwtShh1yMj07104emxzBTUYFtkv+iXkpQU1JbjUaZWE8t97K4P2girG1rBorHXkrul5pFZaZ18lxBZ/bx3MOIWVZa/Toae9uspZje1EV6itqraEntb9TSZbdc3Wb5A/RbYHBTSo5G+q9Cb+3lD1spf59fUg1vo5kUr3Invp5cK2UpFCN6u/t+1xZC8XZCaz6eJLzEyPHp7fBsc6LLExnn6tqnIMN+G/cZ24lV+iaRQsFkrK2TPB6yjmaadPjk8N0UwdVYd/hcNdFlgAwQ5bZUs/xXQSXD5D3vJU9O8ffMuvR5KsA5w3cs+vfrcfLz+mVinVg88YL+GvY0NLwQ052z854JBOPzhnsMmvM+CX/RBJt9cMszoc2naMS7TJ2tDVZvTcZKuCwk3TVQ9eT3J2k5uqo49nnIQvv2edZKsGXT097d80NGvgQm9utZGJrwb71wfPU52oHYUNN2DxO08FnSDzFqeAphcFNSnFMlY6Y7TMoa6HIom06cDBUkGHn4PQmO6Hxqxs4pRrbS+edAYKVyHxaHe+LONOdu34tC8zdML0/NnXucpsEWWsnKWurDC+YqO1GggaX6ymL68m06eGnnSdAvf+n+tqEH9da1C/2dZHvXi+CqL4LHXDaJMg038dEXdNYvt31EwT2NpshKuPLHnz7nizoFxnYiNsomVhp7awzi9mZAqGCEzsH52DYF+OgZyE1YE/A+T9oQCck16h6u5Kd8S7r8bicpyzMJ9Pez8c4XusVK5m4Rgc54fvIwoXyOd1v6UCUGN5bioiIPCwHa7ZVYxV4b6lUwp4bIiLyvvwyrK64ldljNJEY3BARkYf14uOWfr1Vvr4a9XrlYnk8gUpdSl7E4IaIiDyt48A+bD50Ad1yCzJKCcy5ISIiIk9hzw0RERF5CoMbIiIi8hQGNx4iw25ERESpjsENEREReQqDGyIiIvIUBjdERETkKQxuiIiIyFMY3BAREZGnMLghIiIiT+EKxR7CFZhTVNZyNJZWIGohgKEm1LR8iFbzkogoVbDnhiip8rCp7FWcqngVO3NNkSt7v1psyjJFRESUFOy58RD23EwOJTNrUV/oQ0fXbqzqvGxKI9i9LePSu7IAOyuqsIw9N0YOKlc/gKoVs1FgStDTj+aWZhw40I54/8f4K5Zg9VNlKM83BVD1Do1fPSJKDvbcECVZa+CcbsD8OfNRYhVFy8yxhpEGrzD4GE+zluDFbdWodQY2In86ylc8iu1712DNLFMWwb96DbavdwYowtTbtiR6GNBItB4RJQ+DG6JkGziLj4bUc8Y8PB5jyGmlr1g/Hw6c0c8pSQcetajfW4u3V+eYwmTKwZqfSpAhvSYfYPOWOtSsNY8tH6C5R/aZjlVVRXrvMOrcNqyYrjak7n5sjqyXX4btG5NYj4iSisEN3TZWzpMclWqslHyVebU6r0VyVqzcFrcyF1kL9H6Nej/r0VhWjU25eWYHp+HyZ2LlzVzGe70B9ezDIz63912Ax3zy3Ib3r+iCaKM6zwTJ0Ji8d9nyGD1MI8gLinGeK0eQR1RZFerdKFjxWMwelMT1Yt87+1G3ZR/elOGgi6ZYXGzHm++0oFu287KjelPk3KSnp/vQ+6pub2goSeq9pAIV2V5cHnXOidYjouRicEO3mRw8W7Ye63w6OlB8WFa4XDWwEWVFEgQ5meCntErv52zM/BnFWFe03iWAuYwdLQ04rLaWFUU38CUzf4R1GUBH139gx4ApNOIOTeWWYJk8B1pxUBc4JXKet4bkFsU6z62lKsiZmcRALFEXe3HEGdQ43Ts9fKgqqAgPLZbnC2hQAUq0dhw41K+ep+Pee60SS6L1iCjZGNzQbUY1pBkB7Dn5OhY17cYePfxToRrYiDIU4zFnEJBbqRvhjqE2vHJyt9pP9rX2f6VLelkkgIkMiMQZbGhvU88+rCt29HBkLcf2QhVMDTVhs1vS8MAV6DY1IwdzdEFIiSoTrkNSCZ/nBMut1knTKkLD4a4G1ATP83XUqOulA7vCH8WdCXakocUMDVk9HftiBSFJ5p8lCcZP4O31s9WrfjS+cyzUwyJmZUN3KJ34DEd0gcUZwHV0X9XP+QWO4bRE6xFR0jG4odtOqKfEHv4JL/tsUBeFu7IfNSr4WdWyHwcHnMHIZRzsrMMr+m1ycL9bY6zq6p+rIGq77o3Iw6ZiWVdGBVRtsWYjncH7+j0jgixV9/EcCQpiDEmN5TwnjPr8hSZnqL0OGzrPhF2DVvUZVpmA0H1Yzrh4DG++ZOWkPO/a05FEs5bg7b1Wfs/21yTBeJoKQj7A5rX7ooMq06PT3d1nvUYRXpR6ztygL/r1kFZBQbb1WiRaj4iSjsEN3XYuDkX3lDjLzg9aAU+kVnvoKCsPK3OXY6fkipRZeTpb9YiWD/dl6j2iHDxnDU9Jb8TOedZwlDTskcNRTgcD0sADy3wL9LOWNR+PqLruQ1KWsZznhLA/w1ATdsXKGbrSal2veDPGbikViOTdj4crRtCDUnE/ys3mqIKSROsR0ZgxuKGUUSKBgiTIlq7H1qIKFXTIEJeOFkbgDDacbEKHCiykHgIN2BCrYbeZBh6+kuAwUolvnh6miDdLamznOQHsaewZFah3JBKHP6qsvKLJ4uIxPG9mLm3esh91hy6gG7Oxan11zJlawYCk6RM06uGzfjT/pV0XxZNoPSJKHgY3lBokR0QCBd3j0KbzRCSnpcbktVjDPfHZgYmWmTuCHgl7aCo0jDQnU4KUAD53GzoTSThPiq9DkowP/AHPv7RfBx9RM7XM0FFIL/bp4bN9eLPJFEUNQSmJ1iOipGNwQylgAXYWSY5IAHvaVZDQsl/niUhOS2tYXkscdgJtQAUbktgbzL+JzxqasnNPzBTwoXN4z3U4KwnnOREGzRRndS3sJOKYj0m9QnIvPm6xZi898KCj9+ZiH3SHy+L7UakLovkLpunnnm5HrlCi9Ygo6RjcUOqQoOKKW5CQh/vNljs76GjDK+dUsNH5H3pGlr9wBNOynbknZgp4R+/Z+A1+wucZwWWmVpg4M7qEPdU9ir1IoW/p2O6LNRGL+G2MtyJwDh4ukwX3IoONdhw/Ic+zUeV6XkVYrRfqu4Djdo+Mlmg9Iko2BjeUOnRvywLHcFKeCjiq0ajXzTFFLlbOs/JHDrfvN0nAl7GjTfJvRjIt2wxNqQDiOZ80eAF8FBimFybB8wy5gs/NdPhnne+TtSBicb3QflvnOfez1tqxpnq7UZ+/y0yPL63FTjlG2PvmYeVMdb56wcXYxnsRP//qx7BqcZm+xcKLFSZPyPDPKsKabdVYpY8fHWzINHU9q2mF5OQUheqqei9ue9RKFI6Y8i0SrUdEycUbZ3qI1z+frFAss4UOt78eTOa1b1I50jJXsqaM+sN9a2FxWB1NBRWnpNdGhmDOhScBB9/T5WdOYcce5maWCZ9nhJjvE3mu9udzITf+/FXmenXNZQ2h6Jlhcc9VqPPd07Y/5oyyyo21qNWL3ol+NG5xmZY9Rv7VT2BD5H2lwvSjebcjJ8ZB3yNK97S46GnB5pci1scxEq1HRMnDnhtKCa2dddbicrqnwpDG1+S2HHSW2+T2BI7hqEjynjrB11cVdzVee7ViMdyQVELn6UK/T5e1mF6QvE8gIiKSdXVcjveKrLXTeTnmtHohx1h0skG9ZyDiOGZhP3W+8abKT8Qifh2SOLzlAzSeiEj27VGvZZ0buTVDjCGijgP7sHm3nKPk5djknlGqXpwAJdF6RJQ87LnxEK9/PiIiopFgzw0RERF5CoMbIiIi8hQGN0REROQpDG6IiIjIUxjcEBERkacwuCEiIiJPYXBDREREnsLgxkO4xg0RERGDGyIiIvIYBjdERETkKQxuiIiIyFMY3BAREZGnMLghIiIiT+FdwT2mcmMtahebF+hHd89VNLzzBxy5aIqIiIg8jj03njYdBfmzUfvaE6g0JURERF7H4MZjjvxzHWrWmseWD9DYI6XTMGOW/jEREZHnMbjxsovt+Lil37wgIiJKDQxuPK6j+6rZIiIiSg0MbjzOXzDNbBEREaUGBjcp4SoucbYUERGlCAY3RERE5CkMblLCbNRuW4JKzpgiIqIUkH5PXt4vzDbuumsavv7auwmoXv98bq6evYyvZhVgxtz7sPyRB/D3VQ/gB39zAe+dHTR7EBEReQt7blJEgXkmIiLyOgY3XlfxAGoXTwd6LqBuy369uN/zB3rND4mIiLyHwY3HWVPB+9Go7y/FoIaIiLyPwU1K4FRwIiJKHQxuUgLvLUVERKmDwQ0RERF5CoMbj+O9pYiIKNUwuPE43luKiIhSDYMbL5tVhNUrppsXREREqYHBjcdUbqxF/V7zeO1RlEthzwV8zNlSRESUIhjceFo/uk+0oO6dY+gwJURERF6XtnBR6U2zjZkz/ejs9G4z6PXPR0REROy5ISIiIo9hcENERESewuCGiIiIPCWlghvm2xAREXkfe26IiIjIUxjcEBERkacwuCEiIiJPYXBDREREnsLghoiIiDwlpVYoFnLvpdrF5oXcnqDnKhre+QOO8N5LREREnpDiPTfTUZA/G7WvPYFKU0JERES3t5TruQkzqwhrfvooVuX3o3HLPuxj7w0REdFtL7V7bi624+OWfvOCiIiIvCDlE4o7uq+aLSIiIvKClA9u/AXTzBYRERF5AaeCa1dxifk2REREnsDghoiIiDyFwY02G7XblqBylnlJREREt63Ungqu5aBy42OoWjwdBaak+9B+PH+g17wiIiKi2wl7bgw7sCEiIqLbG3tuKp5A/frZQM8F1L3zCY5cZI8NERHR7YxTwfVU8H406vtLMbAhIiK63XFYSuNUcCIiIq9gcKNNwwzOlCIiIvIEBjdERETkKSkf3PDeUkRERN7ChGLeW4qIiMhTUju4mVWE1SummxdERETkBSm3zk3lxlrULjYvbD0t2PzSMaTa2sxERERelOLDUv3oPtGCuncY2BAREXkFVygmIiIiT+FUcCIiIvIUBjdERETkKQxuiIiIyFPCghvm2xAREdHtjj03RERE5CkMboiIiMhTGNwQERGRpzC4ISIiIk9hcENERESewuCGiIiIPIXBDREREXkKgxsiIiLyFAY3RERE5CkMboiIiMhTGNwQERGRpzC4ISIiIk9hcENERESewuCGiIiIPIXBDREREXkKgxsiIiLyFAY3RERE5CkMboiIiMhTGNwQERGRpzC4ISIiIk9hcENERESewuCGiIiIPIXBDREREXkKgxsiIiLyFAY3RERE5CkMboiIiMhTGNwQERGRpzC4ISIiIk9hcENERESewuCGiIiIPIXBDREREXkKgxsiIiLyFAY3RERE5CHA/w8ApdTCkEb3fwAAAABJRU5ErkJggg==;" vertex="1" parent="1">
          <mxGeometry x="1350" y="800" width="567" height="398" as="geometry" />
        </mxCell>
        <mxCell id="Fyon28mkbxydN6EMD8Si-2" value="" style="shape=image;verticalLabelPosition=bottom;labelBackgroundColor=default;verticalAlign=top;aspect=fixed;imageAspect=0;image=data:image/png,iVBORw0KGgoAAAANSUhEUgAABNYAAALwCAYAAABbUPiuAAAAAXNSR0IArs4c6QAAAARnQU1BAACxjwv8YQUAAAAJcEhZcwAADsMAAA7DAcdvqGQAAP+lSURBVHhe7P1/cFTXmTf6Pr7RLeseILJAMe4GoVbsiAG/LwlqYSmHF9nG8kthsKVMrojk+QcqQ5WlqYADQwYoVwFVOcAMgcRMjeQqkjJVp15Lg+5MJNuE6wHb13gYC0OLmBnbg2KPxK9uywOSFcw5cpWmfNdae63utXfvvXv37m6pJX0/VQ3dW717/+j98+lnPeuex1bXfU0TZPj2LfkMAAAAAAAAAABgavt/yP8BAAAAAAAAAAAgDQisAQAAAAAAAAAA+IDAGgAAAAAAAAAAgA8IrAEAAAAAAAAAAPiAwBoAAAAAAAAAAIAPCKwBAAAAAAAAAAD4gMAaAAAAAAAAAACADwisAQAAAAAAAAAA+IDAGgAAAAAAAAAAgA8IrAEAAAAAAAAAAPiAwBoAAAAAAAAAAIAPCKwBAAAAAAAAAAD4gMAaAAAAAAAAAACADwisAQAAAAAAAAAA+IDAGgAAAAAAAAAAgA8IrAEAAAAAAAAAAPiAwBoAAAAAAAAAAIAPCKwBAAAAAAAAAAD4gMAaAAAAAAAAAACADwisAQAAAAAAAAAA+IDAGgAAAAAAAAAAgA/3PLa67mv5POeGb9+Sz7KoejvN3xiWLxLGjj9Lo+flC5hiiuj5usdp0xz5MnaRvtt7Q74AW6XV9EFVQL4geudiN225Ll/AFBKi2Xv306z5ERptOUxjcmhKWToOFrJpFi0L0Pjldrrd/q4cOpOoY88devmtN+lXo3KwL4nj2OCVi1T/EY5hEwf70ZRUtJR6Vlewb8/iTj81nfmIPpYvATKC7QwAAHJgymesFQSC8pkuQl/N1KAaD7D8oMHx0VP3BB1dupCWyLeDuyVLnzCtv6Ol8g+S6e91S7FeIUOl9I357L+hmzRuDPAkK8fB0iaatcwIzhbMX0AF4ln+WFK6lI6y41dif/R2LPM7XsaKFtDj8seB0OIF9LTxNI/wwN90PW5hP3Iy5fYjj6znav0hrntKi6bhdj4Rcn2ckJ/Pvifr9ZWZet8T9HyRHDSDJO9/fLuupqdn4LoAAMhXUz6wNt69nYZanpWP3XR3iA1M82J6JgnNmUOPLq6iTn5ClsPAu0cXI3gGOVQqb8TTPIZl5Th4vZe+4uNRjMZ+35tXx9Cna56gzqoKepQdvxJSH8v8jpcVozfp7TvG08ErN+k14ylMBOxHtvJ+Pxr9iOp/203fjT8u0jvyT5kQ1z1Vj7N5xfk7/4zSG1HjQFk2xyVKpH6ouBOjNzLKJGZytJ3lCg8aJ+9/fLsO0M9XN1BPDX4sBwDIB9Osxpq/X6lnJH5CxkVm+th6W4NfCCFHCsIrREBgrC+T5mN+j4OD9OVeHlDYTqPdg3LY5OM3FT8PiDsqeufK29SkbobeYjdD/H7M4Vjmd7zsGaVfnTGmiWagEwv7UbKpux+lZ5DNo5i/+IPN88V+9q0wcyro4FKcwPPNxzdj4vsJBRc4b0ffnGM03fzyjzOrqWZpNXUulvvfRfO2zbdrvg+GAotxXQoAkAemV2Ct+hEqZP9ldjE9nfA6QdoFJrsQfplfCCsIEvkwhzYtWSif56s79B9/lE+nq7Ia2nGglTqPt9KRxhI5cOorCPAmZDH6r6jx2pdpdRxcSC3ipoLXDXyTtnw0mripGr1BW87ITAN2w9xiakbkd7yZZA5921hF0w72I6uZvB+xeb7+EdW/ZQTXXIM3YGMCjhMqu9flmvTpBUbz6nduzqwfKdRy8zqdW66bU/X4dr3lzNvUlHE9UAAAyIa867ygoHQVFa5voHuXBeK1ScYvv0qj7Z0pfzUuaDhM89YQ3d2/nb70VLg9RIUtPxH1UPRp3X29k8aCvIhx0PazCqqbaNbaFVQ43zjh8Qv48csXjPFcput3vLSYitjbFOC2FG1NLnJfRE8v/RP68+Bs0XxCGbwTo7ev/Dv9ynJiN01PdjLAa0G0LOZp68Zgnrr/8oXz9if+ooX0/JLFtEn8Is7c4b+KX6T/WJy684IlbNoHFwfYfMoBbHkHY1do58c36GOHZea/ZtffXJB4zT57J//spfKz5LB6OT2Rgi9vLBJi9MJvz4umXaa/a4VvzeMl3m9YSEd/UEWPylfx5ctgPpO/94v06ZIq+nO2Xvl74+uGvT9+Y2SxhH0XLSsWm5obOH7vnL4tqWVQ24+cR4F9xgvs+3/N7vv3qXZrK7Uuly9ohHr2dFDHVfkya2QB9KF2Gmp/V+6/z7D91/jr+FCE7v7mcPK+W9pE83Y/QwWXjfGSORVWNw8f9zo9C8/HQYdC7TT0Kt3em/p4y2VyvPZEbdduRaXVe+LboDbMy3im96gOB4xj5xs8sKDvE/L4ZL3BSYwnX1qI/fmjFDuAPBY+Ht9njf3v1yn3nSJ2LPwTdlzQj9kO+ztb5h7TMdOFvj4zgv0olWmxH2njPV3TQD8P8PPev9ODNVXy/M4zbt5k+w7bV5KGidFsyHOl2/Qldc513tfUedd6PlbjUuJ6yW5fZMtnd/5Mut5xPdfK4wQZy8On4+34ovFxnEh7+XweJ4zv3e66UqeOlebvwf37c/7u4hzWi+P1i4nH7Uxd8zi+z3z+cLvm9fr9qXXq6RxiI63tM8Ply2Q/4p/t+Tym87E/AADkimPG2qxZs2jZf//vjg/+9+ziQS52Ibu7xRTo4gqWPUPz2g/T7BS/iBq/UkdpPMUFs8Av2tv3i567rNMq2n2Yiir5hbLNZ7GL6Hkb+UU6n5bCPkONV60O7RZ+x8s2lU4v6JlNRaKOygc/eJx+Li6ozFdUvJbDpqrHRS0HR7MXsAtmdmIVtSDkMI6Pu9qm4Kw4iasLbIlNl9dCcbpBNbCLoLoGNh3rhR9btkAVdbJpHS21/9kz9M0/oaMqGMRfs/e31PBU+0QgiA+zK6I7eKVf1uEI0J/nuDlJJvPJ18Om1ex71C404uvGtsmO8d13su/CroZHyu+dm/1NEZg7yi66xPYjBxvu0CdT8QKntIbuZTfj47SAZvNjk9h/5d+Ygvlhse8mHZeCRn2n8ZjTgcipiZkcfvkmFex9xfv0LLweB+0LtbP59lQXKvPjtRdL5swW/w9GbzpfWP+RXXzz/wOJDgLiv/J7GY9t8w+JAWbfXmKzT8jj0wep9oc08RuSD+SxUN934jV0nI43cp8zjoX6viv3d5tC355ulrMJ+5GL/N6P/I5nmE1/zm/C4+d3XpNtKbtGsAyryq96r477InuY1wEPMvDrEMv1jsu+F8f21Ra7c26K44vv44TG6/L5OU689rGRFehai1bVSouZ6066NgctXWD8EGkZx8C+B37t6rBe+PWLe6cIE8fP9/caWy9caPGfpNlRQQbbZxZ4348YH+cxLhv7AwBANjkG1u7evSv+/+///eGkB6f+nh3GL8w8yMXOnDR2fDfd1goIj74RYReoAZr14ybThafZKrp3Gfvv8vseutZfxS6snzE+a+hVGt2vpvUs3T5uTKuQf1bSBTubz7U84GbMo17kOD7exp/YXAj7HS/L+MlrsR7Y+5I+jQc8+JPUV1L8JOd4kcIvYtgJzp61CSWbFy1w5B2/WOAXo/KlLX5xWmV/0cBuluKZYtKj4gbK7NEFyRe2oW/+kU4b1zi5b06SwXy6sqkx8zS70TFq6Dhz/d459t0fXOHwveSgJsrZ7j6KyO8ievJ0DrLVGHljz29wZ7Hjgem4tL+dxkSBcnZcWr+KP4lTN9rjMXG7mcypsLoazqc333IcdJmemffjoLlQO3uwY5EY7jTfcdk4Xnvz0DeNDerqHZfI7Ogfyfj6Z9ODYtMuogeNeECK8VTnAmo8HTuGsH1iMNZPL8Sb079NL1yRbemT9odEPTX90aTe76ZUq6Fz5WKihhUf/6K82Vxsdzzjx1C5z92J0cum+jt8Xvm4c+jb3zTeLVw/r71HNuPj2QnxYdpDZqFkDPuRg3zfj/yPZ2A3uyKzhW9PbxtlKNj5Z1PAMowt45O5vvbhVHDmzh36RAywYvvKErkvsv3phbfM+1PTx+b9YclSdkMvVg/PutPeGy+5wX/gcgoasvN7WscXxvdxQklj+fweJ0Y/ol/z87JL0+Cnl/DrPrYNWNZnfDuak/xDhwrw2jYDLf0Tcd3Js5Ssy6TWZ14Eb/1+f+y7eEFc6xjBog/qqul5hx+OdZltn5lIbz/ydR7jMt4fAACyz7XG2uV//Vf613/9UL4y8Nd8eDYVNPyEXQCzJ7zpBC/4e35Qu1AepLHuw3SbXRCP/salWYS8mHb+dTuhsKVF1E4h3sRkr7kZ5vh5Ni15YZwcWJOGLtBdNo8JbH75ePxi2K3ZiN/xfOMnzkTX3PyXHVPgw/Lrn/FrozxJWWqzGZlahlTBnPhJ3DKeyGqST5csXWwOHMXUiVG7uLTDL6JMy5A4oaqTqYEt+wqHX0150wVZb8VgXOgbFy+SNq9xbNgn8tfDCakp43c+BXXzwr8H/TP4xcafJC6mipbSn2vxOv7dWS9QFPceUflNFP/fuIhLfIbdhVQWXO2lQ7vaqGljG23rSt3E3I94Jordcen6u+x49Krxer68kZdS1ndyyMRRBdfTnZ5JGsdBK2N5U9elysrx2hMVIEtVM5D93faQkVmtQdH0pvcjrTnJKL320ZvxYFnaQW1bRfS8/LHDqGFlbvLyMbupqhf74Bx6fIH5DiF+DBXNds5bmjvxeWXjspsa5yZZEwP7kb38348y3f/4PnRRNhdL9PyoD/v0SzEox3gTs2rq4c1VGbfsO/7jFd/vv8v2p9dGzfuTtbzEQXlTz5u9mZpujt6gX51JBA2dstvTO774P07oPC9fBuJZa7bHx4X0JF+MO3Y9e96QP1xaA61FtCbI13WMTtvtjmzZ+fVqvc0y8fVpXC/Z/XgykTL7/l7rZddiIsDEyCy8D37wBB1d6tAbaBa2z0yks535O49lZ38AAMi2lJ0X6MG1XATV+C/Ds9bwA2SERt3qkbALYteaKPGLbD2EYKO0SfxqLi5mbeu2JCQXLWYXvvzX7vnPUFHLKipICqywi2HbefQ7Xg7xk5g1I0F0Qc5OUjeJHlpQTUfrnqCeOhmQk28RHIM5xsVi/CTOTuAqw0vQfolUv4QbYvRCvIYCP5FaOlnQqCZeBn0842Qqfi1V2AWIXSFc8atn/Fd2Rl7kffJHh4nqrv97fN74hePHd3J3Z5DJfPKLjXj9C/a97jQFKxMXmUvY+tSzBnkzlE4ViGUPnpofZ/NLshn/ddK4iEtc5GTvgn2iqRv7u043ttftAu8hKhA3yxcc9+lC0cw8+Vjlb3oWXo+DSUJU+D02fZf5NmTpeJ337tDbN+03XNVkye046JlqFsWOx+1O64t97/wHCnOWrLrZZDdOF1xqApluaiYH9iM7M2M/sst004d5OuemKbSYBx0S5zBe3kI0MWN/E3VJ3epUpfq7okpqxK4k1ZkyjNKvrhgXI/bZ7WkeX3wfJyy8Ll8mVCZwYHFytpDMGnQKbqpmj6agnEPTUV38GqOoiJ4uXUpHa/i16xPi++f1yXiAJSnjaSJl4fv7mAeYxI+dRk+gfJkeXWw0kzxqzWDLePvMkOftzOd5LFv7AwBAlnnqFZQH0868+VYOgmqM/GXYWxNOZ8ZFdoS+Om+8dqJ+zXarf+L2i/NY+24avRyjgmUtNG/3KzS//TAVNawylsGF3/FygV9cfteuMKmoc8AuRFdXiTpZvPZHunU2rBfS9hfOiaZagmPTDKvU46kLM2c2v757baooAkuJX97FhWOa68e7DObThjkAmLjINAc4U3H/1fedi9OpWKy8sfdas1GR9aQcs13jn2s9vvicnoXX42Ayp3pVFlk6XnujMlpS3RSxv9tuxjm+mUoZaPZA3QDNqTAFtM0Pyw8bglpmvTl/PsJ+ZGtK7EeZ7n/5gzcT5E3M4p39OBj0GOiL155zez/7mwiQ+T1O6OP5Pk6YeV2+zKigjTVbSGUZxejXTkEXGQwx1fmTP/659QbKC/Qb166P0895TbEAv3bNo40yS98fZ/QEylsiXKSXY/z7NOry6U2HJ2T7dOF9O/N5Hsvi+gQAyCZPgTVuaOhz+SzLguqX4QyugtXFdKqLWUb9mv1VxOmXaPmLs+OF+SCNtW+nof2JGiiFa1pEkeGiBnGod+B3vEwkmgPqzQdDdr8k6nUOwNXHH10xLv74hSO74Ug3p2HypWra4yTfb+KzSRVAd7nxVTfH+nEn5fFM3XhbM1p8Ts/E+3EwSfUjxJvHJ2fpWmTleO2dCsyXzXGJ6BZ9k8rEE7V9JpqYuY8nf/WeUdv1RMN+ZGtK7Ef+x5tMoglavBSB8eDNBFP3DAlZIzP7zWUnUmeeJZqDWuv8uVyz8FpbqkD/nZgoZcLrejXJ2l6m0hnTCW/S2as1HXYt1QEAABPBc2Atv6mLbB8Xwkk8ftZ1WQOFFxoWBZF5oMxDBwR+x8uQqnthsHYkQEk1z3gdFHFxIi9Mc3px4vkXM0tNFpvxzE1FcyXRxDUUMDel9CR+IzJxnNaLOaMwRi/I79v+cd7lgniakTfIbje+heuNDlD0m2hVT8qpCVmB/Nyk44u82U93emb+j4Ne60JNNJVp6dacI96cWbthi/ek5mU8zxmzkvq1PN3x7LD9T2wpPIvYdp/THnZZxtmoHZSDjIU47Ed5we9+5He8mSIkgj4O/B4n7MbL+DiRBWkdJ1Rmf6JemrGd3EnutMDCOHarbDe3mmzcQjoqylWwz+W1fc+cF/W2eF2vj/OgGXxcDr+/eNNhGznZPnMizfNYPuwPAAA2Jj+wFjUuXgvW/NC4ULZTmqLJpIeLd7MAfcO4brfgXd/Ljg2SLqpXGfXR5CsTXhD5FO/wwO5z/Y6XZaq3JsU2a01iFzG/VhcnxAv/mgvcZ05rTinwAqqqCGsRPV2jejNKZm7qGaCf1ySKt/ICxab5dLwYy1zqJqc6rUAsb27rqzfU9Dxaleie3G29mC/K2Pqsq6ani/QNw/j+eZHcvFJWQzsOtFLn8VY60lgiB2ZPqht7qt5ORbxWo6W5mMqItbuxLmg4TPM2qrpQ5mNVvOC6gwKH6ZmkfRxMMObbQ/O5bByv06GaBjl2FrKQWkSRZktToXTGu2J34e3U/C1RNNmtCLpnbvWIXKngvksnLRzblx3/FucnOFeR2P+2VshhybAfOZiO+5FLU72M5TL460P8vOm436Y+TqR1fPF9nMim9I4TKrPfyKSStbS8XJPJbU4Ec0vda7LF8c+1zUgsogflM09SbWcuPZdyiZ44LTL4/p6usamhplMBMo3v7dPv8vnm8zyWF/sDAECyyQ+sXe+lr0T392Eq2rudCku1UwR7XthymObvbvHUXLLgezVsfPmCj1udPM54zAiIFG7k0xJPhYLqJjZ93vW98Trpgr2hgQp5fbS9h6mIfa7pgpddABetNS70rfyOlwtuWWumGlxzAvTzeJ0CXvg3+4Eg669svFtso1bC4/TzgMuZW+s8QAio8YxC+4n5TFEMNVPW+bBIXj5ZUNnaEUTOsO9X9ghrXi+WQII14Mq/+9V68Wfj+390cX5dwNQ2VFLYuC6k4LonqTnLKYDGDTI/TrxC80y1EOUxSd7Yjx0/bNPkLECz1mvj8P18L/ucNQEau2ysbGugQU2vYM1+2+mpQIL99My8HAfNZNM3dgyepR1nC6pXmY6RQhaP197coHbV1KWK94KmXWCLmpByf0oqYnyDtsgebdMbL+HRqgbq0XtdY+M9X/e4vLFwqROUlkQ9ok2rZS9vpv2siJ5eWk09P6hONKmS4sdzXmemrpqeN9188YA4G4/ty501TkFx803N06bReRFw5x0+1BhO7H/Lw477H/ajqb8f+RsvW1SPo/qPbwybtml7nWjx86bcb/V9xdNxgtfFkvu7HOI+nv/jROb8HifktsM7kVpqNAP19mOEnN6cOdSygNcKc+7oIY4dAw/q61Id//j6lMcpd163s8T79B91+Xp4vuYJ6pRB5mQ+vz/Ra7tRQ60n6UdP40dT1dut/XVdutun3+Xzz995bDL3BwAAZ/c8trrua/k854Zv35LPLEqbaN5uo3mGnfHLr9Jou0vPWTwrrF1mmul4z59JPW45vJcbitDo74NUtIbo7v7t9KXlQlH8Ui568nJwuV30NGqdT7/j+cJOQh/IEy0/SfKutvVegZ6uUb0kcfrf2YkzfrK1ukPvsHMYLwhrvOTdYsuTuGl67OR+sdvULfaSpfrJmDc11JoTWsbVDbKTe7zjBJ7ubSo6LC/oHc/xbH4vXkz0TsouTnriWWJqmdlnqOKm8vNN8yqXkVzm37xsjL5eGPO61tyJ0cvR2bRJjauWL4P5/Fhfl3fu0CC7KLW7JRNd/Cdd6LOLkJoq94AmkzSuaX6Tv/tcqt3aSq3L5QsaoZ49HdQR7z41UyGavXc/zWLfN6+FaNwsJxt/Yzfd7jbf2PMMHBUsMIuJY8pYmB8LrMcXNb0Iu9kPU6Ht9GI0dvxvafS8ZXom6RwHzZyOUWPHn2XTlC+UjI/X6eO/2jtun2x/eoF36y9f6tIfTx0H2T50h+1DtqMmH1edqH3Vfr9LSDqWWPFjxoXzydO07IPJUsyr6/iW47Um1NhMB9cVy1dE0ZMnaFuX9fyO/UiZafuROvfp5wS1jacaZuW4b1iuC7zua3b8jet2zcTZ7XuJcUzXOCbO+6zjulAcjhOZrBvB53FCXKvFi8i7vc/MtJyW6yor13XCt80oic64Ul2fOH6O9frT7bqVrd9ff5P/OGz/Hfr6/ti6P7pC1pBzIHq71edR8LN9MllYvrS3M5/nMV/rEwAgh/Kjxtr1TrrdYvSaabqIHIrQ3ePsojvlxeW7NLr/VRoTvwAbxvm4p+x6/uTvbae78hdvYYhfbLPp7D0s32/flGO8m3c+YIyrf+64Gt8hOOZ3vFxIylqLp1+P0q/OvE0viF6GFHZzyU7YTeyEtuVjcwZWVlw/T999i3cdrk2Tnwh5713i1ygnN0SvSE0X2Tzps6vP7wQUKk50YmDvtd63Za9Nyh1RWLeJ3YT8ytRLZ3YNRtlF1m8t01br1fZiZ5TN65tsvRm9TJm+Z/bdiHl+q9vfBXmOnO3uo4jcRKInT2cxqMapGkvd7JiQfFwSN7z7n00OBnDnD4v3J7B9/I12dnwzAgD2TcWM6Y3//h9oNGl67LmY3vYUwQAuneOg2Xj339rO91275nIZH6/TJ7ZPp/3dIRjAGeNZjjHafuh4k8f2l502x5jBWD+9YHczkqGPP3oz3sub7f7Hjxm2u+5HYl9/gR0vbdfNb1PMKx+fTde8fthyiuPFvzuun8GuSHz/c4b9aHrtR+mPlw1832ji27d8LfDt86Z5m514/JqJHyP48UUOErzse3fo7QvpH198Hycy5fM4kch2Y9Kowadn/KfKchPbh3XblNc7vObaax43E8/bGbtutZveC/Iayb4nfIOv74+t+y3s2jx5/zPWP6+FbN/brc/tM4Pl883neWzS9gcAAAf5kbEGAJAvZCYJ2WXSwKSL/0rNLrhNmQR5yPcv+FPFyrXUubncPmMN+1Fe87sfTaX9L/8kMmKdstKmGyN7ceYsLwAAzFzTpFdQAIDsUAXQHQuuw6SKZ4oGqqhHrwOThx5y65VtGggF72P/jtCF95N/NMN+lN/87kdTaf+DSVYkO766k7uOpAAAAPIFAmsAABqjmZl9j4SQD4yOCXi4JqR1XvLBDxI94U44XhC6VCvszvCiy0aNRQ/Ft6eishrawuusXYrYNsXGfpTv/O5Hebj/Qd7hvYmruln2PS8DAABMLwisAQDEqZ797OssQp64fl7U/OG1VfLBkgWLaVPV41qQweiNlxuMXZlmTaBKKNS4lo7sq6RgbIDaXuyXw3XYj6YEv/tRnu1/kCd4Efr48c8IqvEaWRPVqREAAMBkQo01AIA42SOghx4AAeKKiujpJVX05wGtN15ZQHkiOlKZWBW043gdBS6doaMv6p3h6LAfASSb5jXWLL2TT8/jHwAAgD0E1gAAAAAAAAAAAHxAU1AAAAAAAAAAAAAfEFgDAAAAAAAAAADwAYE1AAAAAAAAAAAAHxBYAwAAAAAAAAAA8AGBNQAAAAAAAAAAAB8QWAMAAAAAAAAAAPABgTUAAAAAAAAAAAAfEFgDAAAAAAAAAADw4Z7HVtd9LZ/n3PDtW/JZKiVU27iCGirLKRiQg2iA2jaeorPyFQAAAAAAAAAAwGTKy4y12q0bqHWdHlQDAAAAAAAAAADIL3mYsVZCzQc2UH2AKHLsBB065zXLDQAAAAAAAAAAYOLkb421WB91IagGAAAAAAAAAAB5Cp0XAAAAAAAAAAAA+JCHgbVbdPMz+RQAAAAAAAAAACBP5W/GWqCYFsmnAAAAAAAAAAAA+QZNQQEAAAAAAAAAAHzIs8BaCYUa11LDcvY0NkLXjIEAAAAAAAAAAAB5557HVtd9LZ/n3PBth14+y2royL5KCsqXFBugnpdOUcdV+RoAAAAAAAAAACDP5GVT0Ch73DSeAgAAAAAAAAAA5KX8yFiLK6HaxiepdV0xUayPdu7qpUH5FwAAAAAAAAAAgHySZxlrt+hsVwe1XWJP0SsoAAAAAAAAAADkMfQKCgAAAAAAAAAA4AMCawAAAAAAAAAAAD7kYWCthBY8wP6LjdA1YwAAAAAAAAAAAEDeQcYaAAAAAAAAAACADwisAQAAAAAAAAAA+JC/gbVAJTWuLJEvAAAAAAAAAAAA8ss9j62u+1o+z7nh27fkM3ehxmY6uK5YvlIGqG3jKTorXwEAAAAAAAAAAEymvMxYG+zqoJ0nBygakwMAAAAAAAAAAADyTF5mrAEAAAAAAAAAAOQ7dF4AAAAAAAAAAADgAwJrAAAAAAAAAAAAPkx6YG3RopB8BgAAAAAAAAAAMHUgYw0AAAAAAAAAAMAHBNYAAAAAAAAAAAB8QGANAAAAAAAAAADABwTWAAAAAAAAAAAAfEBgDQAAAAAAAAAAwAcE1gAAAAAAAAAAAHxAYA0AAAAAAAAAAMCHex5bXfe1fJ5zw7dvyWcJixaF6Nq1QflqegutrKHG9eUUDhTLISMUORmhrq5+ysUaSHd6tVtbqXW5fGEyQtHYF9T90gU6ezX5OyQqoeYDG6g+IF/aifXRzl295umuXEudm8vlC2fRkydoW5fddO2Wkb3/Uh91d/eyeZUDqIJ2HK+jsHzlReRYGx06J18AAAAAAAAAANhAxtoEqd3aTAc3V5oCQETFFF5XRwcPrKVaOSRbsju9YgoGyql13wY60lgih022Emq2XUai4PJKNq/NtGOlHAAAAAAAAAAAkAPIWJsAocZmOriOB394xthp6uq6ZWRulVXQjufqKMwzvewyunzyOz2VsZaUrVVWQrWPPEmt8jN79nRQRzwbLIWyGjqyr5KCbhlraS+7niHHlvEYW8ZzchnZ32obV1DDunIKXjpDTS/2i6HJ1GekuTwAAAAAAAAAABIy1nKughpFQIoHrDrokApycVf76dCuMxThzwOV1JiVDKscTO/qLTrbdZp6YvL1ZFu5QgbVBqhtD1vGeFCN4/N6irbtOeESVAMAAAAAAAAAyBwCa7m28kGjtlesj7psa3b106FjA+JZuKpC/J+RdKa3voZC4tlUUkLN6426bJFjp7Q6aha2teAAAAAAAAAAALIHgbUcCwXvE/9H+z5xbup4Y4Si/P/lD2Zca622ygg6eZpeoJgWiQEp8KagW58UWWLRS5HJbTZZ9hCtkNlq59G5AAAAAAAAAABMIgTWcmxR0GiWGYu6ZFBdHSajleV9tKBMPPGphBY8YDxzn94ndEFM0H564c2t1Hlce+zbQK3sc3uOnaBtuWheGaikg/r0tEdSBwQLiynI/7/0KZ0VAwAAAAAAAAAAJgcCazmlAl0jdOOGGOBgmG5ktX5Zqun5ECim+s1P0o6Vk9srqMoABAAAAAAAAACYbAisQRLeK2jTRv1xgnYe66MoFVN48wY60pjl4BrvFdQ0vcTD1DspAAAAAAAAAEAeQWAtp27Rzc/4/8W0cKEY4GAuLRR1w7Il1fTSdYsGz/XStj08uEYUXLci41pwfg1GvzCePDB3Cna8AAAAAAAAAADTCQJrOXYtOiL+DwRdsrzK5pIRV/uCbmbUMYAK5KWanuoAIM3ppajNNiHS7XgBAAAAAAAAACBHEFjLMZVhFax8yDHDKvRIedYK8p+9OCD+9zS92AhdE0OmkHhwr5wast0kFQAAAAAAAAAgDQis5dq5TynC/w9UUqO1h0uhghrXGT2HRi5mocfNdKb3ei8NimceOWS6hVaupSNbK+Qrs3gQ77Ph9Kbl6Ba912dkAQbXPUnNTplzZRXUPMkdLQAAAAAAAADA9IbAWs71U9dJIxAU3txMOxpLEplkZRW040AdhfnzWB91ZaVQfz8dOmZkrWVveuwzePBsX6UIkkVPXtAy60ro++vLKbi8jo5sraFaLdDFx9mSzaChNNh1mnpE1lox1e/jy1ihZeepea0TvZg6Bt4AAAAAAAAAADJ0z2Or676Wz3Nu+PYt+Sxh0aIQXbuWnVymfFa7tZlalxtBpiSxAWrbdSrjZqA6P9Or3drKxpEvnPAePHdZM91kwM6hA4bopTO07UWbwNrKtdS5uVy+cMHGb0oav4SaD2ygesdOH0YocqzDpVdRNf4I9ezpoI6MatsBAAAAAAAAwEz0jVD5t/fK5zn3f//f/5d8llBUdB+NjsqeHqexq+f/jS7+ZwktDRbTnDlyII1Q9NI5+j/+j/P0gRySLcb0vkHFwUIKzvl/yaEjFDl5jo4etZ9eWc0K2dQzWTQ2QG91nqa9L/dT8rd1m/7lzQH6/P/5v9GCCrZ8ciiv4RbpfI32dF2XAywWfYf+32GH4J/us/+g/8/52/KF8n/Rv715wXYZo5c+pv/zpf8vdfyrHGTrf6P/Xvcw/cmcMbry//s3+rdRORgAAAAAAAAAwCNkrE2CUGMzHeRNJG0zsQAAAAAAAAAAYCpAjbVJMNgVMToYEHXJ9PpgAAAAAAAAAAAwVSBjbbLwAvubZY+ZcYl6X/GsNk8GqG1jdmu0AQAAAAAAAACAO2SsTZZzp2jbnjPUc8noMRQAAAAAAAAAAKYWZKwBAAAAAAAAAAD4gIw1AAAAAAAAAAAAHxBYAwAAAAAAAAAA8AGBNQAAAAAAAAAAAB8QWAMAAAAAAAAAAPABgTUAAAAAAAAAAAAfEFgDAAAAAAAAAADwAYE1AAAAAAAAAAAAHxBYAwAAAAAAAAAA8AGBNQAAAAAAAAAAAB8QWAMAAAAAAAAAAPDhnsdW130tn+fc8O1b8lnCokUhunZtUL6a3kIra6hxfTmFA8VyyAhFTkaoq6ufktbAyrXUublcPI0ca6ND58RTTQXtOF5HYf700hlqerFfDDWUUPOBDVQfGKGePR3UcVUOzhVtXt1ET56gbV36NuBzPv1ML5P16Wv5Ep+XvNyGUGMzHVxXrP1dmweP7JcFAAAAAAAAACYCMtYmSO3WZjq4uVILqnHFFF5XRwcPrKVaOcROuKpCPtOsfDCtAAwkTPT6DK5b4fr9AgAAAAAAAMDUhIy1CaAyk4wMtdPU1XXLyFArq6Adz9VROMCex/po567eROaaKUtqgNo2nqKz8hVXu7WVWpfLF/mSsWZdhpQyzFhLZ3qZrE9fy2fOPrPLWkvOWLMzwd8lAAAAAAAAAHiGjLWcq6BGEVTjzfY66JAKqnFX++nQrjMU4c8DldS4Ugw1iVwaYP+WU7XpbxVUzYNA7G9iXPBswten/ExkrQEAAAAAAABMPwis5ZpqYhjroy7bWlj9dOgYD/bYN1EMREdEYMb0N/mZEfY3SM/Er89Pqesk/9xyamgsMQYBAAAAAAAAwLSAwFqOhYL3if+jfZ84NyG8MUJR/v/yB22ymobpRoz9p/3N+MwRusFG4q1IIR0TvD4fmEvUFUHWGgAAAAAAAMA0hMBaji0KGs1AY1GnGlrM1WHisR6i+2hBmXiiGab3+oyMJ6P5Ygl9v5J9ZmyA3rvBX+eRQCUdPN5KnTaPHTbNXDPma3oZrE/fy9ePrDUAAAAAAACAaQiBtZwqoQUP8P9H6IZr0EZmUdkIBufSoMx4Es0Xyx6iFQGiyOvpdBIAymStTzVNZK0BAAAAAAAATB8IrE0J/XT+EvvvgblU+0g5BWmAzvN6bQuL2fM8wnvN3NhGTTaPQ7b15TLke3o+12dGy4esNQAAAAAAAIDpBoG1nLpFNz/j/xfTwoVigIO5tDBFca+zFwdEU8RW3sPopU/prBwO/kzG+kTWGgAAAAAAAMD0gsBajl2TPU0Ggi5ZSmVzZdH8L+jmVfEk2blPRVCGi1zsl8/At0lZn+astcHoF8ZgAAAAAAAAAJiSEFjLMRU8CVY+RCHxLFlINEdkXDOn+un8yRGKxvqMZouQoclZn/GsNZftAQAAAAAAAACmBgTWck1lRgUqqdG258gKauTNEZlUmVNnuzpo265eNAPNkslZnzJrjW8PVXIQAAAAAAAAAExJCKzlnGr+RxTe3Ew7GksSmUplFbTjQB2F+fNYH3UhE21GiPdKurzcGAAAAAAAAAAAU9I9j62u+1o+z7nh27fks4RFi0J07dqgfDV91W5tptblRmZaktgAte06Zc6cWrmWOjeXE106Q00vOmSyOb6nhJoPbKD6FB0iELHpbrRM1w81H6lkaz79TC+T9elr+Spox/E6CvOeRHf1knULDzU200GZqRg9eYK2dSXvGwa1jkaoZ08HdTjV4AMAAAAAAACACYeMtQly9sUO2nlsgKIxOUAYoeilM7TTGlSDaU9lrQEAAAAAAADA1IWMtUkQz1Zyy54CAAAAAAAAAIC8hoy1SRDPVlpeR0e2VqB3SAAAAAAAAACAKQgZa5Nl5Vo6srmcgvKlYfLqaOk1v1LLUm02AAAAAAAAAIApDBlrk+XcKdq25wz1XDJ6DAUAAAAAAAAAgKkFGWsAAAAAAAAAAAA+IGMNAAAAAAAAAADABwTWAAAAAAAAAAAAfEBgDQAAAAAAAAAAwAcE1gAAAAAAAAAAAHxAYA0AAAAAAAAAAMAHBNYAAAAAAAAAAAB8QGANAAAAAAAAAADABwTWAAAAAAAAAAAAfEBgDWAqKauhIwfWUq18CQAAAAAAADAdhRqb6cjWCvkqf93z2Oq6r+XznBu+fUs+S1i0KETXrg3KVwDgaOVaOrK5nIKxAWp76RSdvSqHuyhsOUxFywI0frmdbre/K4fCjMcDtPsqKShfxsX6aOeuXsIRGWYU7A8AMwf2d4DJM+33vxJqPrCB6gMj1LOngzo83KsB577eeGDt4LpioktnqOnFfjk0/yCwNoFCK2uocX05hQNswxBGKHIyQl1d/Vk9kMQ3PhvR2AjFXj9NXeduJU2zdmsrtS6XLyzcxlPSXT6/88kDTJ2by+ULZ9GTJ2hbV2KbS3/5KmjH8ToKy1deRI610aFz6uCgXss/Jknj4Bs/EQ1Q28ZTdFYOdlXaRPN2P0MF/PnQq3R7byeNiz/kRkHDYZq3JkqjLYdpTA4DL3KwvaQyU24s9H3AYnwoQl+d+gf68rz90hrbM/tSXMXo7v7t9OV1+dKqejvN38iPIO7vs59WjMYvX6C7r3fSmNPnT0vYH7IvRLP37qdZ8yOejs9qexw7/iyNnmcDfO9Hq6iovYUK5StHl9tpSP7w422/01jObVnZb/Oa3O7Jw7apXSvZ70vaNc6k3axgf88Zdf5xvP5LcVwoZfvvjxuocH5ifxq//KrtOSmz/Tb940SCt3HH39hNt7vZN6uOZbafpVHrLtX7pjzsf14l3+Oye8dLfdTd3WtJdMjiuppRUq83FTew3t/nEzQFnSC1W9nGsLnStEMSFVN4XR0dnMCmfUE2/fDmDWyaNeyU6l2q8bK9fH7n06/sTu8Wdbw+IJ6F17t83soV4mRGlyIpDrzsYPMcPwnxg43HoBp3vZe+GuJPYjT2+96cBtX4BVrh99jCDN3M8XSmo1v0Xt+IeBYIloj/bZU9RCv49hIboPcyPVFf7aVtG9uoKf44QxH5p2kluMA2GMAVzA/TrI37aV6D/R5aEPBykxClccebc3bTslaF5QP0jaSryAT7aQWoYNkzVLT7Fcd5nJ6wP0wueSxna+ArHlTj/O5H1Y+kvllmxmMZRLgs55zM99vpKVxl04Rm5YNp/XCYG9jfc6UgIE8681dQYanx1KyUvjGf/Xf5/aSgGg+Uzd/dYgqqccY56TDNtv28NOj7bSbHiVLnY5NuPCbDNdfldJe5TXMVFYkfxCI0Ou1bemD/S43dg9ne47JT4/JKat3XTDtWygGQU4NdHdR2ia33dU9Sc5kcmGeQsTYBEplZPIPrNHV1yayosgra8Vwd21HZ8yxG6p0juiUUWvkQbWEHB366dcroSv7Vwn08v8vndz7jv8Kmuc78Lp+Z118i1PucfgXy+jlu6ymfyF8Np/2vezmifsFz26bVdp+TzAKZuZDnvximKynzRikNUWH4J1QkfmG3+7U+vQwfW+IX7yDdPX6B7t34DJH6xTyJmpYli4bP43o2j8v4PGq/uM8E2B+yTG5j5CFz2Sajw/9+ZOb4OSl4Hy8L+23ek9cOaWaskU22uymLfzKb12B/z4nClleoiJ1XxnlwzO78Ifd169/U/sYustk+97d09/ygccxg+/vs9Wz/Wsaee2gFkfv9PfHedM6PYr2wZXD6/FR/n3aw/7lI3MuJe9xjesumEqptXEEN68opaFov3u/vQOd1veX38RoZazlXQY0i6MQDLB10SAWduKv9dGiXjNQHKqkx5xFvNu1zvbRtTx9F2atg5UPsMtQLOd4xIwsrGJwr/jfkYvn8zqdfbsvnV4qsNc/ZanL9sgPI0bwNqjHyF8exPgTVfLn6CV2Isf8D5fR9h19haquMG6TIxUm6+ZmCjOyVGP0XP5Dorg/SWDe7YRAZnUEqsP76XlpD9zr8ku8NuwHh2WpDF2jsfKosTpk1wN+r/yDP57F9O91+g28YbFnW/NDTr/rTAvaHLJPbmBcyO00/lvvejywcPycFz+NlvN9OBXNpIV8daYhc4tci5VRtugaroGoeVGN/m/RsEezvObCK7hUBsAui5UJBIHnnLAivEPt6PJuLK22SgXLjh55RFVTj2P7+ZftuY393zIJLyPn+zhjvtSxDCmN9xhZfELDLst0ugmq8CeiMCKpx2P+cqXs1/sPEHnaPayoXdIvOdp1i96onJu9HiRmpn7pOjqQZV5g4CKzlmkq1j/VRl23b9X46JAM6tqn6uXB1mJ2ymEAxLRIDPLoxIgJd9MDcRKAoneVzaxZpx+98+mW3fJk4d4F6xMkqeec3TlIj1NOd4mAs12+075PUUXmeIdP+SvJjb1OKVHn+Kz97X8uq+OvChu00T/uMeexv5s9YRUV7DyemIdLmiQo3JsZJPLZPWkCA/yLfeZw3RS4Rqdydx/lrlbZtN8xGWYV43xHxPuPBe2ZtXmmXNs9/cTHeY/956u/NljRmlY5fTCsesftceRPETu7nbfczJq359In/ssk/27HJtNPyaRzms9bp/b6FqEAEE5yafbEbBhEQsCGDC76bqFX/kGaxaY+d0mo/2dzYCKopi0Mz6vE0AhepYH+YyfsDY9rG2HG+hd1ENqjjvqGwkh/LtWagmexHJvJG3/FznKQxXqb7bdp4xsJa9n0lvjv+XfOey0Kpvr90vveV+jTqjGsudl1xUBs3/rDpNS0QHRHBM9M1pry2iLC/ucL+njCV9nd5XhmP9dLY79mFqE3Tx+QAFrsW/LFRS3HsuFMNwkHj8yhA94bdrpQnYH+PH5v045UH543Ae8H3aoxzb1x2m4DifDvV9z/2eetlQPGYS4dxV1MlPbDzhHWaW1PcD/v53uPrJf3phUznGPvHkUabafs6nvFWYubp8fmrLbtFNz+Tb0lh8P0BdoSYwLhJGhBYy7FQ8D7xv2tgRAV0lj84YbXW/Ag9Ui6aStJnw/FlUb9ieFq+iQqQ+WS3fJlxyFpjJ4cG8Utxqmy1RADuwvups9Xi9TQsxlPVV5O/8oubEd40oH0/Fa0Jmy44Cpa1sBsw7bDML9ostTccTXrdtfuogacXLzcyK0XtP/Z9NG+1DNvML4B07GTFThid++rE+/S1GwyUU/3mDTYXL+w7l1ma4c3JJ/dQ45Pi16/oydNJ3706UdhmaKoA9qVPbWrs+ZnPycGbNTvNZ+s+hxO3X6myV9i2bjRpsWSKMca+FKOvIn6OBPLifOhVuisu9q/Tf4lf+GUAzSplMEAFLtzrtHmH/WFG7g9W1T+komVhKvyevl3Km1p9n8lgPzJRAeR0s8nSGC+z/TZdFbSD7UetvBmQ6VTIvsvldXSQ191x+P78fO/maaRrmG7wWIh2jWlcm47QDbaT2X809vdsm9D9PX5eYeePGF+zYbq3WvxFsgmYq309fu6yZ3we399cfumZgP2dvVlme6d7jfkufXWZ/WfJuitsMTpBGDuezWbkON9O2f1P1ZVzCyimslCeJ6zTXF7pUNM7g/XJ77HL0p0eDwA308HN1vNYav6OZ2z52PxZp6dq1TU8IAekorIs8zBugsBaji0KGgfOWNQlMKIys9gBeIFrlDdL1EEyNkLXxIBUjF9lt6gmn/FU4BJaIHcC9+WTO0C6y5dqPp1+sWWP9A7kTsuXBfGstUSKdW0Dr+XmIVstvn6/oJspAnDcePd2Gmp5NvE4zk+vxoWVK3kBRt/7iVFbZyhCo/t3y8/ZTaP8AoQxXURd76Tb8Wm1GxchvOZGfJj2SFXTJ+fYQV+02edFUk/Eswjrl1uGWZvK8BRwdsKIxngK+Amt0OoJauNpyEzyxRCnsjSLqf45c0BVbGNOzXpdMjRVgN522/Q9nxNs5VqtFuMZ2hmfzzbaydaXuKjLZkFSp4AVrwvFMzJlL4d6Vpli/JIfoFm77TIw3TsTKGhoMC7OrZ/rEFgzMoTc99PxmNgysgT7w4zbH+TNqr4v8O1ufMiyXckm/aZ9JoP9yCRlANlBGuNlst+mK9QYlvVj+XaW+O74dia+v1ixfcDKz/d+7pT2+bK8Bttv9HHjD9smScMyI0Xt0yX0/Uq+7w3Qezf4axvY37Nrgs9/KsgsstFkhlZhpZ6dmtxxgWoamnJf9mIC9vd4EM7Hj7fGOVXLustZE1Ccb6fs/rdQBoxsA4pesO9gcx07T7Dv+lhi3fDpCWw7SGrKmNH65AGtdKe3VgTh+Hoxj2OUYuJBxTY5zFrr3M/xrJYHlMWJkY2nT28PO6+xc6b34J7KspyguEkaEFjLKRUYGaEbThcvgvw1Medk+qUsZuuUZRbebA1UyV9l2d+il87YFOJPtXzp8jaffqW/fJm4RR0v8QMUO8A2VIiTm9dstXgtFc8BUDPThZULlekmMtDe2E1Dew/T2HW1xgdp7PVX3S9aMri4mSiJX+jUwdg8zDb9mN3M7GQXPtt28RRw/UKE11UweqZxPKizccXf2Ylsi/jVpiTRs+tLTsU2++m8+ExrLRx5E+T0q1km8zlh2PLHU+p5LcZ+0zoYZMtg1Dh0aoqQvvh2vWa/+QZ7t8rIjNEY296TL6LVL/l+rKJZoj6N3jTFramct6Ysqo5MtmB/mHn7g4nIMovRV79nJwct4GuX8eV/PzJTn5NOLSTO+3iZ7Lf+RfsuWJoI8Zqt7PvbZbkRESbne+d1Ywe7IkYmC286IzMxIq+7FH7OZD9i42J/103G+Y+fM1Q2mszQ0puDJgXbQ7I3YO810dyCX7nf39l7ZSCQlrWYj03q4VIGZTxyQVyvGj8Y57YXUJxvp+b+pwKKGeEBso0d1HEusW749Iz1wr4ia0+sma7PNKcXD5qy9WIeR9Udt24PnM/jmbr/5duhrFenDIqa7CrInI5iWrhQPs0TCKxNY8F1G5ICSCL9kv2NB5DS6WEyGusT0fNtOSjQ6Hs+nX6xZY90g2O5XD7etXQ3P6gtr6Mj6uSWMlstU/IiKVXzHEbdtI8dd+9VyfEiSv7CmM8dF9hlVOrDrjnUmRlUN0xlJVS7soZ2bG2mIweaxXZq9KbmfFA/+6KRWcB/tdmx1UjBFycv002Y2dmL/GQkb34UlY7u8qtZJvM5IeJdtTvVYmTOfWqsryx1VuIcjOKBgHa6zQsz227v6pf89uTsS/lw2k9Uttr4G/9g05TErkZaOk1ZvN/wpIL9YYbtD/EsEGO7LVzPM5PZucF0EWt/zvC/H+nUTXuatZAYY/petn3/+60f8aZTfHtu9FBTjZuE42CCvHF+YC7VirIX8kZZZWXYwP6eJRP+vcsm3dp5xSjYrzUHtRwT4vtPPBjnzEvwy/t+q0vvOOF8bJLczqvXe0WnDjzYOFtlmWe1CWgCzrczbf9TeCDzlO16c/rOOf/r09/0UkkK/vldn/EMQC+JJakNRr+Qz/ILAms5pX6JSHVQSb+XJ794eilP93QLIEWOJQJUO2XqafCzYUv0XJf9g6aX+fQr/eXL3Nlu2cOpOEFl56DizusNu54xY3+RZNtzlMZoypa9m/58EuInNV5gc98Gat1cSeHlPFWZ/3rnRT8dEj3bFovxeDflKQO+8mRkqoUja/+5NVHObD4ngDqhBpybb8eLcmdFYrseVTfW+2Xm5dAFutv9rvPNg11zOE8S2Wp3LTfwqtlJUo00T9mefotAZx/2hyyZ8P1BZ2xPovZmlG93MuCram2aanJmsB+ZpBNA1qWx7fveb326avRczpuvhNfxmmrye2M3QI6Btkn93uWNM5t2K2/C46F5E/b3LJno793uvGJpDup43ebhmjF1Zpvfc1Y6xwl1bOK9l8pjk/Xhmn2mOmEIG+ftPOwFFPtflvjc/+KBm2x1aOfRRK5PtYyieal+zuK12mSrsaTAsM/1qbLjotFh8f90hcBajqkocVLEV1c2V9bi8FZLy6voSb19tvHg6aV6umcqqvkALQ/b1H5IpDC7L5+MbjssXzbm0y/35cuieJ25ichWY+RNRuosstQXMu6/PKqLm8m/6c86XkOAn9TE4g+IOgI8q3GnrHugUqvdxDvE4DydnFU6fiLV26jT6NLcOgvzOf3I7VovgHy9k+7aFCy28tuERRU+5hfqRZYmKfNEwM2Gl3oycl9Ouwh0tmF/mBaMrMrk4K/xA4q18L///cjEb7kANZ6Hbd/vfpuRq710aBe7ZmHbVttJtq3FRijKboBUoE30DirfmhfUjTPjdqMsYH+fumzPKzbNQf1ct8U7OHBpDZHGfmuS1nFCXbumbpXhRDUHZRsO3X09z1pcYP+bfJPR8d5Er894M1Gjw4F4YIzXauODL51xzkqbZFlpqpsDCKzlmIoGu6WXxg9+Hn5BnHj91CWyuiyFMCWVOuxp+XzWCsst9+WbXLL2no+DunGT4SGLTN20O17IpAqc2dx4TQvq15oRo6DnrlOijgDPahz0mtnIT5AiM4CdGPk2FlD1LtwZ+5SqTSC7OWcn2Pdsg+5ZmM+JoC5Q2LrgFweuj10udX+8csheMZrDBGjWer2Is5mvJiyqZ8QUCgLmI4zKGnDuxVDVfpnsptbYH7JqgveHxPlAZlWajtdGJqXY7q03qRnsRyZeAsh20hjPX9OzLGHb1tkutq3t6qBt/DsThZjZ7C+vM2/j2fzefd3ssRtntu/x0he29ZLisL9n1STt79bzirHf8gxVeV1nuu5L0Xu1JJqRs/9dOziYgP3dd7DezuVu+jLNWc0t7H9Z5Xf/iydElFODh3WXuclan/wemN/l6WSnBC+a66cJGR7PeM3P7Ml2jffMIbCWa+oXQnZQS+qNQ6igRn7wY1L+gjhJBrtOx3uySVqGdJbPrVDuJHJdvkmlMgJdClU6MG4yUv8aqX7ld75pT5HRpi5upit+QWGbOVlCC+Qze+oEOUBt7MR0Vm5jvJ5gyh5r5T4lgtWyZ9yUHXj4nk+LVDdrLj1Hcao79yTxrrFznBkqOWavyOYw5l/tdeqGI71fwdXNhmN9J9lDr6ln3ZRB6xDN3iuz4PKlmQr2B7Mpsj8Y2HYW5Nu9lp1xXR3Xk2sycf73I7PUAWR7jtNP4m+/zURopUs2Gi/E/Lr80VG/icjq957+dQHHC2BvYzc7nn7Exf5uNmXOfw7Xf6LpN+8Js0Zc15mbfatOdsI0y6H33IKGw0bPmUOv0l2X85H3/dYsneNEokSJ/x0+3gtqvtYHxv5nNuH7X6KzCV6rznHcsgpqXpnFwFu21qcXK3mvoCR6qBU/CsUfyZ0SxPlcn6ouqd7U2KQsnbJYqlON7Lb0ywYE1nJOZUTxNsy89kZJ4mKMt2E+INMt3YoATrpb1CEvEsPrrVld7AJS9P4xXZdvcpl/PfJK3bCbL5AKqlclNd1J+Su/ylgwXYDZWNZAs6u1aZWuotktTZ5uuvKa+JVPv4GSPdYe2ED1/Jc8B7Vbje0+ckwVElW9w/L9JFXX4zIdn108NFbxVOcRuvC+3UlW43M+E1TPxPyXOe1z2D5sqrugva9Vb+ZUVkLNW5tl99t21D5WTPX77GoQlVBtI5vf49nplt15u5bNYdi3Ey/ibJIikGwnnq3m0qOYuKFhTNkADtMqDVFhw3aa176fZom/v0q3c9BTmS/YH6bk/qDcy29cbYJPBZWP2N5g+t+PdKkCyM5Snp/ifOy3mSiroS2b6+jg8WajuSf7vnUhfu0jbmzZUpvqyWTje1fNtYwse3NdHF7sOos3eNjfp+D+roLMNvuCLNhf8D37urmqB/iCNT+hIu16jsT13GFZ0iBGd3/jkq3GeN9vdekdJ4xppB+80/mbzwmE/W/S97944oU+rvgLJ5dzXx3Vb3YJvKUr4/XpndGcspgWpnWP6XN9qoAc//4OsL9p46j1yLdbTzx0qjFZ7nlsdd3X8nnODd9O3jkXLQrRtWv+D4xTRS3b6Vt5AUk7sQFq22Xfk4cfoUbjAMNrl6XT82ftVqPHEV7cP7nIJTtw8Z2abch2n+tn+fzOJ4+wd8qLVlc8TfXFRBZgJsuXoN43IroL9t4Jgd/x2AU6LwIZ66OdaTQR4L8s2tV1Gjv+rJb5wjNi+M07L0xt3xuS+hzzeDr1GfKlhfN4E8PuO1fbnddhtvg23UfUuq48eXtS26dl++Pin2nzN51p2im+e9/zaeH4OdZ5ddn/+L7THdzA1rn9du46rxybX96rUWade6TYrqu303zevJIHrPZabhDU31IYfyPRg25hyyviV3x9WLJVVNTeQoX6NEubaN5umenmYPzyqzTa7n4Tkw7sDzNxf0hso5z9OYA/t+4vfvcj93NCnN3+ZyL3maT5suFjv80ULzDduF7WwnHisK1m/L2X1bCbEN7DuB22jW+U11su+16cw3t870fY3yd3f1fnFZ49bfODTOLakBf9357UBNLp2tFgP46Z1/02k+NEimOTJ9n4DHc4306X/S9xf2hvhC1fh7Z8qe/31LxY7zf9rU//03M/lxh4Z4IXXr+QVPfc1/p0mx57f+Szcgo7fH86Ne1U29VkQMbaBDn7YgftPDbANlA5QBihKDto7MxiUC13VISap8SuSIrqG8vHe8gysvMMso32NFi+ySMzHsUvGN5/URjv/lsavaxvbDEae6Pdkr6f+lf+1L/oDdKXe3fTXdO02PSH2MXK/skNqmVqsMtmn+UnCln74KzdOuEnDXHSZydAmwsX/pmiUOjyOjri8n3GU6aZVGn4vubThvick4npCvxzLlp68Dl3ynZ6bTyVnJ2wXbsRZ9Pg9Yd6LskaDQo7bqhjhdvJ1JsU2/X5f6C7opZMcvF11YTFM3ZDr5rGjLresNvUr5H1ZJIMxYyAGtt/bmcxqJYp7A/MlNwfNGw7dWzClVQn0+9+JMdLJVV2mY+OCybS4Dmj44Lk6x7jRoRvb043pBl/76JHUl7HzW66F7JyveVrP8L+Pvn7e4o6ZYmC/faZYePd2+n28VdpTDQLldg5iV8/3m5JFVRjPO+3mRwnUl+7pqQ6YcjT+sDY/5i82f/Y/aHtsZ59zqU+Nm09qJaZbK1Pz65+Qt1sfbgJBsqpfnNyM2Jf61Oeu/g4CYn3d7l8fwmyxFQsP1vCIWNtEsSjvCl+NQAw+M12AwAAAAAAAFDkvSW5ZSWWUO1WngVIydluk8TIBM3f+2FkrE2Cwa6IKA4pfjXQ24kD2Lol6yPw9uzZqMEBAAAAAAAAM46sU+aeleieBTjReGKSEeQ7nbdJJshYmywr14qUXXMDhkQENmXbZZOBRE0NmL7UNsPTnnlKsBwMAAAAAAAAkFK83tkIRY6dpq5zt0wBNt4Jz/cbwlQv6qdPfpxhqrT2Q8baZDl3yqadMYALsc0YPftQtnqfAQAAAAAAgJnhai9185p7VEzhzRvo4PFW6tQeB3lvpzyoxmu87cmPZA5elz7fS2ghYw0AAAAAAAAAYIYwergup0Cg2NSKTvUG+p4lkw3cIbAGAAAAAAAAAADgA5qCAgAAAAAAAAAA+IDAGgAAAAAAAAAAgA8IrAEAAAAAAAAAAPiAwBoAAAAAAAAAAIAPCKwBAAAAAAAAAAD4gMAaAAAAAAAAAACADwisAQAAAAAAAAAA+IDAGgA4K6uhIwfWUq18CQAAZqHGZjqytUK+AgAAAICZ5p7HVtd9LZ/n3PDtW/JZwqJFIbp2bVC+AoC8sXItHdlcTsHYALW9dIrOXpXDpxIeGNxXSUH5Mi7WRzt39RKOPJAV2M5mNB5YO7iumOjSGWp6sV8OBQAAAICZAoG1CRRaWUON68spHGAX4MIIRU5GqKurP6s3XrVbW6l1uXzhaIR69nRQRzxYUkE7jtdRmD2LnjxB27qSvyt185D4e2IcryLH2ujQOfli5Vrq3FwuXzizzo/b8kVjIxR7/TR1nbtls05LqPnABqoPyJdO3G6GtRtop/VkJ/m7Z+Nf6qPu7t7kgJXP9aLYTis2QN3pBMfiyzlAbRvZeHKwHb/b9YTsDxkEPOI3yzbctzNwJ/dDylXQKbGfm443SdT7rMdCH6ZgYC0rxwmISz4/AgAAAMBMgaagE6R2K7vo3lxpuokhKqbwujo6mGdN7YLrVkzZpn9Btn7DmzewdVpDITksm0KPlMdvnoOVD3mYBrt5t/3u2fjLK6l1XzPtWCkHZIG4ubObVqCcTatVNFfyNM/P8SABDzi4B9X8btcTtj9c7aVtG9uoKf44QxH5p0zkejuDTNyi9/pGxLNAsET8b6vsIVrBg+yxAXov00BSjrazXMnOcQJ0g10d1HaJrcN1T1JzmRwIAAAAADMCMtYmQCLzhWfknKauLpnlUlZBO56rYzc37HnOMhu8ZmWYs8/sfnX39ot8GlkgKjMrzWVXGWvJ2SglFFr5EG1hN4z2GWWZZqjI8amPevrKqX4dpfgcNT3+nH33x/QMpxKqbVxBDevKKWhtPuRzvSQy3YxpHWLTUozsFH4jnXrZvWZe+N2uJ3d/kNu5h893Xg+ptjNwl9iPcvMdMyqDzO17VvtLTprved/OJlyWjhNgJ4+/dwAAAADIGWSs5VwFNYogAg8EddAhFUTgrvbToV0ysyFQSY1ZzFzy7dKAmJ+pmbXG1u25Xtp2bEC8Cgbniv+zRma4RPs+oY73ByhKxbTiEZeMmJUrZFBtgNrYTSq/gU3caN2is12naNueE1m7qa+t4jfLPNBjvlnm+Ho5tOsE7Ux5syy3V3ZjeNQ1WOR3u55i+4MtuZ3t6WPbANvOPGUuQsJcWij2ixy6+gldiLH/A+X0fYfsIbW/RC7OrJpY2TlOgL1+6jo5kufHLwAAAADINgTWcm3lg0YWWKyPumxr/fTTIRkIClflQ69inxo3BlRODY0uQaN8dmNEBDzogbnZDXgsLBYZSrEouxm9Okz8vt05qFJCzevljfsxl5pFV92CV9l2iwZT3SzL7ZUHD12zLfxu1z7H41mKncd5E1G2Xrc2s+f8tWpGazdsAshtgALFtEgMSODZbnxe4k3CyirEPB4R82g8nJrb8ayhHQcS7+Of49w0j2d/sffIJqkhnvV3QK0LPpyvjxT7sd288ea4Ls3Z0l6+lWvZZ6q/1RnbQKCSDmrvjz/YeIrxvbem+E7lOhDbh6KagzoFvyuoWtRpHKDzTjXYHNZLc6r1mQ6eWcc/27FJsVo2bV1b+fj+3LkfJ9LaPjNcvkz2I/7ZIbHdafuD27wqGa7PQfGjS76czwEAAABgIiCwlmOh4H3if9dAhQoELX9w8rPEHphL1BWZwllrbJ2rOmifDbsHh9JkZHqoG/F+On+J/eeUEaPqN7nduGfZ2YsyU49/bz5vqo1lHKEL77sH/Pxu15ntD/dRA29CuNzIeBM12dbXsJtgy7DNeoBl8ongwL46MY+qPh/Hn5vXgRFkMGpfyUECG295HR10C64EiqlxazMdZNMx1c2SteD0YJXOcd5UrS0PwXWvyxf0kaV2ttvICuTfs2MwRO1rlz411QNUAQ7b4LcK8FrGMbDvga1Lp/VSz9bnhAVvU/Dz/fk/TmSwfWaB9/2IKeMB5g1sXtm5wFRHzn1es7E/xLMl8+F8DgAAAAATAoG1HFsUNC7qRZaTE5X5QvfRghzemHgnm7NMVNaaU+YKe6R3A8vrlq2lLaqpYVabeMkMF+1G3LhBdciIkdlt9jfuHqW7Xs6dEsWz+ffGbwI7086uKaEFD/D/v6CbKTLb/G7Xme0PbJ2K2k+8OPwJ6uFvYuuofrllGFv+6okIfMSz70bomhhgVUwLG9Ya9eRivDnwCa24/Qna2W3ePkONT2r1+LT37jkjl6uY6vc5BQ3LKby8WPQ02ybWhTGNNrEfM8vrkreZlXLeRK27M7QzPm9ttPOYDEq5FmJPY/nYtpn4m2zuy+tQxYdpD71p9NVe6hYBbOemdbUNsqMNy/p0zSiUAV7bYwRvws3Xpc0yqfWZF8Fbv9+fz+NEZttnJtLbj/ixesc+HmBmT9n7e/R5Fd+h0Yx/4ULj3XEZ7w+KypbMl/M5AAAAAOQaAms5pQIVI3TjhhjgYJhuiBuT/DE4BbLWwpvNwabO4xuolXcGwP4WvXSGzB0b6PgNoHVc+XDI7FFBFNON+LlPjXVkkxGjbtwn2tkX2U2guHFkZHYNb/60ozFF8ydB1r5yDBQpfrfrzPcHXhfKqP2U6PlRH3bzMzEox2QTM1EA3j37Lry8XHRu0LSLNwfWg4mW5nZlNTIgbBSNN9W+utpPHbsSQUOnYLfoROHFXq3ZMa/j18G2BxkMMjVNK9GaKvNad/2mZRg8d0rWKnSvI+h5+TIQz1qzbVonA94xu549ZVZpUqC1hL5fyde1QzYpW/ade9pom80y8fVpBKUmO2iS2feX9nEiC9tnJtLZzkKN4Xhz853s/R2mOnKJ2pbWjm+ysT+Y2QTvAAAAAGBaQmANHExg1ppT5gp7OAfH7EXZZ/GMhm1Z7uXP3AxUSdEcNFM+18sgv3Fk79l5rI8i4ma3mMLrjOZPKett5Tm7TDd92LWoEUTKpuA6HnTQA7CyiRn7Gw/guvYImurvSjzDMeJQNP4Wdbwum/DZ1vVzbr6rmkSaag6q5pNsG7Ovdce4BI7jvC5fJuJN68LJ2UIy4O0U3FTNHk1BOYemo7p4sKashGp5TTFec0vW6uI9Ek960CQL319ax4mMt88Med7OVNB0hHpecumV01rbMlv7gzQY/UI+AwAAAICZAIG1nFIZNKluwiaglzwf8j1rLXIsEWhSWTnBz4YtGQ12VNNBm4dtQE4VOi+nVlOAJXGTbc1iiN9YZbsDhTQYPfyxZeJNtS7x9WPU28q8PpTf7Xpq7w863kyQNzFLFcCNRoflM3fx2nNu71e152yaNnqij6cCJS7NjeOdDLjwunyZUUEb636msowGqNsp6CKDIaY6f7IGo1tT8XiB/n0bqJXXFOM1t0y1uiZZlr4/zstxYkK2TxfetzN17EjdnN0ki+sTAAAAAGYeBNZyTGXQBIIumUJlc8mII6R5M5Bz5qy1fP4VXgUBbbNaMqVqablIymLI4U1m2nhTrRe1JoFuheA98rtdT8X9QTRBswRgeTNBcxMzyKlzF0RTQ1OQ30PmWaI5qLXOn0tzZF5rSxXojw2Iels8C3anrO1lNAWdhnJwnJipJqsUAAAAAABMDgTWckwFo9yaj8R7scyk0H2OxLPWctG8J6tUELCY6p/L7g2h6inTPstNFdG3NAdVzdcmoimtR/EmgY5kbTMPwUC/2/VU3x9yLRicK5/ZUFk1KWvgWdiNpwK/l87YbNOWxy6XJnWZSCvorGrqJeqlGdsJ2y+TitebmTsZcavJxlXQDlE7j30uL3q/65Sot8WzYAdTZsJOoBx+f27HiZxsnzmRZg28nKzPVLUkAQAAAGC6QGAt11RTJMde7SqoURSFdm+aNHlkwIrPf5UclKcGu07LIJdzD4LpS3Ujrm74rc3UEsX1XXuSK6tIs+dOZ7VbU9RQUze+jlRTTQ83pX6363zZH/Ihk1ATD2Y4Zlwmiqs71ROzb17rMJ5b3bIJk17wQwX5jUwqWUvLcb/UyG1OBHNT1GSL459rm5FYQgvkM09SbWcuPZdyiZ44LTL4/vwcJ3xvn36XzzeVoZjiB5ayEvPfsro/qDpv+ZaBDgAAAAC5gsBazqlMKnZDuJn3uqZd0JdV0I4Dsm6LW9HkSRa/oV1u3Djlr0QB7aw1Y/JwI65uOq1ZWPFAH7/J28e/e73HPdmz5L46qt/sEnjzqqyGGpYbtZGOHFhLtezGUaf3Yhl53Tnjwpzd48bvdj3Z+4PqcZRnEmrfB5t2bcY31Bm42kvdKiDAtxU98MGDrwc2yACEUz0x/t1btjHX8RJ1y+Lbpmn5S6i2kW0zx9m2JIdkjzn4YVrvorMAp21PBfnL6fuNRjPQlAEyQXUyUkyNVbyJnnNHD3GBStpit7/y9SnqKqbidTtLvK91q/6+Emre2kwHZZA5mc/vz+9xwvf26Xf5/FO9yPLv8CBbRvMPF+q4u4EOmnqAzuL+4KmJMgAAAABMJ/c8trrua/k854ZvJ9/MLFoUomvXUt8aTXU8S6CV3dDYig1Q265TWbsIr92qiuq74U0bO7Qe3ipoBy/OHOujnTZNXUKNiZsgXnPKuYc2dsMkbrKsn2+D3eB0yps4V7x5jlYkXi0f77wguXdMNX27+Uxj3iT3aSly3SWtUy4xP/ZG2Gd3mD/b53rhN807npO1oRyIXixdC+67bwdWfrfrdMez+x7UNplqmJW+LZtY1qd6n/v2bs/fuKm3FbftKxojCtqO67y9O64LhX0XPS+dSho3k3UjsG31yL5KhwxK9v1vdDoeqn2Nc3ufmWk5U2zbruuEb5t9RK3rylMcE1w+x7rfuuzvfP12Bzewbd/+O/T1/fk+TvjZPpksLF/a25nr9sVlcX1aqM9ItX0AAAAAwPSBjLUJcpYXhT42IG5+E0bEDczOLAbVciXeOUDeS2StZd6bqeoNdIDOu94gJTJwkjO92PzsamPffR9FYkamloF/933Uxm7usnbzdZX37nfCZjvjQZcBUYA9VS+WiawgnrHjlDmU4He7nsz9YbCLF2g3sgzj+A3zxYno4dKNvq3IQYJcLxvtg2OGEbrwEh/XvE7VNuY0Hl8XqjdI8/oYEUX7+XfhFkTwjW2r29h0zfuEsZ32HLvg8v2rfY1JIyNIrxuWKstNbB/WbVPMl1Fz7axpRTnzvJ2dO2U7vbY9bSKYpDr8sOPr+/N9nPC5fWawfL7x7WvjCWrj6z+Nec18f5BN2XOWcQsAAAAA+QgZa5Mg/qs4u8A3ZS4A5IX0M/s4v9s19odM+PuupjIje3HmLC9MHdg2AQAAAGYmZKxNgnj21/I6OqLXnQHIC7eo4yVep4jXG/JeY8vvdo39ATwTNcLY/zEPnRYATCD+AwFvrh49eRpBNQAAAIAZBhlrk4UXUN5cbqkBk/ilO57F48mA51pDAJ6pbZQ32/LaPDPFdu3I73gz3szJWAutrKEtm426WahfBfkEWbcAAAAAMxsy1ibLuVOixhCv5QKQl8Q2KnvYM/WQ58Lvdo39AezwIvTHW6mTPQ7KoBqvkYWgGuQbvl0iqAYAAAAwMyFjDQBgyprmGWt6j5K8gPzrp+nQOR+9kAIAAAAAAOQIAmsAAAAAAAAAAAA+oCkoAAAAAAAAAACADwisAQAAAAAAAAAA+DDpgTU0AwUAAAAAAAAAgKkIGWsAAAAAAAAAAAA+ILAGAAAAAAAAAADgAwJrAAAAAAAAAAAAPiCwBgAAAAAAAAAA4AMCawAAAAAAAAAAAD7c89jquq/l85wbvn1LPssHIZq9dz/Nmh+h0ZbDNCaHplS9neZvDMsXCWPHn6XR8/KFB4VsmkXLAjR+uZ1ut78rhwIAAAAAAAAAwFQxgzPWSukb89l/Qzdp3BjgSUEgKJ/pIvRVGkE1Km2iWcsC4mnB/AVUIJ4BAAAAAAAAAMBUMnMDa6UyoJVmYG28ezsNtTwrH7vp7hAbmOZn0PVe+oqPRzEa+31veuMCAAAAAAAAAEBemLGBtYLwChFYG+vLpBmmv6w3okH6ci8PzG2n0e5BOQwAAAAAAAAAAKaSmRtYC/CmmDH6r6jx2pfqR6iQ/ZdZcC7Hympox4FW6jzeSkcaS+RAAAAAAAAAAADIVJ50XiA7Ehhqp6H2d6mguolmrX2GCnk2GDM+FKG7vzlMY9eN13GlTTRv9zNUcNkYL5lTBwXm4eNep2dR0HCY5q0hurt/O33p9l6HDg9o6FW6vbfTU7ZbQekqKlzfQPcuC8Rrso1ffpVG293Hr93aSq3L5QsaoZ49HdRxVb4EAAAAAAAAAADf8iNjrbSG7p1PNE4LaHbLYZq3MRHk4grmh6lo92GaXSoHKEGjTtp4zCmq5dRUUw6/fJMK9r7ifXoWRtZblMZTBeBsOzxg8+2pvlpI9CA6b3eL6PBA7+igYNkzNK899XwCAAAAAAAAAED25UdgTQbIeKBo1jKiseO76bbqIGB/O42JQv8BmrV+FX8SpwJW4zGHOmVOHRSo4Xx682Oep2e2iu5l80qX39cy4eyZOzxgj+MRY7jTfMcZmXVFogdRy3y27KbRNyJsudh8/rjJFHDTne3uo0jMeB49eRrZagAAAAAAAAAAWZIXgbV4RhdvGskL+p8fTATCrr9Lo7951Xg9XwbEpJR10hwy2lTHBelOz0QG55yz5ZwZy5u6vltBw09olsi4s5lPGqSx7sN0e387m1+X5qBXe+nQrjZq2thG27qcmuICAAAAAAAAAEC68iSwZgTI7joFiK7b9boZogIRdLrgWAutsNKoa2bNDPM3PYt40C7dXj1DVPg9Nn2X+Tasollr+HxGaNStDtv1d1PWggMAAAAAAAAAgOzLg8CaDJB5qFVmIuuyJddPU9TnWjPDfE7PwgjaReir88Zr75zqvlmo5qoempoCAAAAAAAAAMDEy4PAmupIwCWAZFcrzXPHBdbMMJ/TM1HZch4y26yqH6FC9t9Yn10vppqUywcAAAAAAAAAAJNp8gNrMtDkFkAqXP+MCDLpwahUHRcUyM9NCn55qI1mNz0zj1lnNrzWVwMAAAAAAAAAgPw26YG1lD17Vm+nIt77pqXZpVvHBQUNh2neRlVfzRxAi3dc4KDAYXomHoKBToz59tAMNWoE7QrW/NAIENopXeW6LEJZDe040Eqdx1vpSGOJHAgAAAAAAAAAAJnKg8AaDzQRFW58heY16IGiEBW2HKb5MkA2dvywTdPNAM1ar41TuoqK9rLPWROgscsxMci+4wIesNpvOz0VkLOfnlnB92qosFS+KGXjV4fkCyeqvluYZjUk3ltQvSrxOcr1XvpqiD8Js2Xazv6ufTafFl83u1uoSPscO7UNlRQ2FpmC656k5jLjOQAAAAAAAAAAZOaex1bXfS2f59zw7VvymRKi2Xv30yyK0TgFZNAp2fgbu+l2tyWjrXp7POhmFqO7+7fTWPgwzVtD4vmX8ewwNb0IjVGYCm2nF6Ox439Lo+fdevtcRUXtLcmZZEOv0m23HjwZkU0nevs0Gzv+LJumfKGUNtG83UazVDvjl1+l0Xb36dVubaXW5fIFjVDPng7quCpfAgAAAAAAAACAb5OcsaZqlXXT7b27afQyD7AliMDR/meTg2rc+cPi/QkxGnujnW63GIE0+yaXxvTGf/8PNJo0PfZcTG97iqAa9y5736s0JjLKDONDEbp7qtc1yMWNd/+t7XzftWt2er2TLU/yeiE+reO76XaKoBp3truPInJy0ZOnEVQDAAAAAAAAAMiSyc1YkxlZZJeRBgAAAAAAAAAAkMcmNWNNdSTg2HEBAAAAAAAAAABAnprcwJpLz54AAAAAAAAAAAD5bBIDa6qHTGsdNAAAAAAAAAAAgPw3iYE11XHBzZQF+AEAAAAAAAAAAPLN5HZeAAAAAAAAAAAAMEVNao01AAAAAAAAAACAqWrSA2uLFoXkMwAAAAAAAAAAgKkDGWsAAAAAAAAAAAA+ILAGAAAAAAAAAADgAwJrAAAAAAAAAAAAPiCwBgAAAAAAAAAA4AMCawAAAAAAAAAAAD4gsAYAAGZlNXTkwFqqlS8BAGByhRqb6cjWCvkKAAAA8sk9j62u+1o+z7nh27fks4RFi0J07dqgfAWTrno7zd8Yli8Sxo4/S6Pn5QsPClsOU9GyAI1fbqfb7e/Kobkz0dObGUqo+cAGqg/Il5fOUNOL/fIF2Fq5ljo3l8sXRJFjbXTonHwxVbBlOMKWIRgboLaXTtHZq3L4pCii5+sep01z7tDLb71JvxqVg31Rn0U0eOUi1X90Qw4HgLzi9zokS9cv+YoH1g6uK8a5GAAAIA8hYw1MCgJB+UwXoa/SuSgtbaJZy4xoTMH8BVQgnuWQz+kVNBym+e3bqVC+zioeYDne6vg4cqCZdjRWUEi+HdzxGwp9/e1YKf8gmf5+oAbr1S+eqcaDajRAbbvcg2pLSpfS0bon6IMfNMjHE3R06UJaIv/uxO94GStaQI/PMZ6GFi+gp42neYQH/tj6qFua+3UB2Rdmx/xfsOMPf2xCVlEm/F6HZOX6xaecXk9Ig10dtPPkCNHyOjrSWCKHAgAAQD5AYA1Mxru301DLs/Kxm+4OsYFDN2nc+LM313vpKz4exWjs973pjeuHr+mFqPB7gfSXLUuCgWIKr6ujg2hu50t4PYJn2VdCzc9VUpBGqGfPKTorh9p5uuYJ6qyqoEfnyEiVMIceXVxFnXXVjkErv+NlxehNevuO8XTwyk16zXgKAHnG73VIVq5ffJm46wkeXGu7xK4h1j1JzWVyIAAAAEw6BNbARSl9Yz77L+2LxUH6ci+/sN1Oo90T0czXz/T8LluWBcqpFRlW6WPr7fu4qciqUOOTotlv9ORp6nDLVFv6BP08wANjd+idK29T02+76bv88dZFeocHruYE6Oc2WVd+x8ueUfrVGWOaaAaq4ZlWP8MxKFOh+ffJZ5Bdfs/VE3mOn9jribMvnqEIFVP9c9hvAQAA8gUCa+Cs+hHRrGGsbxrWLJvQZeMZQG3UtFE+9pyhnpj8E4cgkQ/spqIh35tbjdCNKRO/qaBGXrsn1kdHu5JrYSYspJbFRrbZOxffpC0fjdLH4hUzeoO2nLlI7/DncyqopVQMlfyON5PMoW/riXwTBAGh7Fg0n+0/kH1+z9UTeY6f8GulfuriTUIDldRoKYvgqqyGdhwwSiagKSkAAEB2ofOCCVZQvZ2K1oapgP+6KcRo7I1uutv9rs0vnSGavXc/zZofodGWwzQmh8apQr1Dr9LtvZ3a+HK8oXYaan+XTbOJZq19hgrlNMeHInT3N+zzrhuvnfCaIfPWEN3dv52+dHuvQ8Hg5PlyVlC6igrXN9C9ywLxGmnjl1+l0Xab8X1NbxUV7W1g68CoxebOYX2nw1TEngfWOsxZQLyW1T7e7M6QXOS+hGobV1BD5X2i2agSjQ3QhdcvUMc5y76kT08WNg6trKHG9ZUUVovMxu156ZR9NlJZBTU3hKl+uZxWbIQir5+mG+tTd14QYtPesr6czaccwJY3eilCR7v7adBhmaMnT9C29x9KvGaffZR/diP7rHW8xpcxbJucXrxos8kAtW00miya/h7ro527eokfVczjJd5vqKAdx+soviWp5ctgPpO/99N0s+FJamDrlb83vm7Y+52OeiH2XTQ+F2bfm4fvndO3JbUMavuR8yi4dUYg51ssr1tgrbSaPqhiX/Sdfmo681EiOKZT74ldpO/2yshiOuOZ3mPuvOANHqBbsTjRlPQOz367SFuuW3s1SHRUYGfwyttU/1GKnhCKFtLzSxbT44E58ayQwTsx+vWF8/Sa66hFtKT0T+jg4tkUijd5vUODsSu0k60P07KzZe5ZHGDvk6/d6Oszi0JPsX3kvw3Qzr8x9hlbPKutWW7XH7Jt7OVhqt3EtuuHte36Q7Zdv+y0XbPt8Sm2Pf43djy7X9uuP2fb9Ztsu47YbHML2Hb9U7ldi2nK7Zp/zmptu2af0fa/2HZ9U76WQgvYfvRnbD/yMr2k5WPHzzA7fj7Bjp/3G4P5dHrYdDri0ymhZrYO6tk68ORzdlxyW8eesGPWL7RjlotIBzunROSLjJivJ/jrwoYf0qw17DrGeIPoNGiU/c107i1tonm7n6EC9jdjPKsU1zeS5+sQC+/j+bleyvx6Imn+2DVQ0Y+1z2TTHXW7TlPH/fgxP7Xara3Uuly+sLsuAQAAAN+QsTZh+IXYKzRvox5U4wJUuKaF5u1tsim6P0hfnuJXxmGa1WBJ+OcXrSKoxi6+rMGk0hq6l01jnBbQbHZBN29j4iKRK5gfpqLdh2l2isyQggC/wIvSeIqLWfuCwWz6nuqdsYt0Po+7W0QHBPo6KFj2DM1rT55PX9MrXcCW28tFMDMRzTkWqhtSTs9sYjeOW3kh/g3UyoMiWnCFCwbKqX7zBvcu9x94kJrZZxzcrAXVOD7uvubkuiziAr0uEVTjeA04Np14UM0Wu8k70Mqmw+dTDhLYsi2vo4NsWjtW2v8qHgyuoB0qGMRfs/c3bl1LB7VAEB9m7aSAi57sY7cqXDk15PhX90zmU2TV7WPfYzyoxsl1Y9v81/juD7LvQg+qcZ6+d+6BuSIwt+OA3H7kYMMIXXO4iaqt4kGFEbrwvktQjVkyZ7b4fzB60z44xv3xjhE8CCQ6CHh6gbGBeBpvzhx6SAww+/aSJ6hzdZW5Pht7/mjV4/RBzUI5IDt4s9UP2LQ2aUE1LsSbq65uoJ6lRXKIRdFCOlr3OHVW8WCZHi1jnxOoos4fPEHPW0b1FFTLotpNbL98ytJxyv3FtEg+5QGlHT9bS80L5ACrh8N05Bds+4oH1Tj2/GG2XbPxzDUj2TbNptfJ38+DYVqQiwvez7brZrZdpyr2/y22XS9g2/XP5OfIwQa2XZuCasY0D/6U7Ud+pvctdvzk4zdrQTWOj/tTdvzU18u3zJ8/LanriRi7EODXHe37qUgLqnEFy1qoyHqNEjQ6EhLj2fLWfNLrdYiV5/H8XC9l4XpCnz/R8QG7BjIF6vg8uM371U/oAs98X/4g6rQCAADkAQTWJsQqKmrnF008O62dbu9XxXXZY3+7UWB3/jM0q9p4t8n5fxB/L1jzQ9HUwMA+j/8SzH8J3WvzS6+8oOWBqVnLiMaO76bb2vTGRKH/AM1av4o/cbCK7mXj0uX3U2ZumQsGs8dxI+wxHkv127zxS3GR6NGTrRt9Plt20+gbEXZByubzx+ago6/pXe/UPputAz6MZ7jpn6MeHrPsfOOBj/Uqq4n7gm7GAx48sJH6Zs05mMPwIIweJDOxNqFk86IFjrwroeYDPAAkX9riwTmHAsvLy5OyLsJsmFW4KvkGOBgcpvOX5PPKh2wCVFmUwXy6ClTSFktQsHarEYRz4/q9c+y73/Kcw/fy2bBjNtGCB/j/+nZo76FvGlGgq3dcUrZG/0jGx8ymB0UQqYgeNOJxKcZTnQuo8XRz6NHAHBqM9dMLb8nabL99m164InsjCFTRUVMAPlFPTX80qfe7Ka2mTtFs1ciGi9eC4+NfjIl1GFpclRQg481dj4rAH3t6J0YvX3xbmzafVz7uHPr2N413C9fPa++RzWF5xl58mPbIUrbataEvKLC6jg7y3it/1kxb/hvf5u6jBvac92gpAkpsiCUBTKMH1CzuL6eGp/Tt2uPx7GG2XbulYbHP3fJnPFAmX+v+07xd124ygn5uXKfHA2iO47Pj5/9Mc1/Pqn469Jdt1OThkZ1sNUZeT9D3fmJkoPEf8/bvludLdp6+LN5FBQHzL2DqBzDH8zIPTvH/XQNr3q9DzNIYz8/1UsbXEyHjB1a+7NXbad6agMj6S1wbsvV6/B9SzPsteq9vhP1/Hy3wWEribHcfRWQZilS1NAEAACA9CKxNgMKWFirkQbD9vLj+u+ZfUK+/S1/+5lVx4VUQsAsRWLPWeDCKf16M7u63bz4Rz+gSF3psmucHExd2bHqjcno0X17Y2pEXvc6/Njszph+j/4oar50UNPyEZomLS5v5ZMs91n2YXWi2s/l1D3R5nV6cpwv6bOKZS0ZdE/EQGUnyT9ylT009MPKL3yiNUOTkGdppqc2m3yulCuZEjp2wHU9kNcmnocawOXB0iU1TTO8EtfEaLk5WrjBns8XHa6OdxwbY/Cts2Z0KLPMmLHv4sipGLTre41mcNq9xbNi1iwPG83RrzPjhdz4F473G96B/BrufW7cikWlQVkMN8SY6xnen1qdap4p7j6jFMnuQbT+mz2DPu52aC82lhXyc2AhdMwY4UAGyO/QffxQDHLC/28avUo3nTjTf7P1Ia4Y5Sq999GY8WPbogmxkrRXR84uNDduoBWduuvnx9fNUf5Hfmc6hxxeYI2tLli6mR/kT0ZT1PP3K1DyVzysb9623aUv6h9SsGvzdKdr2yzPU8yHbv+9n24sIVvH/i43mjh3suPE3yU0rzdh2zd/Hgzi/tGzXq7Xtmjn7T/J49hY7RvySvV8Ff9g8mI5ny9yOZ2o+2eew6e5Un/GX7Pk/adv1ArYfPSyfM+b3sv2oQ9uPnnAv/M7HtZtPkT0nntyijr9JzEfP52KggTcn1aYrHhk3A50c6npCZGi9sZuG+I9519WSsPP06/J6wsLIyHI5L6fMaGP8XoekMV7G10u+ridkth6toKKNQSOYx5vSxmeXrVc2H94U00Kvh76rvXRoF9sW2TnBtck/AAAApA2BtZyTv5wSb07wCs1vt3mI7DMXWtba7BZek4QH1ZzrhqgL2rtOAanrHi4A4xe96d4KhGS38xdS1HBbRbPW8Pm0acqqYxe27p/jdXoauWx50SkDrwdmrY/CLn63beygQ+8TLXpkLe040ExHeMFhHpCTbxEcgzn81+gTdEjV47raH8/wEgKJZl+LgnpmxgC1xWt/3aKzXafNnSxojKaDij4euyU4d4q6TdOz75whcpEt99VhtqVKsQF67yrRtahLQE85dyE+bzzAOBj9wniRA5nMZ+SYVsOGfa9HTcHKRKZB6BFz8zbeDPegCsSyB29uG6d9f/bY97GHbT/s+0/svez5lM5OuENv37TPdvv4ppFFRrO/mXmPokUL6HGRcdZP7U7HE3b85JllIXYcSUyviNYEjSy3ly841JDjRl0y9ibSzX7qeLmDmrRAEw8G7fybU/b1ziwiHWy7Vu+7ybbrtyzbtd5ckv1921+y7fEDdrz5Ljue/Ywdz37GtmveVFO+RYgHrJyw7fqX7HPYdE3btRYADH3Xsh81s/2IZ+bJx0FVR43Tmr9aRd9ix8/48rHj54fGU8FlvOnIuJ6QmVwuvW6bg1gqI8v5vFxYaXz7rtcYfq9D0hgv4+slP9cTKhg3P0Djx41gnh+5PO8BAABAehBYyzXZW1RmtKw10VTBrRivvKCl9GuS6IyL3gh9dd547Z3HbufVhWXaTTys0u/m3li2NDLccoQXvW+SRfZNRI0sdiO4r07UyeL1tsw1zFKLRc03x/ZBINUEUEqZsaSkHu+syihzZNNjpmNTRQsRWFLNYJjlYWrW76azKoP5tGG+EUpkGpgDnKm4N/2JHHPooCBjo/Tpl/x/S3PGJE69W6YaL0MOtdnS8k1ZU21OBXX+oIE+sH1UGZlpJmqZv6RP8yR2lloJNT/BA00D1MMDYw+H6ftOddVSGByybNf68UHURjMCabw+Gq97ZmSfpSfSkSqLju1HafXMaQkAamJDluPnkN3xcyZQ1xP8WsD+qFcQXpEcxJJ1y5zPy+pz3c/Dfq9DvI+X+fWSr+sJFfh7YzeNpn2NBQAAAPkIgbUcU80Mxo5rNTccHs6/Bodo9lp+8eaFDDS5BaxSNl1QvzZ7D1bFee12Pv6LcgbRPy7tbu6zE3hMT6I5oN58MMgDQkkBEl7zzKFGFpgMdkXYrRNXTCvYbjbJcVIfbIJ2nqSuhZYrn/zRaHZZNiepwFhC0TfJ2KxVkEkF5FKNJ7PFplRwauoKPfUk1d/Pjk2/PEUdvztNPZ8XU/2fuTeP9IZt15/Jp/x4JjoRkC/zCtuPUgTq8g9bn1oGntvDtWadZ6l/uLJt8pny/K4+1y3T3O91SDrjZXq95O96QgXjvor4/YnGEAreJ58BAADAZENgbYLY10/zplA1/zxuFMktXGvXg6gkA01uAavC9UbTU+dgVPpZYEra9c4ylP70PFxI55BRP02xdiTALpQtNc+iJ89Q255ErSxTXa9sS9nEULlFN+M3zozNeOamormSaOIaXG7tKdCDsrk00fFLp/VizigcoDb5fds/Tplq8mVumG7wdq4evv+P7xgRMnMzSLMlCwJGcCZ2k14TQ4heu2k0pPU03p079IkY4pHKMkt3PDuqZ9LYxeTOA6yPM3ZNPu06XkhTNjLvUllQQ1tWF1P0rdPUIYJLvF7YGYrcX0lbTJ0PeFO7zH67Dj1lOZ69xY5nv0zUPWvTm1hmgTmzjO1Heo2zpEe29yNNymatU4TKuHe8FrAPLKkfFJ2aYhak/FzO73VIGuNlfL3k53oi2z/u+f2BBgAAALIJgbUcG48ZYZSC79U4BsMKqtmFlnxuVdjyChWp5p/n36W7b7AbVKceRJlUF7RUvV18nmszCQ8Xm06MX689XDBGjYtec2+nFqWrnAOIkufpKerX58lytddcf8w2a02KDVB3Vz+dvcprCpVQaKW5wH3mtOaUQjk1NFbIG8ISqt36pLmDAo25qWc5tW5V47HbhpVrzfMpa5LlQuompzq+fDJowJvb+uoNNT3hzc3x79dtvQy+r3f4wNbngbVUW6YHOIzvfwf7frJPBUo99C4n64vxppIt5k4ApYXUInrUJHrnpna3l854V+wCVk7NSBOdDQyyY4pjbTOvVM+kgcU2vX66uUGnRexwDm1asdS51ltRkYc6cFkIzqUQeqBY1FTb9ju9yWM/HeI11+an7mk3/ATbPmUzylCYbddahwG8A4T37DLB2PDu37Hj2U15PAubOxrIhsEPLPvRz/h8WvYjNt0dT2V7P2L70H/Kp9z9ldQYtkzXNB9+TWyvoPGM+zR/hLPNYpMKGg7TvI1GuNX1GsPvdUga42V8veTresJvwNCqhL5fyZs+p5PBzM57vMzE8VY6ws7ZAAAAkD0IrOXaeflL5vxnaN7eJirUbioLSlfR7BZ+kbnfNlDGL0D5RZ1eh2O8u9s1a824oGV/3/gKzWvQA1MhKmTTmi8vaMeO2/coquPBwPj8lrLxq1PdbqlfYlUPpoaC6lWm5Rau99JXohv7MBXt3c7+rn02nxaf190tVKR9TrI0pme1rIFma8tjfBfs+5Gvc8kta81UgyvAbgzjBew30MHN2Q8EmQM6RMF1dbJo/gZqXe5Sr0jrPEBYrsYzCu0n5nOEel7KYW941vmwSF6+Dcb6tHYEkTOJHmHN64Xdqr2urRdrwJV/9/vkvIqH8f2H17kEYjNgBCiLacUjqW7+b1C76oWz6gk6ulQLFBUtpKN1sv5YUvH/G7RF9KaZ7ngJj1Y1UM/Shabxnq97nDaJeFyMfv1RNtqPjtKvrvD5nEObVvP5ZNMzBbmK6Oml1dTzg2p6Wg5RXvtYduDB67PVVdPzpfqIbHlL2XirH6fOGqcu/MzBuadNo7Ppmj4vM4ORU7TtZZteYsVwD/vr/Wz7/CnbLn9hdAhg2q7fTIxvqr3Gx4k3VWTbc3MOAts32X5k6miAzyfbjyzTDa9m+5HPenJOzl42B/l5xwmm6f5Z6oBlvnELkAkqiPX7XpsgUYBmrdeuQdg5tmgvuy5ZE6Cxy8axwFPnAmlfhxi8jJe166V0ridSluLwqOwhWsFn39KruBuREW8sskMpCgAAAPALgbWce5dGj8ufjuc/Y+oZdN7uFpq1LEDjl9vpruXX0ILq7eIClNjfzLXXEllryUEnGWgaitG46EW0hebFex/dT0VsWlzKgrlaMDA+v7vZ+Guds+4MgzT2e+OCuWDN/sRybmyhe5PuoAbpy3g39rzH1MT7xbTEenmVRl16IUtvelI8oMcu+jdq44jv4hm61yETMKvcstZcA0UjFLmU5SLavAfSY85ZX1HHeblFHbvOUMTx7xyb32OnE71i5oQ1687Cuq51sQHqMfXSmWWxEVNQT2f02ipfSGdfPEFtKb9fL8EvH859KurVBStT3/x//NGb9EKMB9fm0KOLH08U+V9dRY/yINedGL1g10zy+nl/4wl3aJCNGlpcZRrPCKrdoZffOh9vdpoxNp9NInjI55NNb7Wcnng8Tj9fHKAQ+3NSVtnoR1T/lgquBWhT1eOm8TqreFNXNq8fO7fb0oNzP9enu5pNt+pPkoJ5+cboTVO+4CLsePa5fJ6EHR8+zP7+d/Zlth+l/Fy2H303y/uR67IyU6430dRNFp0yvsb65EawTLsGYefYQtGj+bN0V5w3UpRw8Hsd4nm8LFwv+bmeyFJ9WdWTtOi12pccnUsAAABmKATWJsL5wzS0v53G2AWcTgSO2EXm7fZ3zc0oeFCN/1I69Kr4m5XKWktuRqmaGHTT7b3sYvAyu2A0/iDEp+carOLeZe97lc2vfMmMD0Xo7im7X6XNxrv/Vkw3IUZjbyQHDoXrnXS7JXk+iU+Ld+3f7tD9vSat6QmD9CVbN3dN4xjLx9fNRPXQlZS19pwqGs4DVtYAy4joQXTnng461G3OwMqKc6eoaU8fRWLaNHnQ6dgJ2va6W1PLfjq0q412HmPzZFqd2vyeM/eulwuJTgzs8YBVj2V9Rk6y+dt1ijpMvXRmV7TvNG3baJm2Wq9dduvlFpvXDrbezohxTN8z+27EPO9pcxg3U/3UxYOMgUraoprLunit901quhgTwa6EOzQYu0hNZ5yDXMZ4/fTOHX3EO/TOFffxeNBt55nupGkOxvrphbfepF9lubMDHjz87lsX6eWYrLmmsPlW82o7TR5c++3b9MIVh3Xz2xTzKoJzFy3rhy0nW/6XL/579oKHGeEdHrDtWg9efc626w62XZualnK8dps10MW27Q/ZtvxLdnz4pxwcz/h+9DLbj37J9iM2XdPnf872o7f4tNl+lDSvmTKWdWcHWyZLgC0qpvupx16X80XqJouOGW3smsfuvHy7xejR3BgvVQkHv9chXsfLxvVS+tcTKZufelJBjeuK2Wrtoy7LDzRuxLnSPKsAAACQJfc8trrua/k854ZvJ1/ILloUomvXMrnAgLjSJpq3+xmiN3Z7CJ4BAOhKqPnABqoP8F5sOzxnGi5Z+gR18vpovOB/b35X0VbzOnjlbarPStPRGSK8ljqbVQcFPLDGto8p16MmgGYKXy/Vbm2l1uXpHadNVrL9eXO5yJzOzQ81AAAAMw8y1qaRgvAK2cQAQTUASNct6niJZ1LyunBrqVYOTeXjj64YHRMEqqinRquBloce+qZoOwoZKaaFD8inAFPUVL1eCjU2U+tyouhJ/2UWQsH72L8jdOF9BNUAAACyBYG1aSRloWEAADey5l5U9UwqB7szOibgt6ehgFYD7QdPpNmzZhbxjg1KzT1w8s4Dfi7KJt2ht28iWw1gJpuK10s8qHaQNwG9dMZ/pllZDW0RnxHJcf1TAACAmQWBtWkjdaFhAICUzp2ibXtkDUCvvcZdPy9qg/GaZPlgyYLFovOARJCvQXQewA3GrmS9JhsATCVT93qJ1y9tetFPhwUlFGpcS0f2VVIwNkBtvj4DAAAAnCCwNm2kLjQMAOAJz1zbdYrOppPRMHqDftX7Jn33t93ykf1OBbz6+OZF0QOpqZEX73jg4ttUn+d14AAg16bm9dJgVwdt8x0Qm0uN68pFthvvuOesHAoAAADZgc4LAAAAAAAAAAAAfEDGGgAAAAAAAAAAgA8IrAEAAAAAAAAAAPiAwBoAAAAAAAAAAIAPCKwBAAAAAAAAAAD4gMAaAAAAAAAAAACADwisAQAAAAAAAAAA+IDAGgAAAAAAAAAAgA8IrAEAQHaU1dCRA2upVr4EAIDJFWpspiNbK+QrAAAAyIV7Hltd97V8nnPDt2/JZwmLFoXo2rVB+QpSKWw5TEXLAjR+uZ1ut78rh85A1dtp/sawfJEwdvxZGj0vX0wb91Pzs5uovpgoGnmdtvV+KIenQ33GMPX8/THqSN4VATKzci0d2VxOwdgAtb10is5elcNh5ipaSj2rKygkX8bd6aemMx/Rx/IlAOQOD6wdXMcuIC6doaYX++VQAAAAyCYE1qaS0iaat/sZKuDPh16l23s7aVz8ITcKGg7TvDVRGm05TGNyWL4w5i0gXymRvJzXjJU8Skd+VENB8eIP1PZ3/0hnxfN0TLfAWgk1H9hA9WITGKC2jacc10nt1lZqXS5feDJCPXs6qGNGBYa8r09bPFNtXyXbRn2MO01N1PFzSelSalkcoEfnzJFD7tA7V65Q+0c3XANXfsdLSwaBtSVLn6DOxWrezAbv3KGrVy5S+/VRBOfSVkTP1z1Omyi/g5uhp9bSltXlxnnv8wHq+V+nqOOm+BP4oIJr0ZMnaFsXflkDAADINjQFnUqu99JXQ/xJjMZ+35vToBq7DKPC77G77KGbOZ6OP+Pd22mo5Vn52E13+XrJ03nN2K2P6cKI8TQauYKgBVf2EK1QcdXYCF2TT5OV0IIH5FOvYgP03kzLtvK8Pu2UUPNzPKjGA5IIqhkm5vj5dM0T1FlVoQXHuDn06OIq6qyrpqflECu/46Vt9COq/203fTf+uEjvyD9lIsTm+9Gqx9m8LqUlchhMH6GnmumgCqpx95dT/U/RxDwTg10d1HaJKLjuSWoukwMBAAAgaxBYm1IG6cu9PJC0nUa7c53lV0rfmM/+mxLBqqk0r358Th2v/DU1/d1f+2wGOg0tLI7fdEX7PmF7hpO5tFAFjLz6bNjl86Ypz+szWajxSZHpFj15eoZl+bnJ/TGJZ3T9PMADYzzT7G1qUsGrty7SO3fY4DkB+rlN4MnveJNlkM1jIjDHH2yeL/Yb2+icCjq4tEi8D6aLCmpcXcz+H6GeX7ZR01+20c63+C9L5VSdXP0B0nD2xTMUoWKqf64mOYsUAAAAMoLAGtirfoQK2X9jfVOgjttUmlfIitqqcvmMKBZ1a9bST4c2spsz7bHzpEz/42J9tNPy95lYg8b7+rRiN8G8dg9bj0fRvCgh58ekhdQim0m+c/FN2vKR1iRy9AZtOSMzw+ZUUEupGCr5HS+fsHm+/hHVv2UE10LBBchaS8sc+raeqJhvFswl8VvIh5F408/BDwYoajyFjPRTFz//BSqpcaUc5EVZDe040Eqdx1vpSGOJHAgAAAA61FjLuRDN3rufZs1PUf9L1U+73E5DqlMChwL9XuurGTV+iO7u305fXmcDSldR0Y8bqHC+TOEZYvP0GzZP/G/E/rZX+5sry7LYzbtJqnUQosKWn9CsZQGjfhwzfvlVuvt6J40F+ToIJpbBRtJyZlGoZjMdDM+lyOm/pkOO8RZVv8y+/lmo4lFqrKqhMP8RXhim6MC/0NHffWiTGZToqMBONPIybev9XL6ycz+b3v+gLVXfoaD8jOhAL3W/z26XH/krai3Pfo21UFkFNT4XpnBAm+nYCEVeP02HzrlNqIRqG1dQQ2U5BdVmx8fri1BXl8xIUXgNr+f4+xxWjIl7jTRTzTUvxZzZ8u0wLR+bx5Ns2brm0o7jdST20KTPYeMk/U0u77pEE6foyTO0jS2rid30jvF16TY9bhLW58q11Lm5PO26PQXsWFS4voHutezzo+0ux7VSdpxYbz5O8GPY3VP/QF+etzuHyOPOkDousfEbfkiz1oS1abazab5rO82C6iaatXaFdkyMsfdfMI5LSceZDI6ffpRW0wdVbFputcrUe2IX6bu9N8zD0hzv6ZoG+nkgRi/89t/pwZoq2qQy3nhw7noRPZ80TIxmYyEd/UEVPZpGjTWesVb/0agcqpOfxb6XF357nl6TQzljXKKX33qTfsVHLVpIzy9ZTI+zeVSZOoNs+Xay5bPOg1F7jjeTlQPYMg3Grti+11qvjE+nZcXiRBPbOzwr8CJbH3bzL9nN250Y/foCWyaH0dJePvad9iwOUMhLQC3pe+dB2G6X71SugznJ34M/7Pj3C3ac+5Ad4142jnFG01Cinl+y41A266yF2fGrWf6oIKY3TLWbnqSGh1UG7whFP4zQUTYfSUeYBewY+lPeBJ6Jzys7Bj/FjsF6M9bPB6jtf52is5b5DrFpb3mCve9+OUBN65/YtKzLmMl8Wql6mGl0ZGCuUzoTa5ACAACkhoy1nBuksd/H2P9BdjNpDEnGbgB/zDsliLGbtkRgqiAQvzQzGfdYX60gwK6IKUrj7IKYB5/m724x3/jxpkrqYrl0ARV4uilkrM2bgmxc9t94zOnK26VZFA/Kte8XPZ3Gb5aZgmXPUNHuw1RUycMIxjI40Zcz2wY/6Re/lIerHo3fsCSp+B+yx85/tgTVeJDsr+jgk3pQjZtLwfL1dPAvNlNzVn/8NYJyB59MBNW4YHkNtf5oMzXcJwdkkSiIvI/dBFkDNOx1ePMG6jxg3+QkxHuQPL6BWnmQSd/s+Hjr6uigdTzeVNFTEIj7gm46XvSba65FLrrfWPDl60xaPj6PG+jIgbAR5GKi0WH5TCqTWRdx7GbxgFxeOYSLRc3Td5weW5du05us9Wlkuo3Qhfe9BtV4EP0wzWPHIlOAjOH7/Lz2wzTb5jhZUL2djZN8nKD5YZq1cT/Na7DZykpr6F523BHHJXWc0YJqXMGyFiqyG5dPb+MzlkAZm7Y6LlVbxsnk+OnDkjmzxf+D0ZvOwak/3jFusgML4jXT/I5nmE1/zgMoIoDG8ZpsS+n5GsuwqizWaMsCHoT6YLUR+NO/Nf7cvA54gKhB1p6TgwQ2XqCKOn/wBD3v1Op0zhxq4XXr2HRMdetkLbgPahbKAWaO88ab465uoB4PzVy9Lp+noJrFax8bgRr+PTtmBRYtoMf5Z8duZiGoxg3TDf7b0cMPippqRlCNHas+H6D3ctl5wcNhOvILdgyNB6s49vxhdvz8WYr6bt+aS6EF7Bj/Mza+HlQTRuiaab75+1rpYLMeVOPktH7aTDvCLhcGmcwnd/UTusAvSZcb6xcAAACyA4G1CTAe46GZAN0b1i97NdU/pFn8BvCNvzVlXJkL9LPH8YgxPJbyN0kmxG702H/8Jo7fJK4JiOyM2/vV5+2m0eP/kMiauN5Jt+PTajeG88y4+DDtYcmWUwFAx/niN538/6QbylXsJjXRy+lofN6epdtsWcfZOitcxv/mdiO6iu7l77n8fmYZIE5UxwHFFfR9h2vd2oe+w/4dpgufmDPJQjX1MvNsmCKnXxY10sTj71+nHtEacS7V/+hPLRe3iXpq+mNnxBK4sVH7lMp0M09vJ5teZGSuKdiWFWU1tIU3A3QTqKQt1qYjK9fSwc3Wmw8Ly3ihYJaignqRfnbDc0Mm8thRvag5CWqBqaTmk3rNMrb7Nx/gwTI5IG6Azp+TTzm+XvxMb9LWpwpSugUydUYGGQ+OsSWgseO7teMLOx69Yezzs37cZA6eiSCXERATxzBtnNtsHK5gzU+SA3Iy4E/f+4mRUcszdPfvTkzvsngXO35ZR2TzuZaHMI15VMckMT11XNpomV4Gx08/HvqmESW5esclE2r0j2R8LbPpQRmf8TueYQ6F5tyhl98y6py9LOqxVdCmgGUYWz9POv6IlEXsvPIo///OHfpEDLCaQ99eUm30LHonRi+8pddqe5uaPjbv/EuWVtEmsXp41p323rcuyuWaQ5tWOwUNA/RoYA4NxvrZdBLTeOGKGJH9uYqOWtdJqZw3UevuYqLWHXs0XYyJgFZocZVzMC+d5bt+XvubbO7Lswbjw7SHzFYTRj+iX/MgjEvT4KeX8F5f2TZgWZ/+3aL3/s2oqdb6i1YjqMZ7G/6bXiPgmzN6oMri/nJqeMol2MX+vuXP2DHeFCiT/lOv2VlCzT9zeF9cMYWbn6TmBfJlkgzmU2Drt4+v3/togcdODM5291GEbwcMamkCAADYQ2BtIkSNwFDyDRwnb+J4YClFhwRGACtG/+Wp2IjMEqMVVLQxaNzE8iZP8cDdII3ZNp9iHANh9oyMMZf5cshoK2xpEXWIiDchZTebevOq8fOHxU2s4DYfcl6ds+Uy9Tl1XPwD+38u1T/ysDFIV/IoNYiknX56T4+tsOFbwnPZE6Pp5aF+Leh260PqeOVlGVz7DjXUuF5le6Pmw2Z6g2x6h+LTyyIteGSuVXaC2k7KmjiXeFNHfcVU0I7NskkL8SaVZ2jnnkR9s53HBuTf2GZT+RDbOwy8RzP1Ht6zWRxvziKHJx4uPVPq8+wWELIGDWMD1LPnhPH5e85Qj7zJMFgCZIweuAquqxPF/flntOnLuueCNp/6euFGqOdYYnpyT5D06U3m+pQdQ3jsRbSg4SfiBwQj4LSdRtnxJ7Ffs+NRN9vn97fT6G/0wNMqdvwy8vTGjj9rHMPEK46Nz8d5g38ZyT9cqIC/yCR7Yzc7xvBm7+qYx6b3+qvux7ehC3TXdIxk0+PHJR6Uc2t2nubxM31F9KBIPLtD//FHMcAB+7uM6xj8jpcweOWi0fSQRumNqPEmfdinX4pBOVZES3jTRt5clXHLvnuUnZtE5wdneLNKPZg4Sh/rL4uW0kEZ5OLNK01NN0dv0K/OJIKGf+6QRSaarPZ+pDXfHKXXPnqTmmRw7dEFetZaET2/2Jh/o9aduZnpx9fPU/1FEdGixxc4Z615Xr4MxLPWTPOvLKQn+WLcidEbWZqeMPSFcf7geFPKX1qOQbwZ5s+a6UjKIFK62HG3gx13/5Id937Zl5gHJrh6hUuGFzuviNM4Owaz8Xfy8cWDPf8nLSs5vILq9dP9h+x4Ld+7s0OvI1dM9X/m1sGA3/nUFdNC+0TKZFd76dAuNi12PkinyT8AAMBMgsDaRLjeS18Nsf/nyxsujbrZHDuVKoshRIXfY1ew7GYvub6PDXVzx24qx48bN7GeyUCYt8LbKjPOeb4KRXNOS0ZbaRPNEtlo7Cbbti5bgut8xIN2aSxfuvqvGIGN8sVJF6yhhypEoCZy8R1x8xE3d54RwBn4F4d6Zipgxxbh20tcLqA9Sjm9HLgxkrig5xlRW2uoeWUJW5ZbdLbrFG3bw24qLDVcQo2J5ozil3neTHGfURSZP3jmlbv0mnJamTK1XAJCtQ2ydo7Abux2naKOq3LFXu2njtcTAavkzymh71daMs8usRso9hlntUDeoPo8xrxeZA0bVZ+OTe/QMe2mS5veZK9P71bRrDX8DjxCo24ZW9ffNR1HChoaRPB9/I3d7BhmDLMaj1wQn2f94cII+POA3G667fKjRXJQfpDGxfH6GSpqWWXThH/Q/Ric1vFzarHLdNOHffJHh4hcBkKLH6cPftCgPR6nzqqAOGbyOmL29dekVH9XvimbUcauyCCh1Sj96ooRTbfvLOEOvX3Tfjof3zSyz2j2NxPjqeaTd/qp3Wlbun5TZJa5ds7gdfkyMXqT3uZfa2BxcvaczBp0bVqcJtH0kzeTFK/YsdCuPtl3eTPKYooNZfdkF+lgx92I/MybvXRU9Eaq3EcLHLPIOB4A7KBDbPzE0YY91+a9dpl+PGbv12qiDUZOUbfe6ff95fR9h+llNp/8+/pCPgMAAIBsQWBtQqgbNWtgTd5s8gLaDjeNCS51yuyogJPLDakTIxDmMTNO1jFyni8ZeLN8XkF4hTF/LvXivGToGfMaoa/SXMb0fEhdoinmd6i6whhiuJ++/22elfYHOm+JR4TmzhP/R4f/U/xva/i2ESwpnkeLxAD/PE0v2672UreW7RRcXkn1mzfQQd5z2NYaquU3FfJvBpuAU9pklpTg3pTTziK9PexnehMdnTnYFD2pZ5YZTAG6pM/R55Hh2XwvuhWVtqyXS5GkpjZ8evFAX3x6k78+PVOB/jSbbKts2K8izmvPnjru8GOD/bjxY5BNUH6snTcVjYkabPN2v0Lz2w9TUcMqy/HbXlrHT19UZtgc+vY3xQAH1t4f/Y6Xf3hx/5cv8gwx9w120GOgL157zu39qvbcnDn0kBiQJn08FcibU0GdpqCh/uAdM7jzunyZUUFFa/acyrqL0a+zFdwLr5X11Ngx8y/bqO3DYqr/6VqqNQWK2HHvv/Hj3gCdN6fyZt3gkB6AKqaF2nnBKtKRHAA0Y+eVb8mn3OfJP+ycvaz9YJOGdOYTAAAAcgOBtQkyHuMXpmG6t9p4zRlNIc0dFjiqfkRkbnjNglA3d/5vSD12BhDPGHN6swoImjPaUt8wyww91/nQ6sgZA3LGthMDx04LZo6zLxrNDa0xBB5ka93XTM0ea7jYsgt8rXwwkaEVG6D30qr1YgmYWTscUCx12JIL85sDWu4dF/Bst1S1gcyBuOSssRTT8yrr6zMNKY8Tdjwei2w/O/UPEe5N2AdprH07De3fHa/9VrimRXSuYNvZQVyax0+fVGZY2RznZoJU9E0ydr8v6VMZ9/A73mQSTR0tdcDqz5ynX7n1tAnZdf3fRVPY0OI/SdSYy3qnBSXU/ATP6OJZasYx8+zLvBl8ObX+lJ1LVHBNNqeMvpX8g0dujdCNz+TTvJZ6PrNTYxMAAAB0CKxNEKMDA34zJ2/KZFNIa4cFTtKrr5bJzZ28IfWYWZKq44ICGRBMP/jlJUMvzSy+TNx6h7r5j8laJwZOnRbognP1n6gtVPPNkduealR54Tq9LAs11lAtuwMfPHeKtvFaXHtkbTWjxRRTTPUNphQ/k+hJWUPM6WFpRsq5Z4qlYs7O8t6TpcVKdmOnBcLcOi7wWn9MFwha6gaZAn0205Mmfn0O0w3+XQeKM8649E91NGA5BqU87ng8Rl6Xtd94pwP722lsiAfYbDpKiEvv+OnXx3eMYmZuzQSXLDCaS+qBD7/jzRQh2bmDLZVl5thZggO78VT2W+xiUtAw6XHmo6w1szRJK/NO1dRLdExhbCfZ7LSAHZ9F/bEv6GY886ufDv2SB9d45hrvLbNCBt8GqPt3Po/faTA33czULbqpJ5Tfn3zc9Ds9f+PlMEMZAABgBkJgbaKcN260jDpA7Gbwx7w3zAjdTdFhgWJkV3gNlGUQcFJNtjxyy/ooaDgsevPj7DNVAvSNeARCF0p0bOC2DPLmOb0sGP/OfmJ0YrDiIX71/zBVix/XLZ0WSCrDjcr/d2q2ra98PzVX8cAc+1b/4+M0AxrJEtNLrgMnlHyLx3uyR/RgaWSl7WisoBBPcblq1FY72qc1Z3lgrnFTKbAbC+2X9OC6J0VNtriyEqrd2kxHjq91LL5sasq5/EER2DOwcRvXumfI6dlZnnuyNIKDxjIY0zhiqlvm3nFB+sEqvl5WyOUqoRBbz0f26fXe9JuhSV6f8el76F1OdeCy5ofGfm2n1NrUUjaht2T66vQOEe5qzcFVwN85w9fpGLnKqKsmX5lcf5dGT/G2Z07HLSbN46dvsv6Wc2+NC6lFFOMneuemdvfsd7xs89ucMkfiddDs6ogJic4GnOqJ2TevdRjPrW7ZhLH2+uru44+uiG3n0cVLaQlbrjVBtp1ku9MCwVIj7GYiuBZurhPZaqLZpfxzNoWfSDQ7DYXXUoPeX9HnA/Sea1PP1MxNPcupdZM6t6Q3vczmU2VAez0HchW044BRt/PIVucfywAAAGYyBNYmzHX6L1VnrfqHRocFxw97zGpQ2RVhmqU1QyqoXkWFdjdH6uYuk0yuZQ00u1qbFrvpnd3S5HBTHKBZ67WbUfbeor2v0Lw1ARq7bKQvWTPajKaxRIUbt5uWoaC6iY27n4p4xwaMl6BZwfdqEp9RGqJCbb6zqv+fRc+avLOB2orFIkiT1GmBojLcaC7V/2gz7ajQugIreZian90kmpHy+mzdvc4Zb57d+pguyF5GW5/9U6rV4iuhij+lIz9arwWVMsUuster4JJNwfx1WuDJElg6e1G/sSgWNdnUeJ37NlDrcp7tVU4NjbbRSLoW1Ys0sxuT+HTZuGy6bhlypoCXWybZ1U/oQjzrjlnOlk+bhimmkqLjAm/NNvvpvN4zZ3y5NojOB8zTMzfXnMz1yRnTL6YVj9h/fpzqwIVthUV7+T6v7aN8n205TPN3tyQ1sxzrM4ooFW48TEX6fi2OR4fFMYYH9u+aehLlgTXngL+ggvKWGo+iswReV22vMT1TkIwf12R2XEppHT/9uEHtqrfJqifo6NIirTD+QjpaJ+tzJRXH9ztetqgeR3nvmgtN03560gJMzOhH9Guxz8+hTavZeinVZobN2/N1j9MmEW90qic2R65P8zI5j5eoWyamx8czLX8RPb20mnp+UJ1oepk1N+i0WtYVS83rvYhNV192E7ntzAnQmqVGM9BsdlogjoOieL+RndYcNh9TbminST2wlFX382an7Pj3C3Yei3egYIi8mapJvweRC9Sjn+4fZucWNq3k6SWaw9rKZD5VBvSlTz0HJ0UnOUZ8mILLw5mVeAAAAJimEFibMKoDgxXGzZklw8LdII393rjTL1izn+a382Lar9C8jS10r+muW/JVz0iK3wAHaNZGbVrspnfWsmeSMkfUjS/xm1H5Xn6DXDif3ezuf5buitlOvsEd7+6WQUV2oy2Kg6tleobdfEZo9A0+YooacTILUPTepz5j9362fmtylDXyOb33H8Psur+GWp/k2WbJnRbozv7uZRGI48G18JObqPMv/sp4/Gi9DKoNU8/f/2OWfnn/nDr+qdfIWiv+DrX+SE6LPQ6yeQ2O/IEiegwmI/10aNcZihibpLPYALVZmx+eO0Vtl/Rgjp0Rki2nkwy+n1zPzYRnXcmnVt46LuBumXv9NBmhyCXtb0mfY66X5tRs0+psd5/jckVj2vqyTm8S16dw7lO2t7JDTuVDWmainUH68jevGkGs+XyfTxxbxD67LEDjl1+lUWsG7/nDNHqZPwlQoXY84seYWWwcfoy4u3+7pTl96maeTk3Yx7u3021+7JlvTC9+TJPTLOSfe7nd+did5vEzEx9/9Ca9EONRqjn06OLHE0XwV1fRozyYcydGL9g0I/Q7XnaoJoXsW1pcZZr2z5csFMMny2u9b4s6YmK9VGk9kbJ5M4Jjd+jlt847No8dvMPXp3mZXMe7fp6aRJBTjrdajicej9PPFwcoxP6cTlaZV699LDtTmVNBP9enu5pNt0qro2ZhZK3NoU2LeaZVFjstkERNNRF4Kqb65g0icCQePzUy1aIf9lHPh+x4pwJLmyYmeyr61gk6lJWOEti55W/UMjph55iO09ThIzvOy3yGHjECcf57gPbwQwoAAMAMhMDaBDKCUAF205ecYZHKePffil7qEmI09ob9DV6qumfu2A3w3t101zQt9llDERrd/2xyD6Pixjd5vm63GDe7zk1Y32Wfx+ZfH3eIjXt8N93ee1ium1RNX/lnvEpj4kbWwOfz7innnkYzNdj7LyKQwKXutOBz6njlr2nn6V6KmGIfwxQdeJ12/t0x6shmmZhb79C2v3+degb0LKlhikTYtF75R+oa9ln03hYPrvGOC/ooogd+GB4Iipw8Qzt32TfXOftih/N4x07Qzo0ddOicw4q52kvb9tiNO0A9YlynJkIeOy5Qzp1K6pQheqmP2vawebsoBzDuHRekUcNGLNcZ6rk0ImvUsf/F9NroaJ94h2A335OzPpV+6jrJxg1U0haHrLi4653suGD0tmnaP/k+y/f7dvtj4lj7s3T7eEQ2C5X4sUI7zpilbgrvltHGg2u8nho/Nunjj6vjU/u7LseXNI+fGXqt901quhijQSNWJd2hwdhFajrjHATyO1428MBe0xXZ9FLhvXzeNM3MJBilX53pZuuln96xWy+/fZN+5RhHukNvX+DjmtfpYKyfXnjLeTy+Lr771kV6OSZrril37tA7V4zvwnmaGRj9iOrZdN9h09EZva3+u8v3r7LdmJzU4GPnlb85QW0fsuOfHMJFP2fHo44TtO3lXup4uYOaeNPQz9l7hrJ5Thuhnl+eMAJ3ippuVuu58WVk584Odn4xBdjY8nzIzpu/ZMfriNv0MpnPCmpcV8y+uz7qspQwcDPYFWHnCPkCAAAAbN3z2Oq6r+XznBu+nXzSX7QoRNeu+QkAAQBMdyXUfGBDvLOEyLE2OpTGDdHEUPPIbvj2dFBHrnoWBVdLlj5Bnbw+Gi+I3+u9Pprf8YArks09eVaaW+Bt+ni6poF+HpgmyxteS53NqnQBD1ix41eGddRyIkvzWbu1lVqXZ3CcXsnmY3O56ChnW1c2g40AAABTHzLWAAAmVQXtOG4UhRadQChlFaagml1HCfnhFnW8xJuyFlP9PueOEiC3VHF5ClRRT41W6ysFv+PBDFS0lP6cH49y0mnBZCumhVpWc/7yN5+hxmZqXU4UPXna948fRp3SDHrUBgAAmMYQWAMAmESiMDT7P8g7SdA6gejcV6cF1Xi2Wm56wssK3qRUNJ0tp9YDCK5Njhu0hTdFZM9CAa3W1w+eSNHzpN/xYCZZUrqUelYbvVi+cyVXNfggF3hQ7SBvAnrpjP9Ms7Ia2iI+I4KsZAAAABsIrAEATJoSWiSfueFNb/KvCajFuVOiXpuojYRe4ybH9fOidhav2ZUWv+PB9Fa0lHpkoLWzygiq8XpzW1xrn0I+il46Q03WzoQ8KaFQ41o6sq+SgnYdEgEAAICAGmsAAJONN/tsCNOK5cWixzYD78BggLq7e+ksMgQA8tA0r7FWWk0fVMm0Wdmhwpbr02ghTbXLiCIdbVnq/TPLJnU+eamCOgpcOkNHX5S9yQIAAEASBNYAAAAAAAAAAAB8QFNQAAAAAAAAAAAAHxBYAwAAAAAAAAAA8AGBNQAAAAAAAAAAAB8QWAMAAAAAAAAAAPABgTUAAAAAAAAAAAAfEFgDAAAAAAAAAADwAYE1AAAAAAAAAAAAHxBYAwBnZTV05MBaqpUvrUKNzXRka4V8BQAAAAAAADCz3PPY6rqv5fOcG759Sz5LWLQoRNeuDcpXM8X91PzsJqovJopGXqdtvR/K4TA9lFDzgQ1UH5AvLaInT9C2ruR9Ie+sXEtHNpdTMDZAbS+dorNX5XAND6wdXMc25EtnqOnFfjkUAAAAAAAAYGZAxtpkKFlCK4qNp8HwYsdsoMzxAN5fUeezj1JIDpmJePCn83irfDRTc5n8g0XtVvUe9jhQM6PXmchU40E1GqC2XfZBNW6wq4N2nhwhWl5HRxpL5FDIhoKGwzS/fTsVytcAAAAAAACQfxBYmwy3PqYLI8bTaOQKnTWeQo4Mvj9AUfmcqJhWPGIXAKqg6uXyKffZMM20PMqEEmp+rpKCNEI9e06l3D55cK3tElFw3ZOOQUtIV4gKvxcgGrpJ43IIAAAAAAAA5B8E1ibF59Txyl9T09/9NZqBToSrn9CFmHzOBINz5TNN2VzSW25GLmbSrPEWdexqo6aN6nGGIvIvU0Go8UnRjDV68jR1OGSqWZ19kS9jMdU/N8Mz/bKmlL4xn/2HwBoAAAAAAEBeQ2BtWvsWLZRNTme2W3TzM/mUW/5gcvNbtqKC8inRAJ0/J5/OOBXUyGumxfroaFp14PqpizcJDVRS40o5CPyrfkQ0AR3re9d47VVZDe04YDRnRtNcAAAAAACA3EPnBTmX6KjATjTyMm3r/Vy+0snxqJd2vvIODbLXtU/VU0P53HgAKDrQS0d/x/+mqfhTOlL1HQp6CagNvE5Nv8sgY47X4drHmwzKgvzvP5R4fekMHeXF7BvX0pZ1vFaXMWxbUoH7EqptXEENlfdRMJCY6WhsgC68foE6zpm3mXixfClyrI0OaUEwXietNd6kc4DaNsqmjCvXUufmcjGURBPHDlM2lmk820L86c2nWQXtOF5HYfnKrfMC8/Jp8y+YP8epw4BQWQU1PhemcNrzycj15KuDBbU9TEBHBgWlq6hwfQPduyxABXLY+OVXabS90znDqzTExvkJzdLGoaEI3T31D/TlebtjUIhm791Ps4baaaidB7jY+A0/pFlrwto029k037WdZkF1E81au4IK56tcyBh7/wW6+3onjV2Xg+JWUdHeBu29biI02nKYxuQrnXn7T97OAQAAAAAAILuQsZbviufRopKHacezm6hVC6pxwfIaOmjTMYGnoFqWBYMraIcMqonXy+uocetaOiiDamrYjng2UwnVbuWdCmygVv4eLQjEBQPlVL95Ax3ZWiGHGAa7TlOP1qwzvF5rerhyrRZU4EE3LSh17lOtOaa1zloJLXhAPmWi0WH5jPM3n5PDmNeD++pMQTXO63zWVvHg4whdeD/NoBqnmtzaZQRmTYgKWw7TvN0t5gAZU7DsGZrXfphml8oBmoLq7Wyc/VRkGYfmh2nWxv00r8GmAWtpDd07n2g8dp09b2KfzcbXgmpcwbIWKrIbl09v4zOWQBmbNpvHot2HqajaMk7pAirwFFRj0DwUAAAAAAAgbyCwlnOJemr6Y2dED964+Q61/mg9hYuHqef0y4nxT//B+HNxDTXqsZL+f9Sm87oRTBrppZ3xYdojk2w1q+XliUwqKcyGWYWr1MzywE3qCKA5GMfdoo6X+hKdEQQqaYto8lZCzeu16V06Y8pk400Vz1+STxlTnbWyh2hFPKZhDSr5nc+JV7t1A7Uud59X9/lUAcYv6KavLKdb9F4f75XjPlqQk04MjAwyHhzj2V9jx3fT7ZZnaUg8dtPoGxEapwDN+nGTOXgmglxGQIxnmOnj3GbjcAVrfpIckAsuMD7nez+hebufoYKhCI3u352Y3mXxLioIWEdk87mW7w3GPBrvl9M7bsxj4UbL9K53avPVbmSjDb2qDdMee52z8s5291FEBp7TqZEHAAAAAAAA/iCwNhWM/IHa/u4YdfQnmowO9v8jtQ0YzwNz7zeeTDbeBHCPFvQSTdHaRI+RcQ/MjWeY8SBAlL0ncvIM7WTvixf732Mu9p8IxklXe+kor+clid4oV64QBfcNA9Rm0xTxWjQxjimrSq+vFhug9yzBCN/zOZHKaqjBlK13gnaq+WSPncfkxsKYsvxM5tJCEbMaoWvGAJ+KaeFC+TSLChp+QrNEQX8ecNpOo+cHtQDTII11H6bb+9tp9Dd64GkVFW00Qr5jx5+l26Zmm2x8Ps4bPBIVoHvD5rVSEDC2CpFJ9sZuGtp7mMauqyajbHqvv+oY4BKGLtBdUxNTNr3zbHo8KLd/O32Z1BxU4tlr/H8/mWls3zgkO85IuykvAAAAAAAApA2Btbw3TD3/9I9ana2Ea8Nes94mhuhJ8+owxVtqyiCVKaClu9pL2zZ20KH3iRY9spZ2HGimI7zwOm/KKN8iaME4xdwktJjq4/XTLE1ANYPvD2hBv0RWldH80RDt+8Rcs47LYD4nSuiRRJNbLrx5Ax08bhSx54+D2vqhQDEtkk+zbTD6hXyWbato1hoe9YvQqEvGFl1/11S/rKChQXQCMP7Gbho9bwyzGo9cEJ9nzTwrCBiRWpEZ121Xg80gmoqaDNL4EPtv/jNU1LKKCpKapg7a1FjTyEy5tDsuAAAAAAAAgAmHwBpkyQjduCGfKp8NJwepdGUVRg+G++pE/TJeFywYzzpLxdIkVIn1UZdTj56qBpig6qyZ66vFojZZPhnN58RYlFZhvVw11cwhlcV1+X3bov1OjOBYjL6KuG6JNkJUwLPjKEJf2XZswD47vMJoXhpL/vtYO28qGhM12ObtfoXmtx+mooZVxjKkUFhpNCP9r6SNGwAAAAAAAPINAmswSSpohyiyL1/6YM3SElyDeaoGmMGosyabPwoDdD4pKJf5fOYfvzXUUgsF75PPskxmcSVnh7lRwbEojXvIEDN/dil9QzQ7dW6OqYJ29gGwQRpr305D+xO13wrXtIjOFWw7O4jzOM8AAAAAAACQFxBYmwl4z6Lyab4INYZNzSijJ89Q255EXTBTXTY7ZTW0ZZ1NllaKTgRMzUF5082VDybm49KnSU1IM57PbCqbS07xPXNz2wFqk/Nn/7BvKsubHd8Q5cYybSpqk72Yt1RHA5bMs+pHRBNS58CaxwDYdVn7jXc6sL+dxoZ4gM2mo4Q4GdBLMzMPAAAAAAAAJgcCazPCPFrAWz3mq9gAdXf109mrt2iQSii00lyIP1kJNT9XGc9WE8EuLcAV3rw20TGBlV4DLlBOjVWJDCtRI85N2vNpL7huBdXGm2Kyz3FslllODaLHU4Y3R92XWGYrc/24cmo9wNZBmf6lG/O7w9SFrNUtuvkZ/99vU9ES+n4lD3bmICMuagS4Ctb80Ah42Sm1NrWUtc4oTPdWiwFJ9A4R7mo12FTHBc51zpwy2lYZddXkK5Pr79LoKd7dRYC+4fRFqiavvslmy8db6cjWSexMAwAAAAAAYIZAYG1a+5DOi84g51L9/3yUak1xlvuptmLyehM1FbkPlFNrvND+Bjq42TmAxIUanzT1ACqCXS/qPXSyz3MMKvTT+XgQrpjCy1XWm10z0MzmM0GfJsc+Z1/ic7aIWm8Gc4CMB+E2GO+zdpRgdbWXuvVp8HndJ8fV5je8LkzNLkGzsxf5BqPqz6Wp7CFawb8Xm8y/jF3vpa9kkKxo73YqLNWaU7LnhS2Haf7ulqRmlmN9xlZRuPEwFVXr46yi2WyceaJDhBjdNfUkmqqZJyMz2sZ/32sej3eWwOuq7TWmZwqSsWkWyey4lJY10GxtfgvE/DY5BxUlkWEp943gcvfvGgAAAAAAADKHwNo0d/b9XiNQU1xDrT/6K+r8C/n40SZqffJ/OGd25dq5C1qvnlYjFLnk0JOopQlo9OQFGcTpp0PHRBTRsLyOjqhsLwsjeGQRG6Fr8qmJ3/m0MAf+zIKVD1E8hGINkOliA9Rz0nl6Z188QW0p5ydF0Ozcp2I+TfPkkap5lzLzz5dB+vI3rxpBrPlhKtq9n+a3804B2IM9L1oWoPHLr9KotffO84dp9DJ/EqDCjfo4LTSLjSOCavu305em5pypm3mqjDZrxwXj3dvp9htsg5lvTG+emp6cZqFo5tluyo4ziQcQAzRLm995Yn6fccy8s+czQAoAAAAAAACeIbA23d16h7b9/esUGRmWAwzRkT9Qz+l/zn5mkWe3qGOXNRA0QtFLZ2jnng461G3O3DKYm4DyHkCPdmm9eJ47ZWoSGlz3pH3Gjgwe6aJ9n5B9pwd+5tNOPx3ac4Z6LIGvaGyEIn3m74YHyMzvY+85yaa36xR16Bl0SW6xcTvYfBnTMc0Xnw7/jD1ttE1fZ0n6qYsH7wKVtMUhMGmvghp5wNOtV9ZMXe+k2y1Gb5um5pdDEbp7fDfdbjdnnSlj7c/S7eMR2SxUGorR2Bvt7POsQTUus44LeHCN11O7a5nPcT5NMZ/vOn6uCCDu3S3G1Y2zZRzd/yyNOgXkpMGuCEUcA8EAAAAAAACQbfc8trrua/k854ZvJ9/QL1oUomvXnPtxBICJVkLNBzZQfWCEevZ0UIeHemm1W1updbn390OOrVxLnZvLKXryRIpAKgAAAAAAAGQCGWsAYHGLOl7qoygVU/0+l44gpFBjM7Uu581yTyOolidCQd4pxwhdeB9BNQAAAAAAgFxCYA0Akl3tpW3HeDPXcqOHUTnYigfVDvImoJfOIDMqX6g6hJciCHQCAAAAAADkGAJrAGDv3CnatodnrjEuvUvyenNNL+aiwwJITwmFGtfSkX2VFIwNUBu+EwAAAAAAgJxDjTUAgGmhgnYcr6PApTN09MV+h844AAAAAAAAIJsQWAMAAAAAAAAAAPABTUEBAAAAAAAAAAB8QGANAAAAAAAAAADABwTWAAAAAAAAAAAAfEBgDQAAAAAAAAAAwAcE1gAAAAAAAAAAAHxAYA0AAAAAAAAAAMAHBNYAAAAAAAAAAAB8QGANAGausho6cmAt1cqXAFNJqLGZjmytkK8AAAAAAGAy3PPY6rqv5fOcG759Sz5LWLQoRNeuDcpXkBv3U/Ozm6i+mCgaeZ229X4oh6dDfcYw9fz9MepI/iphxiih5gMbqD4gX1pET56gbV1TYANZuZaObC6nYGyA2l46RWevyuGOsrEfQf5i2/XP2HZ9v3xpEX2Lbde/y6/tmgfWDq5jG+SlM9T0Yr8cCgAAAAAAEwkZazNByRJawe69uGB4MbJzVq6lzuOtxiNFtkftVvk+8Wim5jL5B4EHmPS/T07mE7+5dp7HBNOyHKihkBw+I/FMNR5UowFq2+UlqMZM2H7EA3h/RZ3PPjqjv6PQU2y7/gXbVsWDbdcL5B8sajep97DHz2bWdj3Y1UE7T44QLa+jI40lcigAAAAAAEwkBNZmglsf0wV278VFI1forPEU0lZMKx7Rbl7LHqIVDllbE2nw/QGKyudJ8xhXQdXL5VPus2GauXmiJdT8XCUFaYR69pzyvj9gP5pQgx9YtuvvOmzXD8un3H/OvO2aB9faLhEF1z3pGFQHAAAAAIDcQWBtRvicOl75a2r6u79G8zUmFLxPPktfsPKhREbMwmIKyqeT6uondCEmnzPB4Fz5TFM2l/QYYORiJs3GblHHrjZq2qgeZygi/zIVhBqfFM1YoydPU4eXTLU47EcT6ibbrj+Xz5ngfJvteoFlu76c4Xb9N2x7/kv1mDrb9dkX+bwWU/1zMzwTFQAAAABgEiCwBjPOoqBsz+dHoJgWyae1VeXy2WS7RTc/k0+55Q8mN1M0BQEH6Pw5+XTGqaBGXpMq1kdH87YO3Lf41wV8u/5P+ZR72Ga7fsCyXU+lCG9W9VMXbxIaqKTGlXKQF2U1tEM2Z0dTUgAAAAAAf9B5QY6FajbTwfBcipz+azrkmEyhiqL/gdr+7h+TmpiFKh6lxqoaCsdvtocpOvAvdPR3H9o0e0oUWLcTjbxM23q1NJAk97Pp/Q/aUvUdUvGn6EAvdb//DtEjf0Wt5dnuvKCEahtXUENlOQW11JNobIAuvH6BOs45TyhUVkGNz4UpHEgsrP14JdS89UmqX+4xWhHro527esW65XXJWkUTyhH22ewmns1j5FgbHTqnCvgnhvMb+7aN1qaFavnuY+9JNZ88m0oWI5eMackXTGJ+OG16vG7cZhXo400cO0zZWKbxbAudpzefZhW043gdheUrt84LzMtnXV/mz3EqyO79e7ch11PqDhb87kdyPOqlna+8w7ah+6n2qXpqKJ8bDwDx/eno7/jfNBV/Ske0fc7VwOvUxPZ93xbU0JGf8qawbF54Qf4PHkq8/vAMHX2ZrfOn1tKW1bwGnTFsGx9mwraXp9j28t/Y9nK/9j18zr6HN9n3ELFs10+x73114n2RDrZda0EwXietNd6kk20Xfym3izD7vpq17fqXbLu+KV8ypvHYfDZlOJ9mbHv8hbZdu3ReYF4+bf4F8+fYzyf7jAVsu/4ztl2nPZ8Srxu4j32PaXRkYD6eJB83AAAAAAAgNWSs5djgJ/2iTlC4yqUQecX/kD0N/rMlKGMUMT/4pB5U49hNevl6OvgXm6k5q0kGRlDg4JPmG/xgeQ21/mgzNfhvQWmP3wge30Ct68xBNS4YKKf6zRuo88Bam7pB7GZ5K7uR3cduVrXgCqfGO2LtlOAB8/vS9wVd6DMKbAWCbKWr+mo8oKNni8UZ89gZXz5v8znYdZp6tGad4fVa066Va7WbYB50027ez32qNVuz1lkroQUPyKdMNDosn3H+5nNy+PjeLYwswxG68L6HQEUmiufRopKHaQfbn1q1oBrH96eDNh0TZJJI6Vdw/graIYNq4vXDddS4aS0dlEE1NWxHPCrEvoNNvFMBtr3w92hBIC54P/semtn3sMmyXf+ObddaHDL8hLZdh9l2rdVJi3Ro23XEsl2b6qyx7fpb8ikTHbJs1z7mc3IY83rwp2y7zmQ+VZNwu4xVAAAAAADIGQTWck0VPC+uoO87BMFqH/oO+3eYLnxizoAJ1dTLjJlhipx+WdR2Eo+/f516RIxnLtX/6E8tN1GJOlD6Y2dEv+m0V/uUytAxT28nm15kZG6Wb/xVAfkUAsnRvNqt7GY5RfZZcHkd7UinSVRKfD6+EM94nbXaR2Tg4bNh0hJoNDxwk3qFJc/nLep4qS9RtD1QSVtEEy22vtZrTU8vnTFlsvGmYOcvyaeMqc6aqZMFa1DJ73xOvMy/dxVg/IJupszK8b8fGb5DrT9aT+HiYerR96XTfzD+XFxDjXqspP8ftemw/Y0PG+mlnfFh2iOTbDWrh8sTmVRSmA2zCi9TM+txezEF4zi2Xf8vbbu+n23XT8nt+glteh+y7drUnJNt19rimuqsLWDb9f3yOd+uP/CxXSfN58Sr3cS264dTbNee5vMWvSeC//fRAo+dGJzt7qOIDOSnX3MQAAAAAAA4BNZyjt2gX+Q303Op/hG9+zqp5FFqEEk0/fSefl/Ihm8J85tIo+nloX4t6HbrQ3bT/7IMrn2HGmrid5f+qfmwmd4gm96h+PSyZS4t1LLUorz5UrwY/gnaecy44Uu62SuroQZT1hZ7b3y8NjbegPyLnu2lF9s/YcoIE80NtfHFQzYDTfK+zJ4JFFO1jDJGLg6bssF0/KY1ym74IyfP0M492ufvMRdFD1dZslGu9tJRXi9JEr39rVwhCu4bBqjNpqnXtaj2BelZK3p9tdgAvWe5efY9nxPJ1/duJbe52AhdMwbk1ghv2n2MOvR9qf8fqU3OamBuFvbbbOBNE3+pBb3YttDzyzZq0+N335obX6dn/0luL2+x7YW9L17s/5eW7SUejJNusu36LW27Xs226zDbruOrgW3XNk0krw1p27VeZ02vr/Y5264tEW7f8zmRFrDt2pStx7ZrNZ/ssbND2671LD9XxbRwoXyaCjvWHJLHRvem0QAAAAAA4ASBtYnQf8W4kStfnNREJ/RQhbg5jFy01FyaO8+4aRz4F4d6Zipgx25Qv73E4w2Xi5TTy7ZhuqEFuHim0ZEDa2lHYwXVlhENnjNu+Kw3eyGVKSaFN2+gg8eN4tv8cTBeZ4wJJDoayA6VFVZOYRHkSdEJALtp3baxgw69T7ToEbZsB5rZMrL55E0Z5VuEBxJBC8XcJLSY6rXlMjUB1Qy+P6AFRxJZK3onC9G+T5KDhhnM50SZ3O/dj2Hq+afkeonctWGvWW8TQ/SkeXOY4pubDFKZAlq6m2x7+Uu2vXzAtpfvsu3lZ2x7+Rn7HnhTRvkWQQvGKeYmoWy7jtdP40Elh+36A8t2vcB4VrtM267/zWa7zmA+J0rou5btuplt179g8ygfB7X1Q/en3q4Ho0ZWLQAAAAAATBwE1ibEh9QlmpB9h6pNyRH30/e/zbPS/kDnLYkaobnzxP/RYb1bPIvh28YNJ6/nJAb452l6WWVp8sjwOlnhdXXUum+DETA5sJZqy8ztZ9Pr0dN7k6jUjCwQU1bYpU/prCXzzqSswuhxbx9bpnVs2QKqkwMvktePEOujLqdgnqqxJKg6a+b6arGoTdQ0o/mcGJP3vU93I3TDWiPwP4ftMzaVBWx7kQEqXr+M1wULek6+szQJVT5n27WeRqa7ybZrLRhn1Fkz11eLDdls1xnN58RYND/N7VoGFQEAAAAAIH8gsDZBbDsxcOy0YIbgmVJ7TlDbpZHkG20uUC6CbDtWmoNr3nmppZUePSssctGt5z12Uy+K7MuXPliztITP3IIeqsaSwaizpgf+7DLsMp/P/JP97x0Utr2IIvvypQ/WLC3BNZjHtut/07ZrUWeNbddaE9LzSUG5zOcz/7Dt2r6gY1womO0eZgAAAAAAIBUE1ibKrXeom5fL0ToxcOq0QBecq6VlWKnmmyO3s1YzynV62VZWQqGrt+jsix20TdTK4rXVzlDbSb3pF1F4/UPxYKQpY4zXZNLqbCU/7JuWmaTbvJFnhfFAYIzdzN+Qw2yEGsOm5mbRk2y59iTqgrVpHQ3YKquhLetssllSdCJgag7Kl23lg4n5EBl2ZhnPZzaVzSWn+F52vnfZ/Dgvmop6kIVM1GwLPWXZXt5i28svE3XBTHXZ7Cxg2/Vqm+06RXF+U3NQ3nQzrG3XH9ps15nOZzYtcNmuTc1t2XYt58/+4eF4JozQDZdjEwAAAAAAZBcCaxPo7CdGJwYrHuJpFA9TNS+fY+20QFIZblT+v1OzbcLW/dRcxQNz7KbxPz52b7rlQWJ6yXXghJJv8Rr4WcR7BeV1sprpyNYa2eTzFg2e66ezXReoWw/oaIEQcx2xcmpNai5aQqGVNaJWm71bdFNv+haopEZTRhwb39L81OwWdfBA4C52k+s1Kyo2QN1dbLmusuWT86cX4k9m7jFVBLu09RHezJZZPk9yVauVFSinxqpEBot7hh2T9nzaC65bIerkGfj6lE+TlFOD6PGU4c1R9zn3Epv5986p736qNBWdRwvcNsXJ9jnbXn7HtpebcnsJmwvxJ2Pb9Z9p2zUPdmkBrnCzy3at14C7n23Xy7TtmteIc5P2fNoLrmbbdbwpJvscx2aZbLsWPZ4yvDnqT122a1P9OLZd/4ytA9OXbszvjqe8dLBQQt+v5AfpdDI22fzxZuDHW9lxeBI7cQAAAAAAmMIQWJtI/f8setbknQ3UViwWGRVJnRYoKsON5lL9jzbTjgqtTVPJw9T87CbRjJTXZ+vudc548+zWx3RBJE98h1qf/VOq1e7tQhV/Skd+tN6UAZKpUOOTspfLYgour0zUVROPDdSqB3T0TKurvZagm9FcVB/34OZKCq8LU7ND8OTsxURPexwvhG8a/7lEhpxfpiLifB4t8+d0o80l1g0ng10v6j0Zss9zvAlWHSxwxRRerqKh9h0tZDKfCfo0Of6dJD5ni6j1ZjAHyHgQTq57a0cJVln43jnju1f15/LVh3Re7fv/81HTvkgl97Njx+S1bxwc0raX+9l3EC+0z9Z/c4rt+im2XWvNN0Ww62XLdr3JZbuOB+HYdv2wtl3b1GbLZD4T9Gly7HN+mvicLaLWm8EcIONBOLZt8vdZO0qwusm2a30afF5/KsfV5je8mm3XqeqrlT1EK/hxwyYz1YnIWJXHmuBy930HAAAAAADsIbA2oT6n9/5jmN0X1lDrkzzbLLnTAt3Z370sAnH8Bjv85Cbq/Iu/Mh4/Wi+DasPU8/f2PQ+m73Pq+Kde4+aw+DvU+iM5LfY4yOY1OPIHipjjURkZfD9CPZf0ZlAOYgPU9qJ5JZ190ajL5s4leHLugtbjpo1sNBV0ncYIRZzm///f3v0HR3Xeeb7/eqPdcK8hskBj3M0PtWJbrO25TqDBKMtY2FisS8YxSuYKS95/oGaoMpoKZPBoAq5UAVUpo4RBiZkb4SomZf7YtRTYyUgOmHJQnDUOsfjRkLhie6zYIwGmO3iEZAWzg7eU8X2ec57uPqd/qfuoW2qh96tK4fRRd58ffXRm+uPv830ShoCGj54xn2+f7Dng+AD0LKrRaq8EicGhJTKceriw1/1M4A7+3PxLHEFlYkDmpD7r7qPptzfuz107+YG1n659KkInTkf/FtW9wvG32PnkBnXv+LP0lV2FFlLXS9ocX10vb6f5fBKGgIZfc1zXHY7r9T51XUervRKceCvFdf1Rmuva634mcAd/bv4/dVxDiQGZ00fqun4tw3X9orqux9yf6KQN6UV7Mo5ZmZpWsQfOAAAAQHEiWJtgA72/in1RG3vSgo+k46XvyrbjvRJyfe8aknD/Edn2wwPSkWIYqWeDr8vWHx+R7n49g2nUkIRCalsv/UQODznXj9OFPmtIZeOOHitgCyeEO7qHWfeBQ7JND7k06+Lsvmzboq81ay0R9aX5aI/6XbtsPZzu5AxKx3b13gf6U2xXv/6DPPSss7fhDoLUvp7X+9Yhe7rcFS429xBQPQPoPucxnDzmGhLqX7M6dYWJCY+cwufeT10Z6Wk/U+mTPebzcLLO5zn3daMDMvfzzGemPusOZwVdkvF+7lqfHNbhnW+JbE4TTBYF87cYGnafu/Dw76T7+GROdqKul+8lBkHqs3hbnfvvq+vlZ2mua8cQUD0D6L5XHJ9RSF3XjlDKv0pd16mqs0IpruvfZriuc97PVNR1/X11vSUEX+GP1PX224Tr+kV1XSdsL/Sa2t731HXtrKBLoq7rF9V1bbbj2i+9Hf0e31fXtfOcJamSBh3IZ5o1OIWBwyEJZfqPDAAAAADGdMtDq2o/M8sFN3Q1+YvBwoUBuXhxvB3CACBb5dK0e52s9Q1L944O6WAGUUxxNVuapXnxOK7nFXXSubFSwkcPjRFMAwAAAEhExRqAaWZQOl44J2Epk7W7MjTMB6aAQEOT1ZMyfPS455A44NeTQQzLmdOEagAAAECuCNYATD8XemWrHgqsG9LrGUbNamAq0aFaqx4Cer7He6VZtK/j+RDVmwAAAIAHBGsApqeTx2TrDl25pjAbIqYo3Q+xMWGCl+yUS6ChTtp2LRF/ikliAAAAAGSHHmsAAEw7VdJysFZ853tk3/N9aSaBAAAAADAWgjUAAAAAAADAA4aCAgAAAAAAAB4QrAEAAAAAAAAeTHqwxjBQAAAAAAAATEVUrAEAAAAAAAAeEKwBAAAAAAAAHhCsAQAAAAAAAB4QrAEAAAAAAAAeEKwBAAAAAAAAHhCsAQAAAAAAAB4QrAEAAAAAAAAeEKwBAAAAAAAAHhCsAQAAAAAAAB4QrAEAAAAAAAAeEKwBAAAAAAAAHhCsAQAAAAAAAB4QrAEAAAAAAAAeEKwBAAAAAAAAHhCsAQAAAAAAAB4QrAEAAAAAAAAeEKwBAAAAAAAAHhCsAQAAAAAAAB4QrAEAAAAAAAAeEKwBAAAAAAAAHhCsAQAAAAAAAB4QrAEAAAAAAAAeEKwBAAAAAAAAHhCsAQAAAAAAAB4QrAEAAAAAAAAeEKwBAAAAAAAAHhCsAQAAAAAAAB4QrAEAAAAAAAAeEKwBAAAAAAAAHhCsAQAAAAAAAB4QrAEAAAAAAAAeEKwBAAAAAAAAHhCsAQAAAAAAAB4QrAEAAAAAAAAeEKwBAAAAAAAAHhCsAQAAAAAAAB7c8tCq2s/McsENXR00S4USkJk7n5Nb54qMvrpfrna9YdZPQQsaZc6zT0iJeRhz5WW5urNTRs1DAAAAAAAATI6bq2JtQbV8fq69WPLoAzLDXgQAAAAAAADy7uYK1i71yqdX7MXRV0/LDXtxarrUKVc3PSVXYj/7p/bxAAAAAAAA3GRush5rA/LJTjuImtLDQAEAAAAAAFD0mLwAqVVUS8vuZuk82CxtDeVmJQAAAAAAAKKKaPKCgMyo/3O59ctBKTF90kQiMvpWl4wceUNGL5lVMfGJClIZffVZudo1YB6lVrL8GSmtc24vWfx9zPYkOnmA2t9N35Bb7/fFJhgYfetlGdmfYWKBBQ/KzMfr5fPO11wJyafH/lE+OZV5X0UelNL9m2RG1pMX5Ho+3Wq2NEvzYvNAhqV7R4d0XDAPAQAAAAAAUCwVaw9K6c7npPTRxJDLJyX3b5I5z+6V0vqAWZcfMzbtlTnrM4dqKc2dJyULzP46AjKt5P4nZM7OxuSZPHUop7Y399lNriBOK5kblFvXq/dablbkxcSfTwAAAAAAgOmmKCrWSur3ypxHfSJXQjLyo71yI1ZNFZCS5X9uVZXJr8euQNOi75WxYm35MzJ3vXpPicj1g38fqxYrWd4opeufkBJR+7FJ7Ye1NiqxQi7xtc9YQZ124+BTMnLKWrSZ7enqtOs/+kd1fNH90lVl35BSfewpt+mUfcVaXs6nHgr69BIJqrcJHz0kWw9nqjYEAAAAAACYfoqqx9ror3XoZB5YBmT01F65ulNPRpAhBMpRic9v/Xvj4DOuIZijpzrl6sGQWgrK5zNVkOnAalPia/fKyFv2cokvoRpMH8Nz6hh26pDLeRwDcqPrGfM6v5QssFbmzbjO54Ve2bO9XRrXtxOqAQAAAAAApFAUwdpo6IxVgVXy6DektP7BvAdMXiSFYzERua6rwMwjp9FIxCwli/U0WxCQGboyTg9F3blX5u5/SUrv17/wyefsvG/civF8AgAAAAAA3GyKo2LtUqdcfe5luXHFJzMe1T3AXrICp7k7dS+w/AdDo5Gw9e+M9c/IDOd7695pZjjnaCR/FXKaNcx0pzqmZ5+zhpvO0L3W5uohoAUwwecTAAAAAABgOiqeoaCXOmVk51Ny5blnZeTVkNy4EpHRufFgaM6mB1NMCuBRbNhmUEqjoZP+eXaTzNCr39ov15090sbL6r/2hMzQ/dmuqGN7db+MqOO8qn6ubHoqNoQ0rybyfAIAAAAAAExDRdVjzXJJ9x3bKyM7n5Grm3QwtF9uXBFrNsv8zmRpD9t0TwIQsUKvq/vfyDg5QG6iVXB6soNn5cpOdWxdb1i91kZd/dYKZMLOJwAAAAAAwPRSFMFayfIM1VOX3pCRY3pCAfU8X57GMC5/xuprdl1PKKDDptjPM1bolb9QzeHKGbnhmOwgLpBb5djceWM+Py/nU88KurtZOg82S1tDuVkJAAAAAACAqMkP1hY0Sun6TTJn/157eOICdxVViavvmWuKS8/sWUF98rngBFZszX3C7m9mHlqBmh4iuvM5udWavGAsl+SPV/S/QbnV+T7q/Lj7xOXnfNbUL5GgaQHnX7NamirsZQAAAAAAANhueWhV7WdmueCGrg6aJTfd2P/WOtODLJ0rL8vVnZ1jVpOV1O+VOY/6ZPTVZ+VqV5qhlgsaZc6zT2Ss/Bq9EpJPj/2jfBKrMgvITB2CzY3I9eeekU9SZFLpth1dn5LazsivRUofDcqNg0/JSIbebmnf5639cmX/G+ZBfs5nzZZmaV5sHsiwdO/okI4L5iEAAAAAAACKYyjo6Cm70f7Vg3omS7v3WZQOuHRvsmxCtaxd6pXrb7m3k6hkblBuXf+clC43K8ZhtOsZdWwhdSxmhWaOS/dcu5F5V2Ks93lVvY95bNHvc86d8uXjfJ7oOich89Lw0eOEagAAAAAAAAmKomJtYpnKM8lUsRWQGZues/qwZax8AwAAAAAAwLRVfLOCFtqCavn8XJHRX/dmqNgakNFIlmVkAAAAAAAAmJamX7BmlDz6DSldnjwjp27uP3NTtJdZSK5TrQYAAAAAAIAUpuFQUJEZm16yhnlmpHuR/WhvykkKAAAAAAAAgGkZrGn2zJnLpGSuz1W1Fp0N9MapgfxNlgAAAAAAAICbzrQN1gAAAAAAAIDxmLY91gAAAAAAAIDxmPRgbeHCgFkCAAAAAAAApg4q1gAAAAAAAAAPCNYAAAAAAAAADwjWAAAAAAAAAA8I1gAAAAAAAAAPCNYAAAAAAAAADwjWAOBmVVEtbbvrpMY8BKaSQEOTtG2pMo8AAACA4nTLQ6tqPzPLBTd0ddAsxS1cGJCLFwfMIxTG7dL01AZZWyYSDh2Rrb1vm/W5iL7HkHT/+IB0JH+UGLdyadq9Ttb6zMME4aOHZOvhKX7iV9RJ58ZK80AkdKBd9pw0D5BGwnVxvkcan+8zDzJQ57pNnWt/pF/aXzgmJy6Y9Wnl4z6B4qWuo79V19Ht5mGC8Gvq/vJKcd1fdLDWukZdkNle8wAAAMAkoGJtOii/R5ap7yaaP7iI6pUs6S91nQebzU+TNFWYXySo2RJ9jvrZXS0Bs346CVRUScvuJmmLnS99LuqkaUW5eQYmlK5U06Ga9Ev79mxCNWXC7hM6wPuWdD61clr+rUQFHlP3l79TfyfWj7q/zDO/SFCzIfoc9fO30+v+MnC4Q7YdHRZZXCttDdxLAAAAUJwI1qaDwXfljPpuooVD78kJexFjGDjdL2GzLFImyx5I9cWuSpYvNova74dketVf6mqqZmndVStBX5n4zVqLr1LWblw3bcPGyaM+k6eXqM9iWLp3HMv+7537xIQa+E3C/eVLae4v95lF7V+n2/3FDtfaz4v416xO+x83AAAAgMlEsDYtfCQdL31XGn/4XYZ35eLC+3ImYpYVv3+2WXKomC3OkZuhs+MZrjQoHdvbpXF99KdHQuY3xSnz0NUYX5ks5AvxhAk0rLY+k/DR49KRTaVaDPeJCXVZ3V8+MsuKf26K+8u8hPvLW+O8v3xP3Vf+JvpT7PeXuBPP630tk7VPE9IDAACg+BCsAWkNyuXfm0Vt8Z3Jw+PmO6u0+uXUNOoXFg1wYnQvrx3RULBdth3ol7Betz7dUMRh+fBDs4g8qZIG3ZMqck72FW0/vj/RfzbQ95d/NYvafSnuL3ck3F+mShKWd31yWA8J9S2RhhVmVTYqqqVld7M1NJ2hpAAAACgUJi8osED1RmkNzpbQ8e/KnrTFBtGm4b+T9h/+JGkIVqBqpTQsrZZg7MvokIT7fyX7Xnk7xbCgeAPyVMKhF2Vrr6NMIsntant/JpuX3i1+8x7h/l7pOv26yAPfkubKPExeoPs/7dJD1XRVzSHZevqu+OPzPbJPN6luqJPNa3SPKHvd1qTG1eVS07BM6pfcJn5f/GB1kHPmyBnpOOnewVgTbCOxab7uk9YcG9JpwiC96Gq2r4fWdbiqgFyvS9lgO7f9dKuSloO1EjSPMk1e4D4+x/5b3O+TrhG47pPW8HTQGtIZlX4/E94zck62be8de5haivP55vxqaXh8idquWa222f3CsTTVVjmeT+f2zHEHVuSwvQq1vfrVUr84YZhrohTnNLfzaajXNNUHZa3aniUyLKEjx+XDx7OcvMAc79gTXXi9T5jXSa9se+l19XnfLjWPrZX6ytmx86PvF/te0b9zqPq6tDnuKRn1H5FGdW/zbJ66v/y1uZ/ohvy/UfeX6OO31f3lRXXuHlP3l1Xm/qLWbdXrXNTn/pi6zv5UXWe3Oz6/j9Tn93P1+YXc51b3S2tdFX9eqEPdXxwhmO6T1hwb0qn+Pv/G/H0G1efV5Ph7+L66v1w2DxXX69R+No5zP93U3/DfOe4vGSYvcB+fY/8t7vdJvZ/qPeapv4f/pv4ect5PI/p/NzJd/wnc9/Xk+zcAAACQD1SsFdjA+31WH53g0gyNuqv+zMzE98uEUM1u8t262hmqaepLbOXj0vpXG6Upr/8R3v7S3Lra/QXYX1ktzU9ulPrbzIo88vuXSYsJ1azHi2ulYUudtJpQLbquJValoL5IbtGTCqyTZv0cR2ih+U1fr7YtVWaNbeDwcel2DOsMPu4YUrSizvHlS4duji+NJz9wDJdK7LNWLvPuMItKODxkljRv+zk57H2N9klzSrufK+6Mf5FWQkeyCNVSmF+vtrvREXJpepu7EieLyMP5vONOadLHmdX2FOuLvNreWKFaEg/nU7O2VxsP1TT1+qB6/pjDbY2apTqkGZYzp7MIKsajbI4sLL9PWtT9otkRqmn6ftGaYmKCrEK1PPPPVfcXE6pZj+9T95cN6v5iQrXoupbYxaw+uw16UgH1uevnOEIgzX+7+vya1Oe3IeH+8oq6vzhyyOAjjvtLUN1fHH3SQh2O+0so4f7i6rOm7i9/YhaV8JWE+4uH/Zwc9r62/rX6exjPfkaH5qeqHAYAAAAmEcFaoUUbgpdVyVfShGA1d92t/ndIzrzvrhAJVK81FSVDEjr+otX7yPr58RHptpqMz5a1T3494UtGvE+S82dbyPmlLLWax6IVLO7tbVPbCw2rL8/u70T5sbjSFdBoQbUuUXBp9IuXDgzG3hF3GKcNSscL5+LNwn1LZLM1NKhcmh53bO98j6uSTQ9BOnXeLCquPmsVd8myWOCRGGZ43c+JV7PFDo8ySdxPO8CJ8joEtkx91um2WyZr651ftvNwPnWolfX2ohMA5M7L+bSqfhwBszfRoPdjuTxmVY73+4Ttbml+8nEJlg1Jt/Necfx39q/LqqXBeTr7fuLYjrqf6HXDvbItts7xM55qtUT3pbi/qHWJgvfneH9xhXGaur/8D8f95XZ1f3nM3F8ecWzvbXV/cQ3nVPcXx+G6+qzNU/eX282yvr/8xsP9JWk/J17NBvX3cN8Yfw9Z7eegvHlO/x++22Relj0bT3Sdk5D5Dyq59xwEAAAAskOwVnDqC+xZ/WVztqx9wDm9m1G+Uur1967hPnnT+b1Jrd8c1F+y7KGXe/ocodvg2+pL8YsmXLtb6qtj3768i+5Hiu0NqO3tiW2vAPTQnh2OL6XWkJ12aya4mDtmxypA9JelsHpO6GiPbHP09Grc4W7GHQ/jjAu9sk/36TGsWeZWLHNUA/VLe4ohRhfDjgN3Vks4+6tF+uXNhC9tnvdzIlVUS72rWu+QbIvup/rRfdKiXFV+eaS3meq8OD9zLV/nM6vtuUJTx2vWH3Jdl3rIpbU+et14PJ+BhqA7AFJ/E/br1PYc12xms2W+3ufIsFy0VxTWsB66fkA6nPeKvp9IuzlE3+w83JfyQQ9N/H7C/eX76v7izO/+xHF/+Zm5zl5Tn4F6XqzZ//cTrrNYGGdcVveX1xz3l1Xq/hJU95fYaVD3lxRDJC9ecXy+zj5rzv5qH6n7i2OIqOZ5PyfSPPX34KrWU38P0f1UP9s6HH8Pziq/jMpk/nyzOBZ1z99jJoTJPDQaAAAA8I5gbSL0vWd/0alclDSEJXBXlfXlKXQ2oSfR7Dn2l6r+X6XpZxYN7NQXuC/ek+UXkgzG3F7hWDNpXhiS2EhNE1K5Ai0n9WVp6/oO2XNaZOEDddKyu0nadINqPfTOPMWSEMxo7iGhZbI21u9LhyDOvkFxA6f7HV/K49USzqqt8Ln3k4dCjmM/J0rggfiQOE0PO2w9aDf71j+tjvNjze5pFvNFB1N7ov3GLrirA5O2l4fzmdP2YvQkC9E/ikHXdelfcpdrW17P50JXOagd8NrX06CcSBjGXByGpPtnyf0gtYtD2Va9TQxrJs3LjvuLCalcgZbTZXWd/Y26zn6jPpcvqevsb9V19rfq89NDGc1TLI4wLso9JFTdX2L903SolOb+8puE+8s8e6nmfsf95bcp7i/j2M+JEvhSwt9Dk/p7+Du1j+an1XF+5Pax7y8D4Y/NEgAAAFA8CNYmxNty2BpidbcsdxUP3C5f+aKuSvudnEooZAjMnmP9Gx5yThuXYOiq/YVM9zuyVniX1fYKIsXMkL8fytyvq6LKnultV63Vb0v3sfJn2YNKBxWuIaFRkXNyON1wxmhvH0u0z5q7v1oknCKNHNd+Tgx3oDOW7IdgZSvxvKUNU7U8nM+st+cMenVAsqtZ2kyQ55wEI/Fa9XY+3dfShFWcTQvq/uKc2Vf71zHuL/PUdWYCKt2/TPcF82ddfJcwJDTqI3V/cZVHOlxW9xdHGGf3WXP3V4tcSXF/Gdd+ToyFc3P8ezChIgAAADCVEKxNkJSTGKSdtADpqS+TukJpHAFVYlWRJWOYF+3tY7P7rJlhd5ZUPcbGv5/FJ967yx1IVcrygveJm+jz2SeHE4Zg6gkT3EHesHR3JQ/ty142vdAwsdR1ZjXZNw89SKzSsmQM89T95beO+4vVZ03dXxxDSE8lhXLj38/io/4eEoa7Jgr4CzCDDgAAADBOBGsTZfB16dLtZByTGKSbtMDJP9tRtpAoOnxz+GreKlwybq8IJPaiCh/tkfYd8T5Wrr5sqVRUy2ZnxVHUGJMIuIaD6qGGzlkxz3+QFIyOez/zqWK2pMuj3AFZv7Sb/Uv9Ex/K5h4eK+n7r1WYi32cJuN8DhwOxRqfJ4n0S/eOjqRm6F7Pp4tjiGhuhuRDvb+eXz/B8lBpm2+BxxKus9fUdfb9eF8wV1+2VOap+8uqFPeXMZrzu4aD6qGbQcf95e0U95fx7mc+zctwf3ENt1V/D2b/Uv+k+XtIkqLKGQAAAJhEBGsT6MT79iQGy+7SZQb3yXLdXiZx0gIjWuEmlf9FmlJmE7dL01IdzKkvVf/ybuahTVmIby+5D5yl/E90r/7iEumXrsN9cuLCoDr+cgmscDeOT+ae6dEKZxyBTHBjXepj15xDA32V0rA0Xjlh9YjLJOf9TM2/ZpnUxIZiqvdJOyyzUuqtGU8VPXwyw2yT7oCsUpp3q3PgCsPs/W1xTfGoXOiVLld/siXSar3WPFYCK+qkbdc6aYvuS77k6Xxmpq6V3aZCLnJOtukQL/qjQ7Htx1LOMOjtfLorIu3Pr8oEleVSs2W1Y4KNTAblsjXsMf9DdgtjjszL86WRVx+p6+wVdZ1dNtdZ0N2IP5m6Zv6b4/6iwy5HwBVsynB/cfaAu13dX+533F90j7hMct7P1Pyr1P0lNhRTvU/aYZnq+rRmPFX0cNS/znB/cfWPU38Pf6vOgetDt/e35bFsJlgol68s0f9HKJdKT7V/evj4wWZp2zKJkzgAAADgpkawNpH6fmnNrKknG6ipWmRVHCRNWhAVrXDTs4k+uVFaqhxjfsrvk6anNljDSHV/tq7e9BVvWRt8V85Y3+3vluanvi41ju8+gaqvS9uTj7sqJCaLq3m1T31RizWGXyetG9N/wdMCDc6AwoQzzztn0FPvl/bLl7PRfZkEF0dTxlTDQMe3n3EJzfX1/u2Kv89mq9ebLbGCzL9mnf08PXzSrEspKSDT2zCvdexvcE1QmhLCGve5U6zXRl9nN+rXx6n3ZbzhWn7OZw6cs4Lq0FCdk9hPbNtN6st6tStM9Ho+kz+/WrOdddIcu9bGduKsVRZr+gAWq7flVPTe9l9Xuu41Un67ujdO3vjGgSuO6+x29dnFGu2rz61pjPvLY+r+4hi+aYVdLybcXzZkuL/EQjh1f7nPcX9J0ZttPPsZ59ympt7nr+Pvs9nq9WZzB2Q6hFPXtH5e4kQJiS6rvwfnNvS+/rV5rWN/g6vU38NY/dWif5MpKoTTsSpdzd+xf3HyPQwAAADIB4K1CfWRvPkvQ+p7U7U0r9bVZsmTFjideOVFK4jTX0CDqzdI5199y/558nETqg1J949Tz8yXu4+k42e99pensrul+UmzLfXTqvbVP/w7CVlfhifZyTMZZkgcltB5Z+WPQ8IQ0PDRM+a89cmeA44DW1ybNgSyQ4sE6RrNe93PBEnhlYNrRsrEQMdJD1tM6BfmdOL5Q9I+5v6kCmvUuduh9i/tcRqRc7LvcIqyzFzk6XxmzTV5QTpl6sv6EitMdA4j9nQ+9YynzuswQXjsnbGd/MC6XhJnKy02J05H7zXqXui413Q+uUHdG/8sfWVXoYXUdZb2v1Oo6+ztNJ9rwhDQ8GuO+0uH43O9T91fotVeCU68leLz/yjN/cXrfiZwB39u/j91XEOJAZnTR+r+8lr67Z14Uf09jLk/0Ukb0ov2xhyzQjitYg+cAQAAMFURrE2wgd5fxb7IjD1pwUfS8dJ3ZdvxXgm5vpcMSbj/iGz74QHpGGde4TL4umz98RHp7tczmEYNSSiktvXST+TwkHP9ZBmUju2JwcWwhM/3yLYdHbKny11ZYXMPAU0Kek4ecw0J9a9ZnbqywYQWTuFz76euOPS0n6nY4VV3QlATjqgvz+fcn4cOdNzPU885qranhy06K76SDKrXdqj9srfj2i+9Hf0eO9pla6pw7ILav+3tsu3AOQmp5zqFdaB34JA0bu9Nc45yka/zmS193lPM7phGcKl7aKen86muw0a1Tdd5NOdw65H0oZubmXTBt0Q253sIbj6Ze01o2H0Nh4d/J93HJ3MyF3WdfS8xCFKf4dvqM/u+us5+lub+4hgCqmcA3feK47MNqfuLI5Tyr1L3l1TVWaEU95ffZri/5Lyfqajr/PvqOk0IvsIfqev0twn3lxfV/SVhe6HX1Pa+p+4vzgq6JOrv4UX192C249ovvR39Ht9Xfw/Oc5akShr0fxjJNHtzChn7JAIAAAB5cstDq2o/M8sFN3Q1+f9xXrgwIBcvjv9rNwDkTUW1tFm96YZTTlJghSlb1snaaG+38z3S+Px4ZgjNJ90fTu2bL92+A1NLzZZmaV48jut5RZ10bqyU8NFDqf8DAQAAADAOVKwBQIKa+mgFkh4+Fp1IIEpPQHCXLHNMmBAOF0M1Z9SgdLygq+3KZO2uDA3zgSkg0NAkzepvLXz0uOeQOODXk0EMy5nThGoAAADIPyrWACCBXSFjHoypX9rXH5vE4Ytp6FlZ9QQSEbV/24tw/4Ax6FCtVQ8BHU9FaLT6tKiqSgEAAHAzoWINABKc6Mqyv5oOrXYUaWh18phsjfaJYzZETFG6j6K3QKxcAg11dqim/04J1QAAAFAgVKwBQCoV5VLzwDKpX1Ipfp9ZZ9GTJvTLmbPvS8dJhpYBxalKWg7Wiu98j+x7vi8PE6gAAAAAqRGsAQAAAAAAAB4wFBQAAAAAAADwgGANAAAAAAAA8GDSgzWGgQIAAAAAAGAqomINAAAAAAAA8IBgDQAAAAAAAPCAYA0AAAAAAADwgGANAAAAAAAA8IBgDQAAAAAAAPCAYA0AAAAAAADwgGANAAAAAAAA8IBgDQAAAAAAAPCAYA0AAAAAAADwgGANAAAAAAAA8IBgDQAAAAAAAPCAYA0AAAAAAADwgGANAAAAAAAA8IBgDQAAAAAAAPCAYA0AAAAAAADwgGANAAAAAAAA8IBgDQAAAAAAAPCAYA0AAAAAAADwgGANAAAAAAAA8IBgDQAAAAAAAPCAYA0AAAAAAADwgGANAAAAAAAA8IBgDQAAAAAAAPCAYA0AAAAAAADwgGANAAAAAAAA8IBgDQAAAAAAAPCAYA0AAAAAAADwgGANAAAAAAAA8IBgDQAAAAAAAPCAYA0AAAAAAADwgGANAAAAAAAA8IBgDQAAAAAAAPCAYA0AAAAAAADwgGANAAAAAAAA8IBgDQAAAAAAAPCAYA0AAAAAAADw4JaHVtV+ZpYLbujqoFkqPjM27ZXS+30y+tZ+ubr/DbMWBbOgUeY8+4SUmIcxV16Wqzs7ZdQ8BAAAAAAAKFZUrGkLGuXW+33WYsnceclhT5Eoqd8rc/c/IzPMY3gVkJk7X5K5OxuL9rMGAAAAAADFj2BNu9Qrn17RCxG58eveIq2WCsiML/tErly+Oaq5LnXK1U1PyZXYz365YX4FAAAAAAAwFRCsWQbkk5063HlGRroGzLpis0A+N1f9c7MEawAAAAAAAFMcwdpUsfwBawjojXP0fxs/E1JOBRXV0rK7WToPNktbQ7lZCQAAAAAAikGRTF6ge149J7de2S9X9r8hJcsb5da6J2SGCT9Gr4Tk+o/2yo1L9uNEuvfYnEdFrj/3jHyin7PgQSn9i3r1ertvmqjXjzhfv/wZmbs+aB44ZGycb/ZxrnqvTeq9zNok0ab8b9nH4haQGZu+YfVzi/b2Gn3rZbl+pFNu+PU++ePHIOoYdjqOIaP0+1SijrW0LiglsSApIjde7ZLrXW/kufJNHVv9n8utX3Zva/StLhk5oraV5rOLU8e7f5PMyGHygsTrJLY9dd6TXq/OwxzXecgg3Wc3ruPzpmZLszQvNg9kWLp3dEjHBfMQAAAAAABMquKoWFtQLZ+fKzIq82Tmpr0yZ70zLNETCgSl9Nm9MnOBWZGgxKfDp7AVblgN/p/d5A6k9Hs5go8Sn98suY1m7K82IDd+HVH/+qUkzX5Y4dtf6JkuI3L9SEIwowO3/c9ZM486G+aX3P+EdWylS3TQZx+DZcE8ddzZhGpKyuGhOph7SZ3LxDDJJzMe3SRz8tq4X29LHdujydsquV9tSx9ffcCsywd78oHE6yS2vf2pr5WsQrWUJvr4AAAAAADAVFAcFWuuCrKI3Dj493L91IAdFlnVZzooU8tpKomsSjJ5Wa4em2cFSaPqefEqooDMWC5yQ71fWmb7Nw4+JSOnzLpUzPNGX31WrqbqxZb296YaSy9eeVlGftQZq56zKsrUa6yQK221lnl91tVc0e2Z6rSQo6JKnc+Z6nzeqs7nmMebJbti0JdcGajOfcnyP7cq5uTXac5ZTPbHGNueuVZGop+t49gyVfHlej7zc3we6aGgTy+RoNp8+Ogh2Xo4XdUnAAAAAACYaEVRsRarINNBh55AIBqqaZfekJEfvWw/njsvRZVVtF/WMild75cbB5+Vq3ooYCz8GMgcqin29iPyx7D9OK2wXRlW4ktVshaQmTpgUceQOAHCjE0mVNPB4M54qKaNntorVw+G7AfpJibQ1Wv63ywnLrC3F5KR5/RkDAnDFNX5/MSczxJffqusRn/9j65j0+feOr6dT+UvdFrQKKUmVNPDZmOhmqaPbeezct2a4TUot+a5imxCji/RhV7Zs71dGte3E6oBAAAAAFBkiiRYM0HJj9JUD13KEChFQ6e5Phk9mBC0ZCUgM76sq5HOJIQmKVzqlU91aJMi4Cup/4ZdBXYs4RgWNMqt96t/dWiYVG3nlnZiAr+9vewmLnhQPq+3J3r47Esyd3+KH90DznpufoyGzthB3aPfkNL6BzMMlc0Dcy7krS7Tiy7RgHxyzA4qS75cnZfjnNDjAwAAAAAAU0YRBGsB07fK0V8sFyZo0cMvvQ1rNBVvWVWDDchoymDtQblVV1HpIagJ+1ASXGbvX4b+bWNVzM2w+q9lUVGnmdlDJ9SlTrn63Mty44rp3xYN9Hbq3mP5DaKi1Y2jkQwXi6ksTF3h6MEEHh8AAAAAAJg6iiBYM8HWW6czzLRpApIU4Vc0dPo05HEongmisqsG04GOnsAgKJ9fbj/W7KGXKSYsUKLVeOn3z1TMpQ0Wcwseo8GT7p92ZVPmn7wOX7zUKSM71fs+96yMvBqSG1ciMjo3HkTN2fRgfkKuyXKzHx8AAAAAAMjZ5AdrJtjKVIE043F76GJy+DXOajcl6/5qxmjEfmKsP5kZ6jn66t+nGZo4lrEq5rIIHlPId/+0rF0akBtde2Vk5zNyVQd4z+2XG1fU/ty/Ka8zZ6buc2dEh4uOVYXopaJtgo4PAAAAAAAUv0kP1uJD+9JUT+lZM62eYSH5NGmoZy7DOFOzK8pyCOZO2QGXHewEZOZf6NAvJNczVn/55HP2YSYIxCc2SHcM0Wq9LMWCvwz9xUqWB3IPlDIoWZ6hWktPPhHteZYpDIsaI+yK9juT++tlZsq3M5NIKJmG39r8WQ3jzOvx5UrPCrq7WToPNktbQ7lZCQAAAAAAikERBGs62BKZsf4lmaP7VVmPNB067ZW56+2Q5MbBvckVWznOlpksWvHmnkFSBykz0mYkl+SP0T5ry//cnrAg1b4Z9tBRfXzPuN6zZHmjlO58zoSG+nljJHs6SFru2McFD8rMTY3J/dRM8Cdzn5A5O9Xvndu0XrNX5qx/Tm51DGUdFz1L5/pNMme/el89HHKBu2pLb7PUfIaZj9GcV+uzcFwH6vWuz+JSp1x/Sy/45NZn90qp45zo585U51R/JjqITR92viGfRt/jL9znSNT+z3C9Z76Oz5ua+iUStP9ExL9mtTRV2MsAAAAAAGDy3fLQqtrPzHLBDV0dNEtRATsIkYiMis+EXMn0xAQp+4Etf8YK3tL+Pgsl9Xtljp54IIHuUZZuMoQZm16S0vvVPl9R+ywvy9WdaWYztTwopftNVVqiKyEZ+bVfSh8Vuf7cM2mGkppzlObcpNxPc17SGdWTLOx/w2MYmUyHhLfWPSEz0uyjRc+KmvE8pf8s9KQQV1wzqmY+J3pob/rzaSxolDlpZ0dVn8umeFiar+PzomZLszQvNg9kWLp3dEjHBfMQAAAAAABMqs8FKr+40ywX3L/92/82S1H/j/xfTy6Tkn/57/Kvf/dP8seF90rJ3FmxMrrRt16Waz/aJddOf2zWuJUs+3/l/75rlvyfX/5IPr1sVubo3/+5z9ruDLVdW0RuvPrf5frPL8q/mzWJRj8XkJlfrpL/MDMi1/e1yY0/mF+kdFE+fesjuaV0vvyn6DauqG38z90y8j+Oyb//50fVMYTl3156M00o87H8n/8VklvUPsZer4xeCcm1fX8j198xK5wuvynX1TZLquZLyUzHa6LnM8OxefHvl38rn/6vf5RPB/+j/AffF9zbVPv5b//z/5Nr/+OXY4ZO//7PP5NP/2NA/tNd/ngppXr99Td65f9cdl4D+pxEt7dIbc+s1gHtW/9dhnceGOMzUf7wW/m3VOfI2t9/lP/t2F6+js+LC7//nFT+Z5/41SbDR38qe3+V+DcEAAAAAAAmy+RWrJmqIRlHxRkAAAAAAAAwGSa1x1pJcJk1FC/txAUAAAAAAABAkZrcYM2auCAif7QnsgQAAAAAAACmjEkM1qIzcoZlNP+TKQIAAAAAAAAFNYnB2gL5nA7WrlwuSNN3AAAAAAAAoJAmd/ICAAAAAAAAYIqa1B5rAAAAAAAAwFQ16cHawoUBswQAAAAAAABMHVSsAQAAAAAAAB4QrAEAAAAAAAAeEKwBAAAAAAAAHhCsAQAAAAAAAB4QrAEAAAAAAAAeEKwBQLGrqJa23XVSYx4mCjQ0SduWKvMIAAAAADBRCNamhdul6alvSedffUvaqu8z63IVfY+N0lRuVt00yqVpd7N0HjQ/BBQoJivqpG3XEvHr5QprTUr+xbVcuwAAAAAwwQjWpoPye2RZmb3oDy5KW/WCAllRV/jQTlc0RbeR4qdtd5O0NFRJwDwdOZiIzy8d/blurBS/9Ev79mNy4oJZn2DgcIdsOzossrhW2hpuuuQbAAAAAIoWwdp0MPiunFHfubVw6D05YS9iGvH7yiS4plZaD9ZJTYaqJxSTcml6WleqDUv3jmNj/t3qcK39vPqs16yWJj5jAAAAAJgQBGvTwkfS8dJ3pfGH35WtvW+bdZgoAf9tZqkYVErz09VUruVgsj6/QMNqWesTCR89Lh1pKtUSnXi+R0JSJmv5jAEAAABgQhCsAQW20G/G4U6g0IF2aVxvfnb0SHfE/ELzVcpXqGjK2mR8fiJV0rBGbTdyTvYdHjTrstEnh/WQUN8SaVhhVmWjolpaTJ9BhpICAAAAQPZueWhV7WdmueCGriZ/QVy4MCAXLw6YRzefQPVGaQ3OltDx78qePrMyiZ4YYIOsLfudtP/wJ0lDvgJVK6VhabUEY9/vhyTc/yvZ98rbknzmou9lHiYIh16Urb0fmUep3K6292eyeendEs0Twv290nX6dZEHviXNlUPS/eMD0pHLd/0U9CyGrTo4sPRL+3rnULcqaTlYK0HzSM73SOPz5uTpflcbK+1la/2Q1GxZLfWLy+zm7jIs4fMh2aeen/KqqqiSpvqgrFXPt0SGJXTkuHz4+DqrOsji3F5MudQ0LJP6JbdZwyqjwpF+OXPkjHScdJ6QcmlS+xTbxlgi52Tb9t6k/Q2ofW14OijBMben6F5c0Qb3ig7W9pw0D7SE34ePHpKt0cDG+bvYsZvjXaP7exlq2+0vJPf5CqjPZPPj6nnR8xf9DLrUZ5BYaTXez0/J6bxoOR+f18/Pfd26znGMnigjfq2lfo5izlPa32cSPd6U13FqNVuapXmxeWANPe3IukoOAAAAAKYzKtYKbOD9Pgmrf4NLV6YfmlX1Z1YQFg79MiFUs2fibF3tDNW02eKvfFxa8z5Dpx3Kta6Oh2qav7Jamp/cKPXFNKJRWxyUtoPrpDkWymhqeXGttO6uS56kwQocat2Bie49ttERqiUpl5otTdKpt6NDGEeYo/l9lbJWvb4tsan9He7n5cbeZqvaV2d4pKXd3lguDImzaC2tO2ZbwVXLbnO8ZrVtWC66whb9vGZp1c31XefPfAa7mqRlRYYLNNfPLx/nJdvj8/T59cmp82ZR8S+5K/lvvuIuWeYIIM+cTh2a1SzV4WP632d04X05oz/sxXcyUQkAAAAAFBjBWqFFJw4oq5KvpMkYau66W/3vkJx5311JFqheayrPhiR0/EWrR5r18+Mj0m1NRjBb1j759YQvz/F+as6fbaEh8/v0ah6LVrq5t7dNbS80PNsVthUHZyCTwFcp9a4hbVXS4qjYyp4ONsY+cB0GteQy9C6Dmi122JRJzturmC3O7CsSThPYqPO2+WkdXJnHTr8fclSR6cqrNM+L0aFlpkb6uXx+eTovWR+fNye6zllBukVtK3HIbeABd4Xcmymrwspl3h3634/lsqeqsUF585y+Qdwm87Ic8qv3O2SS11x6ugEAAADAdEewVnAfScfZ36l/Z8vaB+6zVzmVr5R6qzilT950Zh1q/ebgbLVgD73c0+cI3Qbflo6XXjTh2t1SX327tXpcovuRYnsDant7YtsrNsPSfeCQ6SXmCDUU/5plsdAx0BCMDy3VzvfINqsH2SFp1z2pMrDDkmEJHVWv2eHuXRYyz9GCS6PVUoPSsT36vEPu/mZ6eF709dEf5zDQimqpjw3J00M6D5n9tH+2Heg3v1HbezzLBvW6QsuaXTJqWD780CwmKTPVZ+p4XdtWy12OYYUrlrmr/GLn097H+OcwViP97D6//J2XbI5vHJ/fhV7pilWtlcmyB5zhYLl8ZUk8GAwdSR7+a5st8/U+Roblor3CozKZP98sjkXt9x5zzDkPPQUAAACAaYxgbSL0vWcHMJWLkoZmBe6qsgKP0NnX3V+yZ8+xg5D+X6XpZxYN7ET8X7wnu4AlkzG3V5xCBzrifbUu9Mo+V0gWr9hxN6Dvl/ZYD69BOXH4uDs8SaTed+v6DtlzWr3PA3XSsrtJ2nSjdz0k0TzFoocZmkWvXBVNih6m2nrQbiqvf/SwyxhfmSw0i4mCG+OvsfbTFYKFxqhIUudnhzpedV7j16RadrzGHqoY5TyfIgMnjznCJSVF5VZUtp9fvs6LbezjG48TZ+MhnzscdA4D7ZdTzh54eTYQ/tgsAQAAAAAKiWBtQrwth62hmHfLclcLqNvlK1/UVWm/k1MJPcYDs+dY/4aH/tX6N6Whq3aFT9mcMYKEsWW1vSnAHShEK3aiQ+uMXCuBrJ5cdkCl+3Lp/l7unmL5k9sMlNkP9YvRjfbHaGgfOpA8QYHb2OfTGS7lIvXnl9/zMvbxjdPJM46gtlKWm6GprnDw/AdJk5QAAAAAAKYegrUJknISg7STFiA/Mg15zJbuzTZWL7HJkn0PLj1rpjXkMsXso8XL6+fntTdZvkR7nNnsIcLOYaDD0u0cVlsAAX+xzTQCAAAAADcngrWJMvi6dOkiHsckBukmLXDyz/4Ts5RCdPjm8NVx9mKKy7i9iZLQaD8X7iGKaYw5VDAusTdb+GiPtO+I9+Zqdw55zMYYw0Uvhp1DIfulPdrHK+XPsbSBbOiA+7lbtx+LD7kct0G5/HuzqKU4n1l9Dimke12+zsu4ZTncd+BwKN5/z5qd0/RN09JOWhA1JB/qirccrtPU8hEsAwAAAAAyIVibQCfetycxWHaXnmzgPlmuM4TESQuMaIWbVP4XaUo5m+jt0rRUB3Mi4X95d9xVSPHtJfeBs5T/iczPZTReThwzQOphlznM3hl8vE5qon24VtS5GtzHAwx3BZG9vSoTkJRLzZbV7kb86aj36zrcJycu6N5c5Wp77ob6qSWGUEukYYW7oX2gIv544LSz8X+lNO/Wx5fwfLXdFrX/k8k91FPt55bo+cz0OSTL7vObzPOS2+cX1yeHY/3iKmX5ljtjAW343Ptj/L1Gt+lhqK8lWh2XS+WeGe58sFna1GcJAAAAAMgOwdpE6vulNbOmnmygpmqR9UU7adKCqGiFm55N9MmN0lLlmPmz/D5pemqDNYxU92fr6k1f8Za1wXfljJUD3C3NT31dahxZQaDq69L25OPuRv3j5A5KdJP3dfFG+2ZdVnyV0rwr3sDeGcg5Z11M3l6taX6/TpoXp08MXT2/9Las19iva92YXQCY2G9MN96338O8z9N3xaugXLNKKtbxJTxfbTe4JihNnkKXPHH1EVMWR89n4ucwLN0vZBh+muXnN5nnJafPz8F5zQUXRyvxhuXM6bErB+1tJs4qmqXoJAk59HGzKjNNuOxfPMnXFgAAAABMIQRrE+ojefNfhtT35WppXq2rzZInLXA68cqLVhCnw7Xg6g3S+Vffsn+efNyEakPS/eOf5GnY20fS8bNeOwgou1uanzTbUj+tal/9w7+TkDtfGJ/EoMQp0i/drtkhcxc+ekj2OGdd1DN7Hkh/AOF0s4ImBkguwxI6n8V+ZnwPJWHI34nnD0n7mO/rMXTJm0Hp2N4joUzHpc/PgeNjzECaWtLnp0zaecnx84tJdY2POSOrcfIDayipf0nq0C6T6CQJobNe+7hN9rUFAAAAAFMHwdoEG+j9Vaz30tiTFnwkHS99V7Yd75WQK08YknD/Edn2wwPSka+2Wdrg67L1x0eku1/PYBo1JKGQ2tZLP5HDQ87146eDkm5XUDIsoaM9sk33A3PNDpnOsHTvSHgPHcodOCRbD6c4MSePSeOOcxKKpHj+kXShmw6QEgOdYQmfV/u5o0P2dLkr4VKz32PbAfXchIAmrPYldPSDhB55g+rcdKj377GOzfX+1vP1tttTH+OE6pM929tTHJfj/GTs65bj5zdp5yXXzy8usdot+7DLDCX1LZHN0WHSWamShjVl6nyck8MJwWQmVk+4jCEpAAAAACCVWx5aVfuZWS64oavJX3gXLgzIxYuZOw4BMSvqpHNjfFhd944OTxVRmCTT7fNzHa+edCGXiRXKpWn3Olnry/481WxplubF4zivZn91xeDkB7cAAAAAUPyoWMMUVibz55tFTEE3+edXUS1tsVBND289k+Ow7UHpeOGchNV5WrurLvWkIg6BhiZpXqy34234rRbw36b+N7s+cAAAAAAAgjUAyCNdZWYmNnDNbqtnlPUQVpnegOHoTKhmdSIdqrXqIaDne7xXmlVUy2brPbLsAwcAAAAAIFgDgLyJzsjpoodm5jIENMHJY7J1h65cUzLM1qn72jU+72XCgnIJNNRJmw4CI/3S7uk9AAAAAGB6IlgDgHyZX+aoUtNh1zlpz0cfOV25tv2YnEjzPgOHO2Sr50BstjSsqbSq3fTEIfmZZRgAAAAApgcmLwAAAAAAAAA8oGINAAAAAAAA8IBgDQAAAAAAAPBg0oM1hoECAAAAAABgKqJiDQAAAAAAAPCAYA0AAAAAAADwgGANAAAAAAAA8IBgDQAAAAAAAPCAYA0AAAAAAADwgGANAAAAAAAA8IBgDQAAAAAAAPCAYA0AAAAAAADwgGANAAAAAAAA8IBgDQAAAAAAAPCAYA0AAAAAAADwgGANAAAAAAAA8IBgDQAAAAAAAPCAYA0AAAAAAADwgGANAAAAAAAA8IBgDQAAAAAAAPCAYA0AAAAAAADwgGANAAAAAAAA8IBgDQAAAAAAAPCAYA0AAAAAAADwgGANAAAAAAAA8IBgDQAAAAAAAPCAYA0AAAAAAADwgGANAAAAAAAA8IBgDQAAAAAAAPCAYA0AAAAAAADwgGANAAAAAAAA8IBgDQAAAAAAAPCAYA0AAAAAAADwgGANAAAAAAAA8IBgDQAAAAAAAPCAYA0AAAAAAADwgGANAAAAAAAA8IBgDQAAAAAAAPCAYA0AAAAAAADwgGANAAAAAAAA8IBgzZixaa/M3f+SzNn0oFkDAAAAAAAApEewpi1olFvv91mLJXPnSYm1VHxK6nX494zMMI8BAAAAAAAweQjWtEu98ukVvRCRG7/ulVFrZbEJyIwv+0SuXC7S/QMAAAAAAJheCNYsA/LJzqfkyqZnZKRrwKwrNgvkc3PVPwRrAAAAAAAARYFgbapY/oA1BPTGuTfsx4VWUS0tu5ul82CztDWUm5UAAAAAAACIuuWhVbWfmeWCG7o6aJYSBWTmzufk1iv75cr+N6RkeaPcWveEzNAVWsrolZBc/9FeuXHJfpxI9x6b86jI9eeekU/0cxY8KKV/Ua9eb/dNE/X6Eefrlz8jc9cHzQOHKy/L1Z2daSrCzD7OVe+1Sb2XWZtkQaPMefYJKXnLPha3gMzY9A2rn1u0j9voWy/L9SOdcsOv98kfPwZRx7DTcQwZpd+nEnWspXVBKTHn0hru+mqXXO96I2PlW82WZmlebB7IsHTv6JCOC+YhAAAAAAAAiqRibUG1fH6uyKjMk5mb9sqc9fFQTSuZG5TSZ/fKzAVmRYISnw6fwjJ6yTT4f3aTO5DS7+UI5Up8frPkNpqxv9qA3Ph1RP3rl5I0+2GFb3/xhJRIRK4fSQjVdOC2/zkpdYRqWsn9T1jHVrpEB332MVgWzFPHnU2opqQcHqqDuZfUuXSGappPZjy6SebsbCzaSRoAAAAAAACmguKoWHNVkEXkxsG/l+unBuywyKo+00GZWk5TBWZVksnLcvXYPCtIGlXPGznyhgmpAjJjucgN9X5pme3fOPiUjJwy61Ixzxt99Vm5mqoXW9rfq2PYr45BL155WUZ+1BmrnrMqytRrrJArbcWceX3Gijqn6PZMdVooei4UdT5nqvN5qzqfGY9XDwV9eokEfSLho4dk6+F01YYAAAAAAADTU1FUrMUqyHRwpCcQiIZq2qU3ZORHL9uP585LUWVlmvrLMild75cbB5+Vq/sdQZKuNMsUqin29iPyx7D9OK2wXRlW4ktVshaQmXVBOzhLCN1mbDKhmg4Gd8ZDNW301F65ejBkP0g3MYGuXtP/Zjlxgb29kIw8pydjcJ4LRZ3PT8z5LPEF7HWpXOiVPdvbpXF9O6EaAAAAAABACkUSrOkhjxG5/qM01ViXMgRK0dBprk9GD9qhXG4CMuPLavtXzqTt4RZzqVc+vaL+TRHwldR/w64CO5ZwDAsa5db71b86NEyqtnNLOzGB395edhMXPCif19sTPXz2JZm7P8WP7gFnPRcAAAAAAABeFUGwFjA9wBz9xXJhQic9/DLjMM60TMVbVtVgAzKaMlh7UG591GdVpCXuQ0lwmb1/Gfq3jVUxN8Pqv5ZFRZ1mZg8FAAAAAABAYRVBsGaCrbdOZ5hp0wRZKcKvaOj0aSjXSjXDBFHZVYOJjEb0BAZB+fxy+7FmD71MMWGBEq3GS79/pmIubbCYW/AYHVar+6dd2ZT5J2WfOAAAAAAAAGRl8oM1E2yNRtKnRjMet4cuJodf46x2U7Lur2aMRuwnxvqTmaGeo6/+vXziaR/GqpjLInhMIWP/NAAAAAAAAIzbpAdr0Qqr0Uia6ik9a6bVMywknyYN9cxlGGdqdkVZDsHcKTvgsicwCMjMv9ChX0iuZ6z+8snn7MNMEIhPbJDuGKLVelmKBX9frk77upLlgbHfU88KurtZOg82S1tDuVkJAAAAAACAqCII1nSwJTJj/Usyp/5BR+CjQ6e9Mne9HuqphzbuTa7YynG2zGTRireg3Fofr/AqWf6gzEg18aflkvwx2mdt+Z/bExak2jfDHjqqj+8Z13uWLG+U0p3PmdBQP2+MZO/+epm53LGPCx6UmZsak/upmeBP5j4hc3aq3zu3ab1mr8xZ/5zc6hjKmkpN/RIJ2h+N+NeslqYKexkAAAAAAAC2Wx5aVfuZWS64oauDZikqIDN3Pie3SkRGxWdCrmR6YoKU/cCWP2MFb2l/n4WS+r0yR088kED3KEs3GcKMTS9J6f1qn6+ofZaX5erONLOZWh6U0v2mKi3RlZCM/NovpY+KXH/umTRDSc05SnNuUu6nOS/pjOpJFva/kTGMrNnSLM2LzQMZlu4dHdJxwTwEAAAAAADAZFesRYdydsnVnc/KyFs6YIsbfetlGXkufZP9MYeRZmG06++t7cZF5Mar++V6hhlGb5wLqf/VQWBErv8oU6imvaGOQb2fcxtX1DYOPquOea95baahqAPyiTo3rtcrozqUU+cmZfh3aq9cUdu8obbjFDufY4Rq2omucxIyLw8fPU6oBgAAAAAAkGByK9YWNMqcZ58QGUfFGQAAAAAAADAZJrVirSS4zOqRNp6KMwAAAAAAAGAyTG6wZk1cEJE/2hNZAgAAAAAAAFPGJAZr0Rk5M/UXAwAAAAAAAIrTJAZr0YkLLo/ZSB8AAAAAAAAoNpM7eQEAAAAAAAAwRU1qjzUAAAAAAABgqpr0YG3hwoBZAgAAAAAAAKYOKtYAAAAAAAAADwjWAAAAAAAAAA8I1gAAAAAAAAAPCNYAAAAAAAAADwjWAAAAAAAAAA8I1gAAAAAAAAAPbnloVe1nZrnghq4OmqW4hQsDcvHigHmESVN6r3SvqpKAeRhzrU8ae96Rd81DAAAAAAAA2AjWJtA9C+6VTYt8snLWLLPmmrz+3nuy/50PMwZXXl+Xk3EEa/fc+4h0Lorum9vAtWty4b2zsv/SCOFczkrlm7UPywYh3HRZUSedGyvt5fM90vh8n7083eVyXiqqpW3XEvGbh4nCkWGJnAvJ4cN9wn/2yBHXJwAAADCtMBR0gny1+hHpXFrlCMe0WbJy0VLprF0uXzVrEnl9Xc5G3pG1/9QlX4r9nJXXza/GI6D2e+XSh9W+3iv3mHUAipvfVybBNbXSerBOairMSgAAAABAEoK1CaArur7j08GYrjT7hTRGw6vXzsrr19TqWT75TorgyevrJsuA2sd4MKd/1D6fNRUvs6qk9d5S63nAeAT8t5klOBXmvFRK89PVyZWsSIvrEwAAAJheCNYKbr5sMsMkXz/7c9n8jmNI5MiHsrnHVIbNqpJNC6y1htfXFRO1z5fekbWv2eFawD+PqrWczJIvOgsVYVnoLzNLcBrPeQkdaJfG9eZnR490R8wvNF+lfIWqtaxNyvVZUS0tu5ul82CztDWUm5UAAAAAJgI91gptwXL5zVJf5l5l0edEzsqXej90r8vxdV+trpfv+CLy7X/6Z7mzeqlsiFa86XDuUql8M2md9bIU5su+ry2VlTn0WNMVa2vfGTFrncx7id6vU/JTs1azXyvy4ms/lx/ol5bOl2/es0geVvsYrZIZUMe3TR1f4j7Yvef0MFmzQh3TQOS9lM9N7Femt7Np2aL4ENtruirwrDofqfbfSLVv1yLyD2fUMaV5Wc7Hpz7T7kU+CWQTqCV97jqE7crwmZpzMCv5c8iJoz9X+Ogh2Xr6rvjj8z2yT/eUaqiTzWsqYzgj3rwAACTNSURBVOu2jqvPVLk0bVktaxdnGVhEzsm27b0JvcHKpaZhmdQvuc0a5hgVjvTLmSNnpONk8r3J1Ycs1ivLvI85Not6j/YXjsmJC+axVqGeV79a6tU+x56XSooeXIGKKml4OijBMfdzHOcloceaDtb2nDQPtITfW5/zYbPt8ZwXJbBCXRuPq+ep69U2rK6RkOzr6pOBhOcm9ysbkhp1zPHzal6r9iHd/xXJ/nwaOR+f18+hSloO1krQrHad4xj13rvXyVpzrlI/R9Q5aZbmxeaBOifdOzqkI/FcAgAAACgIKtYK7J5ZM61/B8KX04dTf7hmfyn0zYv1TPP6OttM+UsdoFgBmqZ7st0r36xOWLc0jz3a8kCHUL9ZZQd/zqFnetl9DnRAVG96z5lVFvU631Lp/Noj8s10o05nzZJNum+d2o6rb53pBfeb6vlmhVvafdPDcVfVS3cWw1yzPb6sQrUEP33XDhb055y2KrB0njys3zty2XuolsDvXyYtjgDGv7hWGrbUSasjgNDrWlaYB17dkWVokaRcarY0SefBddKs98kRrmh+X6Ws3bhO2rZUmTVp3DHbCmhadpv3Mattw3LRFarpYEY9b6xQLYm9r627al0hkJZ2Pz2flzFcGBJn0VpauZwXHSTtbpbWjfpzMKss6jypa6R1V5O6TjJUWy0OSpv+HF3n1bx2d53UmDVxHs5nomyPz9Pn0CenzptFxb/kLtd9wVJxlyxzBJBnTqcIAgEAAABMKoK1ArvrC3ZKcuFahkqokT+I/f1sptxp8hmvr7PNksCsa/Lia3afsxetfmxVssGXsE58snoihpEumCcr9b/Xrsn71opEs+SL9yy3Zxa9FpFvv+bs1fYLaXzXVPEZ99y7VDZYp0dX3Tme+9pZc1yzZMOqdKGhT1b6ZslApE9tJ76Nb79nvVD9eqnsSzwnC8y+Wb3uzsZ73amfxrMRK9AKLFqaPszL5fgunXL8zgz31VWDsXWOH1OtZhl5R/5BJyEZhgZ/9R4966u6BhLO57gsroxV3EQF1bpEwaVjBBgFo4OIsUOPMcM/X6VsfloHNOax0++H7IDbUi5NT8eDxlzUbLFDo0zyElJmo2K2+kuJi4TTBDq5nJfdaZ4XUybBjaulKe2w0wxBpdqP+oQhkHk5n1kfnzcnus5J2CynGnIbeMAR5kX65U1XUBmn3ydkktDw0eNUqwEAAAATiGCtoErlTqvw7Jr8yx+sFWmo35tcx+b1dXED7521hx7KiLwatp/kXPfBJ9aqAiuVe/TQRj1cVclUfbfS57MnP+jRwyqdYeKIvOt8WHqvtJqQSw+vdA3dHPlQftATDw3/Mk0VmTVktfcdx/DNEfnpOz+XRhOurZznrForlW8usvff7nXnHmb67qVTsvaslWjJw/PSV61lfXzjEKtac+1/1HxZrQ/jWkRezdP2YvRwuR2OgMAaitYu7Y5qHKvyxyzmblA6tkd7gB1y9//S2472Bov+JAwDtcOLYQkd7ZFtar9iz9vRIyHzHC1z+FdmqqzU+xw4JNti21PLXY6hnK4KIz3E8lDsec7zoYf0Weujw0ArqqU+NpTPfl18G+2y7UC/+Y3az8ejkwmM77ykpSu0XOHgsHyYNovN8rysWBYbzmhR+xd9rj62+LVTJmszTpagrq3oOXVdcyL+NcviVWuezmcq2RzfOD6HC73SFbsuymTZA85wsFy+siQeDIaOZPj81PvsMfuQaqgoAAAAgMIhWLtJpap0c657/w9pErlxCCx6WH7ztXrHz8PSudRnfWnVfcRS918zxvp91BfMMMrIeyYkTDQiP3jP/maberKEa/KLy6m38+5lu/pMZn4h/rro8MlrfbI/Xe+yS5etyrKMkzNke3zjMXJZfqE/Vt+i5Oo5UzWYcWixR6GzfericgwdNJU1F8PDZsUku9ArW9d3yJ7TIgsfqJOW3U3Sphu96yGC5imWMcO/fmnfod7n5KAj4FDLaauDdCAVDTkGXecjcdifqzJJCW5cJ60H7Wb0+kcPn4zxlclCs5gvwY3xbVnnxRWChcaogBr7vNQsdVYxquc7eqINnDzmCJeUFJVbUaEDHfG+aOpz3XfUeY3dJvPM6/J7PnP93HNz4mw85HOHg86Qtl9OOXvgAQAAACgaBGsFFa0MmyVf/IK1Io3E2R+9vq746Ob+L57VFWKZhx8OZBn0xXrPZXp+tPfcrFlyl7UiR87XRYO8WVXS6QoNnT96YobMsj2+8YmGionVc9Gqu4j8Q97DvRTVTHkYIpdXVo8sOzDSfbJ0vy13j6/shA4kN+JP4upNViZrdzVLmwnyWtc4hiUmnKPcZpKMB0gFpxvtR6vq0hj7vJTLvDvMohYZlotmMcoZLuViIPyxWdLKZL4p1szn+czqcx+Pk2ccVW6VstwMTXWFg+c/kBNmEQAAAEBxIVgrsGhlWMWs9MMEpfQLYn+v+0Q+MLmH19dNJmuoY0IfsLU9p+QHmWbaRH5d+mdrKGxg0X+O95grwKQFU0eVtCRWYBVUnxx2VVGJ6AkT3EHesHQ7h0nm7GO5XMigR9GzZlpDLrMdPloUMg1ZzaTw5zOzQXnzXPyasYckO4eBjvd6AQAAAFBIBGsF9u41u5lZpmGC98yzh0s6gw+vr5suAmZyh5SiVWZpJ0tII9XrotVvkbNJoWHST887eR9macmp8i7aUy8+MYV9neR50oJiMcbwzUBD0DXcM3y0R9p3xHtlufrA5cnA4VCskXwSHVjt6EgaWukeNtsv7dF+XCl/jo1dvZRjT7vQAfc2tm4/Fh9yOW6Dcvn3ZlFLMfTSPVQ0e+lel/fz6VWWn4N1zZhlWXyn1MhsmR8NYzNMWgAAAABg8hGsFZrpv5V+tsb5sslqxi/y+mVH8OH1dfnmdThlgcT6oKXqI2aJTzaQrp9Y6uG1aV6XqW/ZhEmc9TWzd995z7p2Vi66V+5Rx/WoX10nhZi0YFIkhjRLpGGFu+F7oMI9O2RMpF+6DvfJiQu6V5Z63gp3g/v8cMx+qYdR6hAv+qNDHB1YpQhJBk47G/hXSvPuOqlxHYe9vy0N6SZYGMd5mQDuoZ7q+LboGWptgRV17s8hQ5AUfFyfF3s50+vGfz698vo5OCsdK2X5ljtjgXD43PtZVA2a4c4Hm6VNnVsAAAAAE4dgreA+lP3R2SaXPiL77i11NMafL/tqTX+upOb4Xl+XL9EZR/XsmvNd2/7qpAVMysg78g9WNdAs2bBKnZcFjp1R+/bN2odlg5U3pusnNsucT/cxpX9dvG+ZtT39Otfxl8pX710u3V9bHh96mTcfyvHosS67133eS9V2ncfuYq6dWT559F57GGghJi2YLIn9uHRj+ljj/YPrpPXp+MQArh5cvkppdj5vo3PmyzxxNpz3LZHWXWo70Z/YtpukbUt1LCCyuGaHVPS+qte4jkvtb3BNUJrS9APL5bxMOFcfMWVxbex86IkEnDOQdr+QYfipdV5SvU7cs2bm4Xx65fVzcIaBwcXRSrxhOXN67MpBqzLTXHf+xfk/JgAAAADpEaxNgHff+bl8O6JTqlmyctHD8Sb4q5bKSh3mXIvIt1MMI/T6uvyIDilUX9oWLXVt+zv3mA7hk+Snvb+w+ohZ52WpYyZStW92OHZNXnztVNrhsQPX9Pl0H1PG1106JY1WyGlet8q8zvp5WL6zyCcB9etcqsqy9dN3zeyJs6rkO87trlLbXeroo5bArlqbJRsW6cqgQkxaMIkSQ5pEzqGGGZ87LKHz7n5o4+aavCCdMvEvXmIFRC2mUb124vlD0j7m/pTJsgfSVJ7lcl4m3KB0bO9JP0TWoj6PA8fHmIE0tfDRQ7InYdbMcZ9Pr7x+DolhoDbmjKypFOCYAAAAAKRFsDZBftr7c2k8G5EBO6syrslA5Kw09qQPgby+Lh90sNf4nhl6GaVn+bzs2plJMCI/6OlS56VPXk91Xv7p5/KDtDnSNfnFGf1a9zkdiPTJt19L/zp9Lr702ll5MWJ6rkVduyavv2d/Fum3OQ4j78hatd3X1Xac7NlW/znD5x+tdlNuuh58OqQ5JNsO9Es4IcAIR4YldPQDx6yT9nPdAcuwhM/3yLYdHbKnyzlkMB/6ZM+Oc1m/p92oPmpQTjzfofarR7rV/rrewzouvc/tsvVwugqmXM7LZFDnZnt7iv1zfB4Z+7oNS/eOQ9a5idE96w4cSnNOxns+vfL+OSRWu4XUPS4bGfv6AQAAACioWx5aVfuZWS64oavJX2AWLgzIxYtpB/7clO659xHp1P3RdEP83uz7o3l9HbRSM9xTV6VlCt5uHl+trpfv+KbP8RaFimpp26WHmOoQKHmSAqsH25Z1sjbaG+x8jzQ+z4yPaa2ok86N8WGRqc/pTcR1vHrShRwnVjCv1xV8+Q8MAQAAAKRCxdokiDaXF99S6a529Poag9fXYRoqvVf+UvdcKrJJCwINTY5+U2P91EmNed1UUVMf7dumh+PFG/TbdMP8u2SZo+F+ODxkljC2Mpk/uaPQC0uHsrFQTV0bR8/kPFtpwH+b+t/s+rIBAAAAyA+CtUnxoWzWQxHVUsDn6PX1tUfGmHnS6+swndyz4F7pXmWHOq+/V6gefBiLf028Qb/9YzfMjzfc17OUEoBMb3oWWXN9WJWOUR6ujYpq2bymzGNfNgAAAABeEaxNlkunrN5ZumdXTry+Dje30nul2wStnUvtUE33m9tckBljkc6Jriz7q0X6pX1HjsP8cPNxziIbo4e85nJtlEugoc4egqyvK4YWAwAAABOKHmuYJm7yHmsLlstvlppv6GZChc2XaKw2KSrKpeaBZVK/pFL8rtBEN+nvlzNn35eOjE36EePqOSYSOtCeNPvnlJZwfOHz56Srq1dO5FRxViUtB2vFd75H9j1vZhEGAAAAMGEI1gAAAAAAAAAPGAoKAAAAAAAAeECwBgAAAAAAAHhAsAYAAAAAAAB4QLAGAAAAAAAAeECwBgAAAAAAAHhAsAYAAAAAAAB4QLAGAAAAAAAAeECwBgAAAAAAAHhwy0Oraj8zywU3dHXQLMUtXBiQixcHzKPp4nZpemqDrC0TCYeOyNbet816wItyadq9Ttb6zMME4aOHZOvh5L89AAAAAAAwPlSsTYbye2RZmb3oDy6SGnuxAHSA9y3pfGqlBMwaFF6goUk6DzabnyZpqjC/SFCzJfoc9bO7ms8IAAAAAIAphmBtMgy+K2eG7cVw6D05YS/iJjFwul/CZlmkTJY9UG6Wnapk+WKzqP1+SKZb3SYAAAAAAFMdwdqk+Eg6XvquNP7wuwwDvRldeF/ORMyy4vfPNksOFbPFOXIzdLbPLHkxKB3b26VxffSnR0LmNwAAAAAAoHAI1m5qfyLzzZBTTKRBufx7s6gtvjN5uK/6YPxmUaRfTp00i9NNRbW07LaHw7Y1pKrsAwAAAACgeDF5QcHFJypIJRx6Ubb2fmQeOZnXSa9se+l1GVCPax5bK/WVs2OBTLi/V/a9on/nUPV1aVt6t/izCdT6j0jjK+OomKuolrZdS6z9sRrkn74r/vh8j+x7vk+koU42r6mMrduq13mVl+2VS03DMqlfcpv4ffGTFI70y5kjZ6TjpPsa1f3SWtfEnxc60C57HCGY7pPWHBvS2S/t64/ZQ3tX1EnnxkprrciwdO/okI4L5qHiep3az8Zx7qdblbQcrJWgeZRp8gL38Tn23+J+n9T7qd6jokoang5KMOf9TDx/yecJAAAAAIBiRsVasSubIwvL75OWpzZIsyNU0/yV1dKaYmKCrEK1PPP7l0mLCbmsx4trpWFLnbSakCu6rmWFeTBOuW+vXGq26EkF1kmzfo4jBNL8vkpZu3GdtG2pMmtsA4ePS7djWGfwccckAyvqHKGQDt0codTJDxzDMRP7rJXLvDvMohIOD5klzdt+Tg57X1t31bpCNa249hMAAAAAgMIgWCu4eD8158+2kDNMyeRuaX7ycQmWDUn38Rfjrz/+O/vXZdXS4Mwu+n7i2M4RO9wZ7pVtsXWOn/FUqyVaXBmvbDKCal2i4NI8BS05b09XTo2dOCaHf4PS8cK5+GQEviWy2RqyWC5Njzu2d77HVcmmPgg5dd4sKq4+axV3ybJYg7VhOXPaWdXldT8nXs2WddK8OPO+jrWfJ7rOScgEl+Gjx6lWAwAAAABMKQRrU8Hw76T9hwekoy8+ZHSg7yfS3m8v+2bfbi9MNj1UcIcjhLKG9rVLuyNgkjtmJ1XYeZbj9nSIE1bPCR3tkW3qebFm/zvczf6Twr8LvbLvqJnGVfGvWS1NK5bJ2lg41i/tKYZIXgzHX+Pqs+bsrxbplzcTwiTP+zmRKqql3lWtd0i2RfdT/Ww7YC5OxVXll0id2z1m4oV0w1UBAAAAAChWBGtFb0i6f/YTR9+ruItD2Va9TQxrZssLQxIbOWlCI1fAlEc5b+9Cr2xd3yF7TossfKBOWnY3SZtunK+HMpqnWFKEf+4hoWWyNtY/LWEIqMPA6X5H6HebzKuwl2qWxl8bPve+u0eeNo79nCiBB+JDbrXgxnXSetCehED/tDrOj/jKZKFZBAAAAADgZkKwhjwZlg8/NItRvx9KDo3yxsP2KqrsGSh31Vr9y3RfMH+s6mwsCUNCoyLn5HC6GT0vvC9nHGGc3WfN3V8tEk5RpTWu/ZwYC3Nq5BcPFQEAAAAAuJkQrGGaqJIWq8m+eehBYpWWJWOYNyhvnnMMIbX6rM2W+Y4hpKeSQrnx72fx+Vgu0zsNAAAAAHATIlibDvTMomZxugo0BF3DKMNHe6R9R7wvmKsvWyoV1bJ5TYoqrTGa87uGg+qhmyvujO/H+Q+ShpCOez/zqWK2pMv33MNt+6Xd7F/qn9RDZQEAAAAAmOoI1qaFOTJPj0KELdIvXYf75MSFQRmQcgmscDfiT1YuTU8viVWrWWGXI+AKbqyLT0yQyNkDzlcpDUtvMw9Mj7hMct7P1PxrlklNbCimep+0wzIrpd6a8VTRw1F3xY85kbt/XKU071bnoMJ5kdn72+KasjYVM+z1YLO0bZnEyRgAAAAAAPCAYO2m9racsiZnnC1r/+tKqXHlHrdLTVWRzCY6AQbCH5slxVcpzbFG++ukdWP6AEkLNKx2zQBqhV3PO2foVO+XNhTqk1OxEK5MgoujVW+phoGObz/jnNvU1Pvsir/PZqvXm80dkOkQbp39vMSJEhJd6JUu5zb0vu4yr3Xsb3BNUJoy9FezKvTMufUvzvxcAAAAAACKDcHaTe7E6V47OCmrluYnvyWdf2V+ntwgzav/LH2l1c3m5BnHrJ6JhiV0Ps1MoglDQMNHz5hhjX2y54CVWtoW10pbtNorwYmzjudFRYbloll08bqfCdzBn5t/yV3x2UQTAzKnSL90H02/vRPPH5L2MfcnOmlDNnJ5LgAAAAAAk49g7WY3+Lps/fERCQ0PmRW28PDvpPv4L6dR76tB6dieGAQNS/h8j2zb0SF7utyVWzb3EFA9A+i+w45ZPE8ecw0J9a9Znbri6uQHSSFX+Nz7aSY98LKfqfTJnh090p0QfIUjwxI6574WdEDmfp56zlG1ve3HpMNZQZdkUL22Q+2XvR3Xfunt6PfY0S5bnecswcDhkITSBokAAAAAABS3Wx5aVfuZWS64oavJX7AXLgzIxYvp51UEMA2sqJPOjZUSPnooYxAHAAAAAEAxIVjDpAg0NElrqlk2U9KzTjKz5M3Mvh5Eund0SMcFsxIAAAAAgCLHUFAAkyvax+58iFANAAAAADClEKwBmCTlEmiok7ZdS8Qf6Zf25/vMegAAAAAApgaGggKYJFXScrBWfOd7ZN/zfWkmcwAAAAAAoHgRrAEAAAAAAAAeMBQUAAAAAAAA8IBgDQAAAAAAAPCAYA0AAAAAAADwgGANAAAAAAAA8IBgDQAAAAAAAPCAYA0AAAAAAADwgGANAAAAAAAA8IBgDYDbijppO9gsneqnbUu1BMxqAAAAAADgRrA2LZTKN2vr5Tdfq5fue+ebdUAqVdKysVL85pF/8RLZ3FBuHgEAAAAAAKdbHlpV+5lZLrihq4NmKW7hwoBcvDhgHt3c7llwr2xa5JOVs2aZNdfk9ffek/3vfCjvmjW2+bLva0tlpXmUjdfPdsnmS+ZBotJ7pXtVlak8isi3/+mU/NRaxk1pRZ10bqy0l8/3SOPzffZyVqqk5WCtBM0jLXz0kGw9nPy3CwAAAADAdEfF2gT5avUj0rm0yhGqabNk5aKl0lm7XL5q1hTEyGX5xTV7ceC9y4RqyKBPDh/ol7B5JJFzso9QDQAAAACAlKhYmwD33PuIdC7SgZquUDsr+98ZsSvUSufLvmVLZaX1qz5p7HknoXLNSQ/nfFg2zLomL772c/nBiFkN74J10vnIsGz7Xq/cTFdgoKFJWteU2Q9yrlgDAAAAAADZomKt4ObLJitU08M1fy6bo6GaNvKhbO45K6/r5VlVsmmBtRYTJDD3NrN0c1noN6EaklVUS8tuMzEDveMAAAAAAONExVqhLVguv1nqy1yRFn1O5Kx8qfdDszJRthVr0eeZhwkG3vuFrH0n+cVfra6X7/h0/7V/ljurl8oGn6mw02HgJfWeSeusl7mVzpdv3rNIHlbPi84kOXAtIv9w5pT8NM3+2tV8Ej+mVO+hzss2dV7SV/N5E3isSVr/tD//FWsV1dK2a4k1AYDVn+z0XfHH53tkn64ga6iTzWvsSQL0uq3jqiorl6Ytq2Xt4iwDtcg52bbdHLNjX1Mblu4dHdJxwTzU8nR8gYoqaXg6KEFffL/DkX45c+SMdJxMMfzUua+xSrxyqWlYJvVmWxb1Hu0vHJMTzn02arY0S/Ni8yDVsQEAAAAAkAMq1grsnlkzrX8HwpfTB0N/uGaHHL55he21NqaZ8pc6lLMCNE33gLtXvlmdsG5pck84HZD9ZpUdvkUDMS0wyyffWaVnIy01a9JL+x7qJx+hWs2GJml5LDqJg3F7mSw0i4FgtbT8bZ00zTMr8sDvXyYtjuDKv7hWGrbUSasjCNLrWlaYB17dMTlVat6Or1xqtjRJ665aV6im+X2VsnbjOmnbUmXWpHHHbCuYa9m9TpqdoZplWC4SlgEAAAAAJgDBWoHd9QU7kLpwLUNTtJE/iJ0DzJQ7x86fxjAiP+jpki/9k/un8T0ze0FGsyRgVcTp1/xCXtQvmVUlG3wJ68Qnq53DVhcsd/WQa3Ru92zECg0Di5bKN9Me2yz54j3mPa5F5Nuv/SL2er3NxnfTVfHl5uKVj8W3qlZa/65ZOv+2STb/qQ51bpN6tdyp1rU2LbFmw7xsPTtPFle6ZtjUgmpdouDSMYKkYuXh+Gq2rJPmMarrxgwbfZWy+WkdzJnHTr8fSluBeKLrnIQi9nL46HGq1QAAAAAA40KwVlClcqdVsHZN/uUP1oo01O+zyb0mwMB7Z80w0xF5NWzvlHPdB59YqxxK5ZuL7HTD7iHnHrL57qVTsvasTjJmycPz0qeGK30+a5jql3r0sFFnCDki72bIJHMx8Mox2fr9Hul+e9iqVPPfrtfqf8tEPuqX7o5D0vi9Y3Iir8maooct7jgXn2nTGoLYLu3nzUNNV2CZxdwNSsf2dmlcr38OSbcJjix629Z6x090GKh2oVe2Jv7+QL/5ZZZyOb6KaqmPDcUUCR04JNsc297m2Hbw8eoM50R9btZlN5zwHmq5K8OwWnW8e8y52spspwAAAACAcSJYg0uqyjrnuvf/kJAAls6Th61itT7Zn6rvmnbpsjVBQ8A/T+6x1ySLnE3Z+y3vLvdJx4sd0tjhCI/e7pFt3zsmHaHCBC2hs33qJA5JLO+K9MubF0QuhofNiqktl+MLPOAethncuE5aD9qTCeif1o2OajdffJhuav3SvqND9pwcdFSoqWWq0AAAAAAAE4RgraCiFV6z5ItfsFakoX4fbWE21XzB9EObVSWdX6uX36T8WSorrSenN5AY2BVUuTQ9ogOcful+bVjkvqB8JY991dyG5cPEkawZhipOPbkdX24zlt4m8yrMYgqhA6knKAAAAAAAYKIQrBVYtMKrYlaG5mmlXxA7P/hEPpiAoq3pLvDYall7+7B0f/+YdLxyXLo/KpO1/y3TsENMjo/lMsEZAAAAAKCIEawV2LvX7KZkmYZB3jPPZ4c6kcvyU2vNFBKd0TRy1jHhQJqfnnfyMrvnuMyrls2ryiT82nHpsHqpDUrH93okdPsS2fxYufWUm8q4erfln3t4aL+0x3qjpfo5JifMMwEAAAAAKEYEa4Vm+ovpoZKbnDNpxsyXTdaMmiKvX87P7JcTauSy/EIX5fkWZZj1s3gE7iizeqptfcXZT61P9uiea3Pvugmq1gbl8u/NouZbIg0rnIFhuQQqJi9AHDjd75jkoFKad9dJjWt/1P6tqJaWhkLNklolLbvtfm5tW6boTKwAAAAAgKJBsFZwH8r+9+zhoCuXPiL77i2NV66Vzpd9tab/WKbm/0VtRH7wnj3r54ZV+vjmyz2ugK1Uvnrvcun+2nL5qlkzmQZCx2TriylmjbTWO2bLnMJOnHXP6qknCIhODtB5cJ20Pj2JAeKFXulyzhbqq5TmXQn7t3GJBNcEpSlDfzWvAg1BCdqT2Ip/cWG2AQAAAACYPgjWJsC77/xcvh3R4dosWbno4XiT/1VLZaU1o2ZEvl0MwyS9unRKGq3wUB/fUulc5Zy44GH5ziKfBNSv75wCFW03hZNnpDs2RWcKY862WVgnnj8k7efHmhG1TJY9UOjKuonYBgAAAADgZkawNkF+2vtzaTwbkQG7eM24JgORs9LYc2rq9VZLoMPDL712Vl6MmJ5rUdeuyevv2cf4AyZmmCCD0rH9kGw70C/hhIAtHBmW0NEP5KJ5PDkG5cTzHbJtR490nx92DA1VrP3rUb9rl62HncN182PgcEhCmUJHAAAAAABycMtDq2o/M8sFN3Q1+YvywoUBuXjxZhiAl7177n1EOnVfNd3wv3cK9lUDproVddK5sVLCRw8VJMADAAAAAEwPBGuTYr7s+5rdW01XrG3r/XDqDgNFXgUamqR1TZl5NBY9qyYzZ3phn2eR7h0d0nHBrAQAAAAAIEcMBZ0UH8pmPSxULQV8S+M91772yJSYWROY0iqqZbMOL8+HCNUAAAAAAONCsDZZLp2StaYnGYCJUC6Bhjpp27VE/JF+aX8+xeywAAAAAADkgKGgAKaJKmk5WCu+8z2y7/k+9yQbAAAAAAB4QLAGAAAAAAAAeMBQUAAAAAAAAMADgjUAAAAAAADAg0kP1hgGCgAAAAAAgKmIijUAAAAAAADAA4I1AAAAAAAAwAOCNQAAAAAAAMADgjUAAAAAAADAA4I1AAAAAAAAwINbHlpV+5lZLrihq4Nmya1mS7M0LzYPZFjCkY+l64VjcuKCWQUAAAAAAAAUmSKsWCsTv69SmnfVSY1ZAwAAAAAAABSboqhYc6mokqana2Wtb1i6d3RIB1VrAAAAAAAAKELFV7F2oU/ePDdsHgAAAAAAAADFqSgnLxgIf2yWclBRLS27m6XzYLO0NZSblQAAAAAAAEBhFGWwFvDfZpayV1O/RII+e9m/ZrU0VdjLAAAAAAAAQCEUZbBm+1gu018NAAAAAAAARaqIg7XcnOg6J6GIvRw+epxJDwAAAAAAAFBQxTcrqBJoaJLWNWUikXPS/kKvnCAkAwAAAAAAQJEpymBNpFxqtqyW+sVl4jdrwkcPydbD2b4eAAAAAAAAKKyiHgoaDdUAAAAAAACAYlOcFWsr6qRzY6VIpF/aXzgjJy5QqQYAAAAAAIDiUpQVawH/bep/h6X7hWOEagAAAAAAAChKRTwU9GO5nNOkBVXSsrtZOg82S9uWKrMOAAAAAAAAKIwiDtZuk3kVZjELgYagBH32sn9xUJpyeC0AAAAAAACQq6KevMC7Mln2QLlZBgAAAAAAAPKvKIO1gfDHZil7A4dDEoqYBwAAAAAAAECBFfHkBbnqkz3b26XxQL95DAAAAAAAABRO8QVrFVXSsKbMPMhddEbRM6eZTRQAAAAAAACFUxTBWs0WezZP62dXrQT1yki/vJnTrKBKRbVs1qHc+ZB05PpaAAAAAAAAIAdFOBR0WMLnz0n7C70yYNaMrVwCDXXStmuJ+CP90v58n1kPAAAAAAAAFMYtD62q/cwsF9zQ1UINz6ySloO14jvfI/ue78shkAMAAAAAAAC8uUmCNQAAAAAAAGBiFeWsoAAAAAAAAECxI1gDAAAAAAAAPCBYAwAAAAAAADwgWAMAAAAAAAA8IFgDAAAAAAAAPCBYAwAAAAAAADwgWAMAAAAAAAA8IFgDAAAAAAAAPCBYAwAAAAAAADwgWAMAAAAAAAA8IFgDAAAAAAAAPCBYAwAAAAAAADwgWAMAAAAAAAA8IFgDAAAAAAAAPCBYAwAAAAAAADwgWAMAAAAAAAA8IFgDAAAAAAAAPCBYAwAAAAAAADwgWAMAAAAAAAA8IFgDAAAAAAAAPCBYAwAAAAAAADwgWAMAAAAAAAA8IFgDAAAAAAAAPCBYAwAAAAAAADwgWAMAAAAAAAByJvL/A/DF32/kPGh/AAAAAElFTkSuQmCC;" vertex="1" parent="1">
          <mxGeometry x="1110" y="1310" width="1238" height="752" as="geometry" />
        </mxCell>
      </root>
    </mxGraphModel>
  </diagram>
</mxfile>
